<svg xmlns="http://www.w3.org/2000/svg" xmlns:xlink="http://www.w3.org/1999/xlink" viewBox="0 0 1516.41 1135.49"><defs><style>.cls-1{fill:none;}.cls-2{isolation:isolate;}.cls-3{clip-path:url(#clip-path);}.cls-4{fill:#0e518e;}.cls-10,.cls-5,.cls-8{opacity:0.4;}.cls-5{mix-blend-mode:overlay;fill:url(#radial-gradient);}.cls-6{fill:#1a5aa2;}.cls-7,.cls-9{mix-blend-mode:soft-light;}.cls-7{fill:url(#radial-gradient-2);}.cls-8{fill:url(#radial-gradient-3);}.cls-9{fill:url(#radial-gradient-4);}.cls-10{fill:url(#radial-gradient-5);}.cls-11,.cls-12,.cls-13{mix-blend-mode:color-dodge;}.cls-11{fill:url(#radial-gradient-6);}.cls-12{fill:url(#radial-gradient-7);}.cls-13{fill:url(#radial-gradient-8);}</style><clipPath id="clip-path" transform="translate(204.25 370.86)"><rect class="cls-1" width="1077.88" height="437.12"/></clipPath><radialGradient id="radial-gradient" cx="710.91" cy="1710.54" r="504.46" gradientTransform="translate(-261.95 188.17) scale(1.43 0.37)" gradientUnits="userSpaceOnUse"><stop offset="0" stop-color="#020001"/><stop offset="0.98" stop-color="#020001" stop-opacity="0"/></radialGradient><radialGradient id="radial-gradient-2" cx="709.19" cy="447.21" r="451.93" gradientTransform="translate(-261.95 677.07) scale(1.43 0.58)" gradientUnits="userSpaceOnUse"><stop offset="0.19" stop-opacity="0"/><stop offset="0.67" stop-color="#010101" stop-opacity="0.48"/><stop offset="0.7" stop-color="#090809" stop-opacity="0.61"/><stop offset="0.77" stop-color="#181516" stop-opacity="0.83"/><stop offset="0.86" stop-color="#201d1e" stop-opacity="0.96"/><stop offset="1" stop-color="#231f20"/></radialGradient><radialGradient id="radial-gradient-3" cx="709.19" cy="447.21" r="451.93" gradientTransform="translate(-261.95 677.07) scale(1.43 0.58)" gradientUnits="userSpaceOnUse"><stop offset="0.58" stop-color="#020001" stop-opacity="0"/><stop offset="0.72" stop-color="#020001" stop-opacity="0.48"/><stop offset="1" stop-color="#020001"/></radialGradient><radialGradient id="radial-gradient-4" cx="717.14" cy="58.24" r="374.49" gradientTransform="translate(-466.2 7.26) scale(1.43 1.14)" gradientUnits="userSpaceOnUse"><stop offset="0.01" stop-color="#010101" stop-opacity="0"/><stop offset="0.33" stop-color="#0f0e0e" stop-opacity="0.43"/><stop offset="0.7" stop-color="#1a1718" stop-opacity="0.75"/><stop offset="0.73" stop-color="#1c191a" stop-opacity="0.82"/><stop offset="0.84" stop-color="#211e1f" stop-opacity="0.96"/><stop offset="1" stop-color="#231f20"/></radialGradient><radialGradient id="radial-gradient-5" cx="690.49" cy="17.83" r="526.6" gradientTransform="translate(-466.2 10.66) scale(1.43 0.67)" gradientUnits="userSpaceOnUse"><stop offset="0.58" stop-color="#020001" stop-opacity="0"/><stop offset="0.8" stop-color="#020001" stop-opacity="0.48"/><stop offset="1" stop-color="#020001"/></radialGradient><radialGradient id="radial-gradient-6" cx="6994.16" cy="-7385.99" r="275.47" gradientTransform="matrix(0.69, -0.61, 2.31, 0.18, 12790.65, 6114.75)" gradientUnits="userSpaceOnUse"><stop offset="0.02" stop-color="#737575"/><stop offset="0.05" stop-color="#696b6b"/><stop offset="0.16" stop-color="#494a4a"/><stop offset="0.28" stop-color="#2e2f2f"/><stop offset="0.41" stop-color="#1a1a1a"/><stop offset="0.56" stop-color="#0b0b0b"/><stop offset="0.73" stop-color="#030303"/><stop offset="1"/></radialGradient><radialGradient id="radial-gradient-7" cx="701.66" cy="-43.55" r="426.45" gradientTransform="translate(-261.95 370.86) scale(1.43 1.27)" xlink:href="#radial-gradient-6"/><radialGradient id="radial-gradient-8" cx="38334" cy="-15948.62" r="275.48" gradientTransform="matrix(0.49, -0.11, 1.64, 0.03, 7972.73, 5273.34)" xlink:href="#radial-gradient-6"/></defs><title>back</title><g class="cls-2"><g id="Layer_1" data-name="Layer 1"><g class="cls-3"><path class="cls-4" d="M1077.88,396.22V-55.1H0V404.79C138.37,363,335.36,337,554,337,757.19,337,941.74,359.5,1077.88,396.22Z" transform="translate(204.25 370.86)"/><ellipse class="cls-5" cx="758.2" cy="826.28" rx="758.2" ry="309.21"/><path class="cls-6" d="M0,404.79v84H1077.88V396.22C941.74,359.5,757.19,337,554,337,335.36,337,138.37,363,0,404.79Z" transform="translate(204.25 370.86)"/><ellipse class="cls-7" cx="758.2" cy="921.65" rx="758.2" ry="213.84"/><ellipse class="cls-8" cx="758.2" cy="921.65" rx="758.2" ry="213.84"/><path class="cls-9" d="M1077.88,396.22V-55.1H0V404.79C138.37,363,335.36,337,554,337,757.19,337,941.74,359.5,1077.88,396.22Z" transform="translate(204.25 370.86)"/><path class="cls-10" d="M1077.88,396.22V-55.1H0V404.79C138.37,363,335.36,337,554,337,757.19,337,941.74,359.5,1077.88,396.22Z" transform="translate(204.25 370.86)"/><path class="cls-11" d="M680.31,369.93c262.4,20.67,411.84,93.73,333.77,163.19S660,642.14,397.6,621.47-14.26,527.75,63.8,458.28,417.89,349.26,680.31,369.93Z" transform="translate(204.25 370.86)"/><ellipse class="cls-12" cx="743.19" cy="315.76" rx="537.13" ry="315.76"/><path class="cls-13" d="M639.13,389.68C825.1,393.49,931,407,875.68,419.8s-250.95,20.13-436.91,16.31S146.87,418.81,202.2,406,453.15,385.86,639.13,389.68Z" transform="translate(204.25 370.86)"/></g></g></g></svg>