<svg id="Capa_2" data-name="Capa 2" xmlns="http://www.w3.org/2000/svg" viewBox="0 0 778 778"><defs><style>.cls-1{fill:#fff;}.cls-2{fill:#0b5095;}.cls-3{fill:#1c2c8c;}.cls-4{fill:#7020b2;}.cls-5{fill:#e92556;}</style></defs><title>LogoCuaresma</title><circle class="cls-1" cx="389" cy="389" r="389"/><path class="cls-2" d="M1008.51,112c-210.42,0-381,170.58-381,381s170.58,381,381,381,381-170.58,381-381S1218.93,112,1008.51,112Zm-.5,744c-200.2,0-362.5-162.3-362.5-362.5S807.81,131,1008,131s362.5,162.3,362.5,362.5S1208.21,856,1008,856Z" transform="translate(-619.51 -104)"/><path class="cls-2" d="M1008.51,140c-195,0-353,158-353,353s158,353,353,353,353-158,353-353S1203.47,140,1008.51,140Zm0,672c-176.18,0-319-142.82-319-319s142.82-319,319-319,319,142.82,319,319S1184.69,812,1008.51,812Z" transform="translate(-619.51 -104)"/><path class="cls-3" d="M918.71,378a2.76,2.76,0,0,0-.9-.78C918.44,377.9,918.8,378.25,918.71,378Z" transform="translate(-619.51 -104)"/><path class="cls-3" d="M1058.63,586.4l-5.13-8.32,1.33,10,1.21,9.15.87-.4,2.12-1,2.12-.92,2.11-.91.09,0Zm1.07-251.29s-.09,0-.13,0l-1,.65-.38.26-.55,4.52,1.44-2.57v0c.1-.37.19-.75.28-1.12l.39-1.51C1059.8,335.27,1059.8,335.13,1059.7,335.11Zm-40.18-35.64v11.65l.94.06a62.75,62.75,0,0,1,10.22-10.95Zm-25.4,308.89-.2,3.51.18.1,1.09.62,1.06.6,1,.59,1,.57.62.36ZM956.43,347h-.12c-1.65,0-3.44.56-5.07.14a3.21,3.21,0,0,1-.57-.22l6.15,7.08h1.55Zm-5,234.43-5.6,7.46.85.34,1.89.76,1.87.77,1.23.51,1.77-9,1-4.8ZM911.15,369H900.66c6.29,2.73,14.51,6.43,17.15,8.2C916.5,375.72,913.9,372.49,911.15,369Zm-37.4,164.33-4-14.66-13.35-25-1.52-18.71,30.57-6.11-31-6.2,1.38-23,9.91-17.88,44.07,5.5-39.63-13.57L882.25,391l2.76-6.56L891.49,369H878.88L877.22,373l-5.36,12.8-12.74,24-14.74,26.59-1.83,30.46L845,497l13.86,26,7.29,26.78,3.62,8.86L874,569.05l.93.13,2.37.37,2.36.39,2.36.41,2.34.42,2.33.45.82.16-4.36-10.64-5.49-13.4,17.26-9ZM911.15,369H900.66c6.29,2.73,14.51,6.43,17.15,8.2C916.5,375.72,913.9,372.49,911.15,369Zm147.48,217.4-5.13-8.32,1.33,10,1.21,9.15.87-.4,2.12-1,2.12-.92,2.11-.91.09,0Zm1.07-251.29s-.09,0-.13,0l-1,.65-.38.26-.55,4.52,1.44-2.57v0c.1-.37.19-.75.28-1.12l.39-1.51C1059.8,335.27,1059.8,335.13,1059.7,335.11ZM994.12,608.36l-.2,3.51.18.1,1.09.62,1.06.6,1,.59,1,.57.62.36ZM956.43,347h-.12c-1.65,0-3.44.56-5.07.14a3.21,3.21,0,0,1-.57-.22l6.15,7.08h1.55Zm-5,234.43-5.6,7.46.85.34,1.89.76,1.87.77,1.23.51,1.77-9,1-4.8ZM911.15,369H900.66c6.29,2.73,14.51,6.43,17.15,8.2C916.5,375.72,913.9,372.49,911.15,369Zm-37.4,164.33-4-14.66-13.35-25-1.52-18.71,30.57-6.11-31-6.2,1.38-23,9.91-17.88,44.07,5.5-39.63-13.57L882.25,391l2.76-6.56L891.49,369H878.88L877.22,373l-5.36,12.8-12.74,24-14.74,26.59-1.83,30.46L845,497l13.86,26,7.29,26.78,3.62,8.86L874,569.05l.93.13,2.37.37,2.36.39,2.36.41,2.34.42,2.33.45.82.16-4.36-10.64-5.49-13.4,17.26-9Zm4.21,45.3.58,1.43,3.32,1.55c10.39,1,18.64,1.89,18.64,1.89A220.37,220.37,0,0,0,878,578.63Zm-4.21-45.3-4-14.66-13.35-25-1.52-18.71,30.57-6.11-31-6.2,1.38-23,9.91-17.88,44.07,5.5-39.63-13.57L882.25,391l2.76-6.56L891.49,369H878.88L877.22,373l-5.36,12.8-12.74,24-14.74,26.59-1.83,30.46L845,497l13.86,26,7.29,26.78,3.62,8.86L874,569.05l.93.13,2.37.37,2.36.39,2.36.41,2.34.42,2.33.45.82.16-4.36-10.64-5.49-13.4,17.26-9Zm77.63,48.1-5.6,7.46.85.34,1.89.76,1.87.77,1.23.51,1.77-9,1-4.8Zm42.74,26.93-.2,3.51.18.1,1.09.62,1.06.6,1,.59,1,.57.62.36Zm64.51-22-5.13-8.32,1.33,10,1.21,9.15.87-.4,2.12-1,2.12-.92,2.11-.91.09,0Zm82.45,28-6.77-14.33q-2.55.31-5.1.66c-3,.4-5.93.85-8.89,1.33s-5.73,1-8.58,1.51l-3.92.76-9.23,8.65-19,13.6-4.67,3.34-5.09-.37-26.34-1.9L1032.06,630l9.39-2.74,28.92-2.92,23.85-16.11,8.44-2.74c-2.38.5-4.74,1-7.1,1.61-2.54.6-5.07,1.24-7.59,1.9s-4.84,1.3-7.25,2-4.61,1.35-6.9,2.06-4.37,1.38-6.54,2.11-4.13,1.41-6.19,2.14-3.88,1.41-5.82,2.15-3.64,1.4-5.44,2.13-3.39,1.38-5.07,2.1-3.14,1.35-4.69,2-2.87,1.3-4.3,2-2.61,1.23-3.9,1.86l-3.5,1.75c-1,.53-2.07,1.07-3.09,1.61-2.42,1.29-4.83,2.59-7.17,4-1.9,1.15-3.86,3-6.11,3.32a7.84,7.84,0,0,1-5.16-1.36c-1.06-.63-2.06-1.36-3.12-2s-2.14-1-3.2-1.58c-2.36-1.21-4.71-2.45-7.1-3.62q-4.68-2.29-9.43-4.42l-26.61-7.08-10.32-5.75.22-1.13-.72-.23q-4.12-1.29-8.28-2.49c-2.57-.74-5.15-1.46-7.74-2.14q-3.56-.95-7.12-1.81c-2.13-.52-4.27-1-6.42-1.49l-.23,0,6.69,8-22.27-10.17-1.09-1.06-.23,0-1.77-.26a3.94,3.94,0,0,0-.6-.08h-2a4.14,4.14,0,0,0-2,.44,1.71,1.71,0,0,0-.7.63c-.16.29-.27.61-.43.9a3.59,3.59,0,0,1-.59.7c-1.37,1.22-3.92,2.24-5.51.83a4.29,4.29,0,0,1-.84-1.1,7.55,7.55,0,0,1-.85-2.2,2.76,2.76,0,0,0-.86-1.78,4.15,4.15,0,0,0-1.44-.48,13.5,13.5,0,0,0-1.57-.24l-1.45-.13,6.23,6.11-3.92,8.7-9.81,21.8,22.88-20.19,1.27-1.12,4.22,1.93,23.21,10.58,9.49,4.41,1.28,19.23,18.19-10.39,26.4,7.78,14.19,19.23V648.19l22-2.05,22.87-4.52.19.59L1050.53,682l6.51-40.73,21.49,1.55L1106.24,623l4-3.75,5.36-5,8.77,2.51,20.56,5.87Zm-33.36-19c7.64-2.05,19.26-3.27,31.21-4l2.89-3A254.74,254.74,0,0,0,1107.72,595.44Zm-88.2-296v11.65l.94.06a62.75,62.75,0,0,1,10.22-10.95Zm16.8-14.54-9.49-.47.44-34.24.1-8.21s-1.06,3.08-2.6,7.63c-1.47,4.32-3.38,10-5.26,15.56h0q0,15.72,0,31.46l13.84.7.6.27c.35-.26.7-.52,1.06-.77l.38-.27c.38-.27.77-.53,1.16-.78.91-.62,1.85-1.2,2.79-1.76l.91-.53.73-.41.91-.49c.48-.26,1-.51,1.45-.75s1.15-.56,1.73-.83c.27-.12.55-.24.85-.34l.45-.15.46-.13a7.62,7.62,0,0,1,.93-.18l.44-.05ZM1113.21,369l-10.43,17.29L1135.69,369Zm25.49-29.7,0,0-12.9-17.76-12.59-4.93,15.71-41.91L1098.84,311l-32.6-12.77-3.74-1.66-11-4.86,0,0a4.61,4.61,0,0,1,.09,2.73c-.22,1.19-.49,2.36-.81,3.52-.1.39-.22.77-.34,1.15s-.18.59-.28.88c-.28.86-.59,1.7-.94,2.53q-.19.5-.42,1c-.19.44-.39.88-.59,1.31l-.43.88c0,.09-.09.18-.14.26q-.23.45-.48.9c-.59,1.08-1.23,2.14-1.91,3.17q-.63,1-1.32,1.89l-.78,1,.21,0c.74-.67,1.47-1.34,2.2-2,.19-.16.37-.33.56-.52l1.64-1.57c.53-.52,1.06-1,1.58-1.57,1.15-1.15,2.29-2.33,3.41-3.52a17.46,17.46,0,0,1,1.65,7.89,19.28,19.28,0,0,1-.3,2.94l6.51,1-2.47,20.48h0l-.55,4.52,1.44-2.57v0l11-19.49.35-.62,1.25.61h0l20.51,10.05,20,19.34,6.1,4.52,29.72-.26Zm-18.7-.05-11.3-10.92,9.09,3.56,9,12.39ZM1191.24,519l-4.8-37.43,1.25-7.4,46.31-7.16-43.9-7.14,2.21-13.14-13-33.76-11.24-21.87,40.94-21.47-47.4,8.89-4.91-9.56h-19.32l4.75,8.16,6.46,11.1,9.81,19.05-27.17,17.58,31.66.54,2,14.07,2.87,27.42-.19,6.28-36.91,5.72,36.42,11.42-.12,4.06-3.73,26.93-15,23.07-6.74,17.18-.78,2-3.51-1.21-28.48-9.79c.28.33,5.82,6.79,11.49,13.36,2.43,2.8,4.88,5.63,7,8l.77-.17,1.71-.36,1.69-.36,1.67-.34,1.65-.33,1.63-.31,1.6-.31,1.59-.29,1.56-.29,1.53-.27,1.51-.26,1.49-.25,1.46-.24,1.44-.23,1.41-.22,1.38-.22,1.36-.2,1.33-.19,1.3-.19,1.28-.17.17,0,5.59-10.21,1.46-2.67,5.82,1.86,17.27,5.52,18.66,6-28.41-32.31Zm-11.89-71-1.14,6.75-1.4-13.36ZM1177,506.85l1.1,8.53-2.76,3.47Zm-53.65,76.44-2.56,2.09c7.92-1.37,18.15-2.8,27.9-4.06l2.54-2.64,1.15-2.1A263.6,263.6,0,0,0,1123.35,583.29ZM887.79,589.9c-5.53-.7-12.66-1.31-19.7-1.81l2.59,2.53,18.5.63Zm-10.38-10.11-.95-1.4c-6-1-11.76-1.73-16.78-2.3l2.51,3.68c5.47.48,11.34,1,16.8,1.56Zm79-232.79h-.12c-1.65,0-3.44.56-5.07.14a3.21,3.21,0,0,1-.57-.22l6.15,7.08h1.55Zm-1.87-6.76L950.34,325H918.15l-11.21,16.16L889.19,354H909l6.33-4.58,16.66-24,18.08,20.82c-.36-1.3,2.1-3.45,2.77-4.2S954,340.84,954.56,340.24ZM960,306.87v.24l7-1.56ZM938.2,312l.19,0h0Zm64.65-28.69-19.48,4.27-10.63-24.14-1.23,26.73-11.73,2.32-10.6,2.1-26.31-34.72,11.44,39.79-22.64,13.45-24,15.22L844,307.92l33.65,31.31-13,17.11-8.11,13.74-38.17-8.72,29,24.2-.55.94L833,418.63l-5.58,15.2L770.86,435l49.44,18.16-.37,1,10.28,36.25,1.57,6-30,14.54,33.93.53,3,11.38,5.22,21.29-40.32,25,31.11-3.53,16.64-1.89,2.15,3.15,2.31.15c.81.05,1.62.12,2.42.18l2.43.21,2.41.23,2.41.26,2.41.28,1.87.24-7.27-10.68-3.6-5.29-8-32.65-8.47-32.71-9.21-32.47,11.45-31.21,13.31-30.91,17-28.89L882.2,354l10.7-14.14L916.3,325H911l27-13,.11,0,4.57-2.72.13-.08h0l1.44-.86,15.32-3,.42-.08,14.07-2.78,28.93-6.34V283.27Zm-18.47,19L974,304.24v11.83l11.92-2.24,17.08-2V300.15ZM911.15,369H900.66c6.29,2.73,14.51,6.43,17.15,8.2C916.5,375.72,913.9,372.49,911.15,369Zm-37.4,164.33-4-14.66-13.35-25-1.52-18.71,30.57-6.11-31-6.2,1.38-23,9.91-17.88,44.07,5.5-39.63-13.57L882.25,391l2.76-6.56L891.49,369H878.88L877.22,373l-5.36,12.8-12.74,24-14.74,26.59-1.83,30.46L845,497l13.86,26,7.29,26.78,3.62,8.86L874,569.05l.93.13,2.37.37,2.36.39,2.36.41,2.34.42,2.33.45.82.16-4.36-10.64-5.49-13.4,17.26-9ZM911.15,369H900.66c6.29,2.73,14.51,6.43,17.15,8.2C916.5,375.72,913.9,372.49,911.15,369Zm40.23,212.43-5.6,7.46.85.34,1.89.76,1.87.77,1.23.51,1.77-9,1-4.8Zm5-234.43h-.12c-1.65,0-3.44.56-5.07.14a3.21,3.21,0,0,1-.57-.22l6.15,7.08h1.55Zm37.69,261.36-.2,3.51.18.1,1.09.62,1.06.6,1,.59,1,.57.62.36Zm25.4-308.89v11.65l.94.06a62.75,62.75,0,0,1,10.22-10.95Zm40.18,35.64s-.09,0-.13,0l-1,.65-.38.26-.55,4.52,1.44-2.57v0c.1-.37.19-.75.28-1.12l.39-1.51C1059.8,335.27,1059.8,335.13,1059.7,335.11Zm-1.07,251.29-5.13-8.32,1.33,10,1.21,9.15.87-.4,2.12-1,2.12-.92,2.11-.91.09,0ZM911.15,369H900.66c6.29,2.73,14.51,6.43,17.15,8.2C916.5,375.72,913.9,372.49,911.15,369Z" transform="translate(-619.51 -104)"/><g id="Cruz"><path class="cls-4" d="M1002,391V594l-42-23V404H903a139.09,139.09,0,0,1-18-19.58A126.68,126.68,0,0,1,877.22,373C875.73,370.46,875,369,875,369h98C979,390,1002,391,1002,391Z" transform="translate(-619.51 -104)"/><path class="cls-4" d="M1019,401s6,6,7,13c0,0,1,2,2,2,0,0,15-4,27-15,0,0-1-3-3-2,0,0-14-3-15-4,0,0,13,6,23-3l1-4s-16,3-21,0c0,0,16,1,22-12a2.19,2.19,0,0,0-3-1c-2,1-24,4-27-6h116s-7,12-30,35h-55V570l-43,24Z" transform="translate(-619.51 -104)"/><path class="cls-4" d="M1029.43,324.32a160.37,160.37,0,0,0,13.06-10.5A41.9,41.9,0,0,1,1029.43,324.32Z" transform="translate(-619.51 -104)"/><path class="cls-4" d="M1032.5,332.5,1049,324l-.39.38a36.87,36.87,0,0,1-2.56,2.74,15.9,15.9,0,0,1-3.1,2,38.5,38.5,0,0,1-5.12,1.94C1036.07,331.53,1034.31,332.08,1032.5,332.5Z" transform="translate(-619.51 -104)"/><path class="cls-4" d="M1049,324c.38-.36.77-.7,1.18-1a2.84,2.84,0,0,1-1.1,1Z" transform="translate(-619.51 -104)"/><path class="cls-4" d="M1148.47,352.49h-.21l-29.42.31-67.31.7c.14,0,.61-.82.71-.95.24-.33.48-.66.71-1,.47-.68.92-1.37,1.34-2.07a45.41,45.41,0,0,0,2.31-4.36,43.92,43.92,0,0,0,1.85-4.82c.24-.75.45-1.52.64-2.29v0c.1-.37.19-.75.28-1.12l.39-1.51c0-.09,0-.23-.07-.25s-.09,0-.13,0l-1,.65-.38.25h0c-.86.57-1.73,1.14-2.63,1.62a46.45,46.45,0,0,1-4.19,2.06,36.83,36.83,0,0,1-9.46,2.51,36,36,0,0,1-4.4.29,19.38,19.38,0,0,0,18.06-19.18,11.58,11.58,0,0,0-.26-3.27,5.58,5.58,0,0,0-1.83.75,18.64,18.64,0,0,0-1.85,1c-.5.33-1,.67-1.45,1.05l.34-.43a17.69,17.69,0,0,0,3.63-7.91,19.28,19.28,0,0,0,.3-2.94,17.46,17.46,0,0,0-1.65-7.89c-1.12,1.19-2.26,2.37-3.41,3.52-.52.53-1.05,1.05-1.58,1.57l-1.64,1.57c-.19.19-.37.36-.56.52-.73.69-1.46,1.36-2.2,2-.3.29-.6.57-.91.83l.7-.86.78-1q.69-.93,1.32-1.89c.68-1,1.32-2.09,1.91-3.17q.26-.45.48-.9c0-.08.09-.17.14-.26l.43-.88c.2-.43.4-.87.59-1.31s.29-.66.42-1c.35-.83.66-1.67.94-2.53.1-.29.19-.58.28-.88s.24-.76.34-1.15c.32-1.16.59-2.33.81-3.52a4.61,4.61,0,0,0-.09-2.73l0,0c-.59-1.24-1.9-1.6-3.33-1.48l-.44.05a7.62,7.62,0,0,0-.93.18l-.46.13-.45.15c-.3.1-.58.22-.85.34-.58.27-1.16.54-1.73.83s-1,.49-1.45.75l-.91.49-.73.41-.91.53c-.94.56-1.88,1.14-2.79,1.76-.39.25-.78.51-1.16.78l-.38.27c-.36.25-.71.51-1.06.77-1.12.82-2.21,1.68-3.27,2.59h0a62.75,62.75,0,0,0-10.22,10.95c-.32.43-.64.87-.94,1.31v-13c0-.94,0-1.87,0-2.8q0-15.74,0-31.46h0V248.51c1.76.36,3.51.73,5.26,1.13l2.5.58a238.22,238.22,0,0,1,35.21,11.31q0,17.5,0,35,0,11,0,22l7.55,0h1.61l36.41-.1c3.73,0,7.59,0,11,1.54a24.47,24.47,0,0,1,6.86,5.27,175.11,175.11,0,0,1,12.75,14.07l0,0Q1143.89,345.66,1148.47,352.49Z" transform="translate(-619.51 -104)"/><path class="cls-4" d="M1001.46,333.57c-1.6,3.49-5,7-8.79,7.92s-8-.75-10.92-3.15c-1.57-1.29-2.48-3.24-4.11-4.49a13.9,13.9,0,0,0-10.31-2.51,12.6,12.6,0,0,0-7.27,3.39c-1.91,1.77-3.73,3.62-5.5,5.51-.57.6-1.13,1.2-1.69,1.81s-3.13,2.9-2.77,4.2a.88.88,0,0,0,.2.38,1.32,1.32,0,0,0,.37.29,3.21,3.21,0,0,0,.57.22c1.63.42,3.42-.14,5.07-.14h.12l5.39,0c1.8,0,3.25-.15,4.73,1.07A6.63,6.63,0,0,1,969,354H882.2l-7.26,0c7.9-11.7,16.93-28.41,30.06-35l54-1c.23,0,.41-4.57.55-11.05,0-.54,0-1.09,0-1.66.08-3.9.15-8.35.2-12.85.16-14,.22-28.44.22-28.44s6-10,43-16v74.2C1003,326,1003.09,330,1001.46,333.57Z" transform="translate(-619.51 -104)"/></g><path class="cls-5" d="M878,578.63l.58,1.43,3.32,1.55c10.39,1,18.64,1.89,18.64,1.89A220.37,220.37,0,0,0,878,578.63Zm0,0,.58,1.43,3.32,1.55c10.39,1,18.64,1.89,18.64,1.89A220.37,220.37,0,0,0,878,578.63Zm232.56,8.86c2.48-.66,6-1.37,10.27-2.11l2.56-2.09C1115.59,585.56,1110.89,587.35,1110.52,587.49ZM983.58,627.06q-4.82-2.16-9.68-4.15-4.71-1.92-9.45-3.7-4.55-1.69-9.14-3.27c-2.67-.92-5.34-1.8-8-2.65l-.22,1.13,10.32,5.75L984,627.25Zm-66.81-22c-1.79-.4-3.6-.79-5.41-1.15-1.59-.33-3.19-.64-4.79-.94l-3.85-.68-2.62-.43,1.09,1.06,22.27,10.17Zm-29-15.18,1.39,1.35,7.32.25A53.84,53.84,0,0,0,887.79,589.9ZM878,578.63l-1.5-.24.95,1.4,1.58,1.54,2.87.28c10.39,1,18.64,1.89,18.64,1.89A220.37,220.37,0,0,0,878,578.63Zm232.56,8.86c2.48-.66,6-1.37,10.27-2.11l2.56-2.09C1115.59,585.56,1110.89,587.35,1110.52,587.49ZM983.58,627.06q-4.82-2.16-9.68-4.15-4.71-1.92-9.45-3.7-4.55-1.69-9.14-3.27c-2.67-.92-5.34-1.8-8-2.65l-.22,1.13,10.32,5.75L984,627.25Zm-66.81-22c-1.79-.4-3.6-.79-5.41-1.15-1.59-.33-3.19-.64-4.79-.94l-3.85-.68-2.62-.43,1.09,1.06,22.27,10.17Zm-29-15.18,1.39,1.35,7.32.25A53.84,53.84,0,0,0,887.79,589.9ZM878,578.63l-1.5-.24.95,1.4,1.58,1.54,2.87.28c10.39,1,18.64,1.89,18.64,1.89A220.37,220.37,0,0,0,878,578.63Zm232.56,8.86c2.48-.66,6-1.37,10.27-2.11l2.56-2.09C1115.59,585.56,1110.89,587.35,1110.52,587.49Zm-7,17.77-.82.18-8.44,2.74-23.85,16.11-28.92,2.92-9.39,2.74,11.42-2.27,26.34,1.9c3.06-1,6.31-2,9.76-3l19-13.6,9.23-8.65C1106.37,604.65,1104.92,605,1103.48,605.26Zm-119.9,21.8q-4.82-2.16-9.68-4.15-4.71-1.92-9.45-3.7-4.55-1.69-9.14-3.27c-2.67-.92-5.34-1.8-8-2.65l-.22,1.13,10.32,5.75L984,627.25Zm-66.81-22c-1.79-.4-3.6-.79-5.41-1.15-1.59-.33-3.19-.64-4.79-.94l-3.85-.68-2.62-.43,1.09,1.06,22.27,10.17Zm-29-15.18,1.39,1.35,7.32.25A53.84,53.84,0,0,0,887.79,589.9ZM878,578.63l-1.5-.24.95,1.4,1.58,1.54,2.87.28c10.39,1,18.64,1.89,18.64,1.89A220.37,220.37,0,0,0,878,578.63Zm232.56,8.86c2.48-.66,6-1.37,10.27-2.11l2.56-2.09C1115.59,585.56,1110.89,587.35,1110.52,587.49Zm-7.86,18-8.44,2.74-23.85,16.11-28.92,2.92-9.39,2.74,11.42-2.27,26.34,1.9c3.06-1,6.31-2,9.76-3l19-13.6,9.23-8.65c-1.45.29-2.9.59-4.34.9ZM973.9,622.91q-4.71-1.92-9.45-3.7-4.55-1.69-9.14-3.27c-2.67-.92-5.34-1.8-8-2.65l-.22,1.13,10.32,5.75L984,627.25l-.41-.19Q978.77,624.9,973.9,622.91Zm-62.54-19c-1.59-.33-3.19-.64-4.79-.94l-3.85-.68-2.62-.43,1.09,1.06,22.27,10.17-6.69-8C915,604.68,913.17,604.29,911.36,603.93Zm-22.18-12.68,7.32.25a53.84,53.84,0,0,0-8.71-1.6ZM878,578.63l-1.5-.24.95,1.4,1.58,1.54,2.87.28c10.39,1,18.64,1.89,18.64,1.89A220.37,220.37,0,0,0,878,578.63ZM1195.5,597.5s-7-17.19-8.66-34.3c-.22-2.25-.34-4.49-.34-6.7,0,0-6.3.13-16.93,1.18-2.24.23-4.67.49-7.28.81-6.06.73-13.07,1.72-20.79,3.09-1.4.24-2.83.5-4.29.77-5.38,1-11.06,2.19-17,3.57a342.22,342.22,0,0,0-61.59,20.48c-1.27.56-2.53,1.14-3.8,1.73a254.27,254.27,0,0,0-43.33,25.37s-22.79-16.12-58.11-31.21l-2-.86a331.15,331.15,0,0,0-68.19-20.69q-6.62-1.22-13.4-2.11-3.66-.48-7.38-.86a236.77,236.77,0,0,0-26.91-1.27s-.31,3.84-.87,9.14c-1.17,11.16-3.42,28.83-6.13,30.86h-14v15a454.51,454.51,0,0,1,67.11,2.38c4.26.46,8.63,1,13.07,1.61q2.73.38,5.49.81c29,4.42,60.47,12.54,86.33,27.2v6s0,2,3,2l3.43-.06c10.38-.21,39.57-.94,39.57-.94s3,1,3-2v-5s.83-.47,2.47-1.29a229.7,229.7,0,0,1,31.85-12.63c3.06-1,6.31-2,9.76-3,8.93-2.58,19.17-5.12,30.67-7.37q6.78-1.34,14.13-2.5,8-1.28,16.7-2.31a466.27,466.27,0,0,1,67.42-2.93v-14Zm-10,0s-6.63-.07-7.23-.07q-5.2,0-10.4.15t-10.11.43c-3.28.19-6.55.41-9.82.69s-6.35.57-9.52.92q-2.06.23-4.11.48-2.55.31-5.1.66c-3,.4-5.93.85-8.89,1.33s-5.73,1-8.58,1.51l-3.92.76c-1.45.29-2.9.59-4.34.9l-.82.18c-2.38.5-4.74,1-7.1,1.61-2.54.6-5.07,1.24-7.59,1.9s-4.84,1.3-7.25,2-4.61,1.35-6.9,2.06-4.37,1.38-6.54,2.11-4.13,1.41-6.19,2.14-3.88,1.41-5.82,2.15-3.64,1.4-5.44,2.13-3.39,1.38-5.07,2.1-3.14,1.35-4.69,2-2.87,1.3-4.3,2-2.61,1.23-3.9,1.86l-3.5,1.75c-1,.53-2.07,1.07-3.09,1.61-2.42,1.29-4.83,2.59-7.17,4-1.9,1.15-3.86,3-6.11,3.32a7.84,7.84,0,0,1-5.16-1.36c-1.06-.63-2.06-1.36-3.12-2s-2.14-1-3.2-1.58c-2.36-1.21-4.71-2.45-7.1-3.62q-4.68-2.29-9.43-4.42l-.41-.19q-4.82-2.16-9.68-4.15-4.71-1.92-9.45-3.7-4.55-1.69-9.14-3.27c-2.67-.92-5.34-1.8-8-2.65l-.72-.23q-4.12-1.29-8.28-2.49c-2.57-.74-5.15-1.46-7.74-2.14q-3.56-.95-7.12-1.81c-2.13-.52-4.27-1-6.42-1.49l-.23,0c-1.79-.4-3.6-.79-5.41-1.15-1.59-.33-3.19-.64-4.79-.94l-3.85-.68-2.62-.43-.23,0-1.77-.26a3.94,3.94,0,0,0-.6-.08h-2a4.14,4.14,0,0,0-2,.44,1.71,1.71,0,0,0-.7.63c-.16.29-.27.61-.43.9a3.59,3.59,0,0,1-.59.7c-1.37,1.22-3.92,2.24-5.51.83a4.29,4.29,0,0,1-.84-1.1,7.55,7.55,0,0,1-.85-2.2,2.76,2.76,0,0,0-.86-1.78,4.15,4.15,0,0,0-1.44-.48,13.5,13.5,0,0,0-1.57-.24l-1.45-.13-.93-.07c-1-.08-2.11-.14-3.16-.2-1.25-.07-2.5-.14-3.76-.19l-4.19-.19-4.46-.17-4.56-.16-4.5-.14-4.27-.13-3.86-.11-3.3-.09-2.56-.07-1.66,0h-.59v-8l33.18,1.12,18.5.63,7.32.25a53.84,53.84,0,0,0-8.71-1.6c-5.53-.7-12.66-1.31-19.7-1.81-14-1-27.59-1.59-27.59-1.59v-8c1.17-.39,10.63.29,21.69,1.27,5.47.48,11.34,1,16.8,1.56l2.87.28c10.39,1,18.64,1.89,18.64,1.89A220.37,220.37,0,0,0,878,578.63l-1.5-.24c-6-1-11.76-1.73-16.78-2.3-10.09-1.16-17.18-1.59-17.18-1.59v-8h1l2.45.06,2.45.08,2.44.1,2.44.14h.13l2.31.15c.81.05,1.62.12,2.42.18l2.43.21,2.41.23,2.41.26,2.41.28,1.87.24.52.06,2.39.33,1.45.21.93.13,2.37.37,2.36.39,2.36.41,2.34.42,2.33.45.82.16,1.51.3,2.31.49,2.3.49,2.29.52,2.28.53,2.27.55,2.25.56,2.25.58,2.23.59,2.21.61,2.2.62,2.19.63,2.17.64,2.16.66,2.14.66,2.13.68c.71.23,1.41.45,2.11.69l2.1.69,2.08.7,2.06.72,2,.72,2,.73,2,.73,2,.74,2,.75,1.95.75,1.93.76,1.07.42.85.34,1.89.76,1.87.77,1.23.51.62.26,1.83.77,1.81.77,1.78.78,1.77.77,1.74.78,1.71.77,1.7.77,1.67.77,1.64.77,1.63.77,1.59.76,1.57.76,1.55.76c.51.24,1,.49,1.52.75l1.49.74,1.47.74,1.44.73,1.41.73c.47.23.93.47,1.39.71l1.35.71,1.33.71,1.3.69,1.27.68,1.24.67,1.21.67c.4.21.79.43,1.18.65l1.15.64.94.52.18.1,1.09.62,1.06.6,1,.59,1,.57.62.36.34.2.93.54.89.53.86.51.82.49.79.48.76.46.72.44.68.42.65.4.61.38.57.36.54.34.5.31.46.3.43.27.39.25.34.23a3.28,3.28,0,0,1,.31.2l.27.17.23.15.19.13.3.2,0,0,.07,0,.45-.33.55-.38,2.07-1.41,2.07-1.39,2.09-1.37,2.09-1.34,2.1-1.32,2.1-1.29,2.1-1.27,2.12-1.25,2.11-1.23,2.12-1.2c.7-.4,1.41-.79,2.12-1.18l2.12-1.16,2.13-1.14,2.12-1.11,2.13-1.1,2.13-1.07,2.12-1,2.13-1,2.13-1,2.12-1,1.25-.57.87-.4,2.12-1,2.12-.92,2.11-.91.09,0,2-.85c.7-.3,1.4-.59,2.11-.87l2.1-.86,2.09-.83,2.09-.81,2.08-.8,2.08-.77,2.07-.76,2.06-.75,2-.72,2.05-.71,2-.69,2-.67,2-.65,2-.64,2-.63,2-.6,2-.6,2-.57,1.94-.56,1.93-.55,1.92-.53,1.9-.51,1.89-.5,1.87-.49,1.86-.47,1.84-.45,1.82-.45,1.8-.43,1.79-.42,1.77-.4,1.75-.39,1-.21.77-.17,1.71-.36,1.69-.36,1.67-.34,1.65-.33,1.63-.31,1.6-.31,1.59-.29,1.56-.29,1.53-.27,1.51-.26,1.49-.25,1.46-.24,1.44-.23,1.41-.22,1.38-.22,1.36-.2,1.33-.19,1.3-.19,1.28-.17.17,0,1.07-.15,1.22-.16,1.18-.15,1.16-.14,1.12-.13,1.09-.13,1.07-.12,1-.11,1-.11,1-.09.93-.1.9-.08.86-.08.82-.08.79-.07.76-.06.72-.06.68,0,.64-.05.6,0,.57,0,.53,0,.48,0,.45,0,.41,0,.37,0h.32l.29,0h.77s0,7,0,7a232.12,232.12,0,0,0-27.12,3.08,263.6,263.6,0,0,0-29,6.71c-7.76,2.27-12.46,4.06-12.83,4.2,2.48-.66,6-1.37,10.27-2.11,7.92-1.37,18.15-2.8,27.9-4.06,16.6-2.16,31.81-3.82,31.81-3.82,1,0,2,8,2,8a290.33,290.33,0,0,0-40.68,3,254.74,254.74,0,0,0-34.1,7c7.64-2.05,19.26-3.27,31.21-4,22.69-1.37,46.57-1,46.57-1ZM878,578.63l-1.5-.24.95,1.4,1.58,1.54,2.87.28c10.39,1,18.64,1.89,18.64,1.89A220.37,220.37,0,0,0,878,578.63Zm9.83,11.27,1.39,1.35,7.32.25A53.84,53.84,0,0,0,887.79,589.9Zm29,15.18c-1.79-.4-3.6-.79-5.41-1.15-1.59-.33-3.19-.64-4.79-.94l-3.85-.68-2.62-.43,1.09,1.06,22.27,10.17Zm66.81,22q-4.82-2.16-9.68-4.15-4.71-1.92-9.45-3.7-4.55-1.69-9.14-3.27c-2.67-.92-5.34-1.8-8-2.65l-.22,1.13,10.32,5.75L984,627.25Zm119.9-21.8-.82.18-8.44,2.74-23.85,16.11-28.92,2.92-9.39,2.74,11.42-2.27,26.34,1.9c3.06-1,6.31-2,9.76-3l19-13.6,9.23-8.65C1106.37,604.65,1104.92,605,1103.48,605.26Zm7-17.77c2.48-.66,6-1.37,10.27-2.11l2.56-2.09C1115.59,585.56,1110.89,587.35,1110.52,587.49ZM878,578.63l-1.5-.24.95,1.4,1.58,1.54,2.87.28c10.39,1,18.64,1.89,18.64,1.89A220.37,220.37,0,0,0,878,578.63Zm9.83,11.27,1.39,1.35,7.32.25A53.84,53.84,0,0,0,887.79,589.9Zm29,15.18c-1.79-.4-3.6-.79-5.41-1.15-1.59-.33-3.19-.64-4.79-.94l-3.85-.68-2.62-.43,1.09,1.06,22.27,10.17Zm66.81,22q-4.82-2.16-9.68-4.15-4.71-1.92-9.45-3.7-4.55-1.69-9.14-3.27c-2.67-.92-5.34-1.8-8-2.65l-.22,1.13,10.32,5.75L984,627.25Zm126.94-39.57c2.48-.66,6-1.37,10.27-2.11l2.56-2.09C1115.59,585.56,1110.89,587.35,1110.52,587.49ZM878,578.63l-1.5-.24.95,1.4,1.58,1.54,2.87.28c10.39,1,18.64,1.89,18.64,1.89A220.37,220.37,0,0,0,878,578.63Zm9.83,11.27,1.39,1.35,7.32.25A53.84,53.84,0,0,0,887.79,589.9Zm29,15.18c-1.79-.4-3.6-.79-5.41-1.15-1.59-.33-3.19-.64-4.79-.94l-3.85-.68-2.62-.43,1.09,1.06,22.27,10.17Zm66.81,22q-4.82-2.16-9.68-4.15-4.71-1.92-9.45-3.7-4.55-1.69-9.14-3.27c-2.67-.92-5.34-1.8-8-2.65l-.22,1.13,10.32,5.75L984,627.25Zm126.94-39.57c2.48-.66,6-1.37,10.27-2.11l2.56-2.09C1115.59,585.56,1110.89,587.35,1110.52,587.49ZM878,578.63l-1.5-.24.95,1.4,1.58,1.54,2.87.28c10.39,1,18.64,1.89,18.64,1.89A220.37,220.37,0,0,0,878,578.63Zm105.62,48.43q-4.82-2.16-9.68-4.15-4.71-1.92-9.45-3.7-4.55-1.69-9.14-3.27c-2.67-.92-5.34-1.8-8-2.65l-.22,1.13,10.32,5.75L984,627.25Zm126.94-39.57c2.48-.66,6-1.37,10.27-2.11l2.56-2.09C1115.59,585.56,1110.89,587.35,1110.52,587.49ZM878,578.63l.58,1.43,3.32,1.55c10.39,1,18.64,1.89,18.64,1.89A220.37,220.37,0,0,0,878,578.63Z" transform="translate(-619.51 -104)"/><g id="Cofradía"><path d="M820.48,692.22l-.82-.34c-.62-.56-.93-.85-1.54-1.42a7.71,7.71,0,0,0,.21-5.28,19.19,19.19,0,0,0-1-2.62,14.21,14.21,0,0,0-1.45-2.37,2.33,2.33,0,0,0-.17-.26c-.07-.08-.15-.16-.21-.24a2.73,2.73,0,0,1-.21-.3,2.29,2.29,0,0,0-.21-.23l-.07-.07-.06-.06-.05,0c-.34-.3-.69-.57-1-.83a9.6,9.6,0,0,0-1.06-.66,6.91,6.91,0,0,0-1.4-.6,3.36,3.36,0,0,0-1.19-.14,1.24,1.24,0,0,0-.48,0c-.15,0-.3.06-.41.1a2.48,2.48,0,0,0-.32.17,1.15,1.15,0,0,0-.29.2,1.73,1.73,0,0,0-.47,1.49,6.49,6.49,0,0,0,.79,2.34c.49.92,1.06,1.87,1.65,2.83s1.23,2,1.94,3c.22.33.44.67.68,1s.48.68.68,1,.41.69.64,1l.63,1a15.35,15.35,0,0,1,1.06,1.78,15.66,15.66,0,0,1,.71,1.55,18.05,18.05,0,0,1,.71,2.62,9.88,9.88,0,0,1,.16,2.39,6.89,6.89,0,0,1-.41,2.13,5.53,5.53,0,0,1-1,1.7,5.63,5.63,0,0,1-.91.84,6.1,6.1,0,0,1-1.11.65c-.19.1-.4.2-.62.29a6.2,6.2,0,0,1-.7.21l-.76.19c-.24.06-.51.11-.8.16a1.18,1.18,0,0,1-.21,0h-.19a.6.6,0,0,0-.24,0,.9.9,0,0,1-.24,0,3.62,3.62,0,0,1-.46,0h-.43a16,16,0,0,1-3.26-.42,13.61,13.61,0,0,1-3.1-1.14,24.65,24.65,0,0,1-2.82-1.74A22.12,22.12,0,0,1,798,700c-.65-.63-1-1-1.62-1.59-.46-.45-.9-.92-1.32-1.4s-.84-1-1.23-1.51c-.18-.24-.38-.49-.56-.76s-.38-.54-.54-.79-.35-.6-.54-.87a8.86,8.86,0,0,1-.49-.82l-.08-.09a0,0,0,0,1,0-.07l-.08-.08-.08-.08c-.06-.13-.08-.2-.14-.34a.35.35,0,0,1-.17-.15.88.88,0,0,0-.11-.13l-.12-.16a.83.83,0,0,0-.12-.16.53.53,0,0,0-.11-.09l-.12-.09-.14-.06-.12-.09a1.56,1.56,0,0,0-.58-.23,1.61,1.61,0,0,0-.58,0c-.63-.66-.94-1-1.57-1.67,2.43-4,3.65-5.94,6.14-9.85l.82.38c.59.65.89,1,1.49,1.62-.16.2-.32.41-.46.62a3.45,3.45,0,0,0-.35.66q-.13.36-.24.75c-.06.27-.13.53-.19.8a10.71,10.71,0,0,0-.3,3.07,17.79,17.79,0,0,0,.55,3.63,13.26,13.26,0,0,0,1.32,3.28,15.28,15.28,0,0,0,2.29,3.11,6.06,6.06,0,0,0,.71.6c.26.2.5.4.74.57a15.17,15.17,0,0,0,1.39.9c.49.3,1,.56,1.55.81a6.25,6.25,0,0,0,1.62.52,5.38,5.38,0,0,0,1.7,0,5.53,5.53,0,0,0,1.53-.52,4.57,4.57,0,0,0,1.27-.88,3.55,3.55,0,0,0,.76-1.22,4.69,4.69,0,0,0,.31-1.54,4.78,4.78,0,0,0-.26-1.78,8.7,8.7,0,0,0-1-2c-.18-.28-.35-.57-.53-.86l-.52-.86a2.24,2.24,0,0,0-.26-.43c-.11-.15-.18-.32-.25-.43l-.3-.44c-.08-.14-.2-.3-.29-.44a.93.93,0,0,0-.11-.19,1.86,1.86,0,0,1-.1-.2.75.75,0,0,1-.14-.17,2,2,0,0,1-.11-.2,4,4,0,0,0-.23-.34l-.19-.31q-1.34-2.19-2.4-4.27T801.66,679a7.3,7.3,0,0,1-.56-3.59,4.27,4.27,0,0,1,1.38-2.66l.32-.29a1.72,1.72,0,0,1,.35-.25l.42-.21a4,4,0,0,0,.46-.24,5.44,5.44,0,0,1,2.79-.43,9.17,9.17,0,0,1,3.1.94,21.57,21.57,0,0,1,3.16,1.88,23.47,23.47,0,0,1,2.88,2.46l1.49,1.42a3.55,3.55,0,0,0,.41.46c.14.14.29.33.44.5l.43.44.39.47c.26.31.54.62.8,1s.5.66.74,1a2.23,2.23,0,0,0,.19.24.13.13,0,0,0,0,.1l.08.07s0,0,0,.07l.07.07a.75.75,0,0,1,.12.14.45.45,0,0,0,.11.14.48.48,0,0,0,.07.15.44.44,0,0,0,.1.12l.24.15.22.11a1.48,1.48,0,0,0,.58.16,1.66,1.66,0,0,0,.61-.1l.06-.07,1.5,1.38C823,687.6,822.13,689.14,820.48,692.22Z" transform="translate(-619.51 -104)"/><path d="M836.63,712.79l.15-.11.07-.1.11-.14a4,4,0,0,0,.76-1.71,3.58,3.58,0,0,0-.16-1.77,6,6,0,0,0-.64-1.3,6.36,6.36,0,0,0-1-1.22l-.12-.06-.12-.07-.11-.06-.12-.06-.36-.21-.33-.17-.38-.19-.38-.19a17.49,17.49,0,0,0-2.28-.8,14.77,14.77,0,0,0-2.48-.42,11.27,11.27,0,0,0-2.46,0,10,10,0,0,0-2.29.56l-1.6-1.4c2.11-2,3.15-3,5.25-4.92l1.59,1.33a.62.62,0,0,0,0,.31l.06.25a.59.59,0,0,1,0,.13.84.84,0,0,1,0,.1.12.12,0,0,0,0,.07.84.84,0,0,1,.22.1.46.46,0,0,0,.18.06l1,.33c.37.13.74.28,1.14.45s.76.33,1.2.56l1.41.71a17.9,17.9,0,0,1,1.63.95c.56.37,1.15.79,1.77,1.27l1.66,1.21a18.34,18.34,0,0,1,2.45,2.35,11.91,11.91,0,0,1,1.67,2.58,5.4,5.4,0,0,1,.61,2.54A4.14,4.14,0,0,1,844,716l-6.81,9.62a5.64,5.64,0,0,0-.71,1.29,2.88,2.88,0,0,0-.18,1.19,3.9,3.9,0,0,0,.18,1,5.23,5.23,0,0,0,.4.9,3.74,3.74,0,0,0,.25.36,3.92,3.92,0,0,0,.27.33l.3.28a2.42,2.42,0,0,0,.28.22l-.34.5-1.8-1.25c-2.55-1.79-3.81-2.71-6.33-4.57l-.06-.1v-.1c0-.25,0-.5,0-.76a4.91,4.91,0,0,1,.09-.77.79.79,0,0,1,0-.17.37.37,0,0,1,.07-.14.27.27,0,0,1,0-.15,1.06,1.06,0,0,0,0-.19,6.85,6.85,0,0,1-1.18-.07,9.08,9.08,0,0,1-1.23-.28,13.74,13.74,0,0,1-2.45-.88,26.15,26.15,0,0,1-2.33-1.24c-.17-.09-.32-.19-.48-.29l-.45-.33-.24-.19a.53.53,0,0,0-.22-.12l-.24-.19-.19-.16c-.7-.55-1-.83-1.73-1.39a17.79,17.79,0,0,1-1.94-1.8,16.93,16.93,0,0,1-1.52-1.88,5.79,5.79,0,0,1-.84-1.89,3.89,3.89,0,0,1,0-1.69,3.21,3.21,0,0,1,.18-.77,6.06,6.06,0,0,1,.25-.67c.09-.19.24-.39.35-.58a3.3,3.3,0,0,1,.36-.51,4.77,4.77,0,0,1,3.11-1.59,11.24,11.24,0,0,1,4.67.61c1.84.56,3.85,1.3,6,2.2s4.46,2,7,3.2l0-.07Zm-1.53,2.13c-1.05-.43-2-.8-2.92-1.11a22.83,22.83,0,0,0-2.62-.75,18.38,18.38,0,0,0-2.95-.41,8.32,8.32,0,0,0-2.27.16,3.25,3.25,0,0,0-.6.19c-.18.07-.35.16-.52.24a2.93,2.93,0,0,0-.43.29,2,2,0,0,0-.33.31,2.47,2.47,0,0,0-.27.42,2.06,2.06,0,0,0-.15.46,2.44,2.44,0,0,0-.09.54q0,.27,0,.57a4,4,0,0,0,.26.91,6.56,6.56,0,0,0,.48.9,3.85,3.85,0,0,0,.33.42l.35.4.17.1.19.07.1,0,.1.05a7.59,7.59,0,0,0,2.44.74,9.63,9.63,0,0,0,2.77-.08A7,7,0,0,0,832,718.2a11.13,11.13,0,0,0,2.52-2.52l.19-.26.2-.26L835,715l.06-.08Z" transform="translate(-619.51 -104)"/><path d="M858.19,722.59l.72,0h.71a16.21,16.21,0,0,1,2.26.21c.71.12,1.43.28,2.13.47l.78.27c.26.09.52.21.76.3s.52.2.77.33.5.27.73.41c.7.39,1.05.59,1.76,1a10.17,10.17,0,0,1,1.83,1.45,6.47,6.47,0,0,1,1.27,1.75,4.08,4.08,0,0,1,.35,2.09,5.65,5.65,0,0,1-.76,2.31l-6.31,11.51a3.54,3.54,0,0,0-.47,1.34,1.79,1.79,0,0,0,.29,1.11,3.85,3.85,0,0,0,.78.92,5.83,5.83,0,0,0,1,.7l-.28.53-1.9-1c-4.35-2.37-6.5-3.6-10.76-6.15l.35-.59a3.6,3.6,0,0,0,1.23.63,1.86,1.86,0,0,0,1,0,2.76,2.76,0,0,0,.93-.58,4.31,4.31,0,0,0,.85-1.07l5.52-9.44a4.71,4.71,0,0,0,.61-1.56,2.77,2.77,0,0,0,0-1.35,2.52,2.52,0,0,0-.34-.77,4.83,4.83,0,0,0-.51-.68.37.37,0,0,0-.15,0,.4.4,0,0,1-.16,0l-.3-.08-.31-.09a8.76,8.76,0,0,0-2.07-.24,12.37,12.37,0,0,0-2.23.19,6.25,6.25,0,0,0-1.9.67,3.78,3.78,0,0,0-1.3,1.14l0,0,0,0-.1.15-.07.11-4.29,6.85a5.83,5.83,0,0,0-.76,1.61,2.12,2.12,0,0,0,0,1.19,3.07,3.07,0,0,0,.58.92,3.75,3.75,0,0,0,.92.78l-.31.51-1.85-1.15c-4.23-2.64-6.32-4-10.46-6.84.15-.23.23-.34.39-.57a3.84,3.84,0,0,0,1.24.75,3.32,3.32,0,0,0,1.15.2,2.16,2.16,0,0,0,1.12-.46,4.9,4.9,0,0,0,1.15-1.28l6.63-10a9.34,9.34,0,0,0,1.11-2.13,2.08,2.08,0,0,0,0-1.45,5.3,5.3,0,0,0-.58-1,4.1,4.1,0,0,0-.86-.79l.44-.64c2.54,1.41,3.82,2.09,6.38,3.42l1.71,1.1c0,.44,0,.83,0,1.18a5.48,5.48,0,0,1-.15,1,2.37,2.37,0,0,1-.11.46c-.06.15-.11.3-.16.44Z" transform="translate(-619.51 -104)"/><path d="M902,751.62l-3.35,8.43a2.9,2.9,0,0,0-.23,1.28,3,3,0,0,0,.37,1.23,4.14,4.14,0,0,0,.9,1.05,4.44,4.44,0,0,0,1.27.72l-.22.56-2-.77c-5-2-7.5-3-12.43-5.18l.28-.63,1.95.86.08.1a.2.2,0,0,0,.09.06l.14.06-1.94-.89a.94.94,0,0,0,.18.12.54.54,0,0,0,.21,0,4,4,0,0,0,1.07.23,4.36,4.36,0,0,0,1.07,0,1.81,1.81,0,0,0,1-.53,3.79,3.79,0,0,0,.79-1.23l8.31-19.38a3.1,3.1,0,0,0,.29-1.21,1.93,1.93,0,0,0-.28-1,6.26,6.26,0,0,0-.58-.87,3.57,3.57,0,0,0-.77-.66l-.18-.08-.17-.08-.09,0a0,0,0,0,1,0-.06l-.09,0-.09,0,.3-.67c.71.32,1.06.48,1.77.78,7,3,10.56,4.45,17.72,7a13.22,13.22,0,0,1,2.43,1.31,7,7,0,0,1,1.75,1.68,5.05,5.05,0,0,1,.91,1.91,3.69,3.69,0,0,1-.11,1.89,4,4,0,0,1-.47.95,5.64,5.64,0,0,1-.76.91c-.16.16-.32.31-.49.45s-.39.26-.57.38a6.92,6.92,0,0,1-.63.4l-.73.37a12.4,12.4,0,0,1-2.81.89,31.3,31.3,0,0,1-3.72.49,33.35,33.35,0,0,1-4.58,0,52.63,52.63,0,0,1-5.59-.65Zm1.72-2.61c.23,0,.46,0,.72,0l.34,0,.35,0a23.74,23.74,0,0,0,3-.1,27.92,27.92,0,0,0,3-.44,6.31,6.31,0,0,0,2.27-.94A3.25,3.25,0,0,0,914.6,746a2.93,2.93,0,0,0,.13-.51,3.08,3.08,0,0,0,0-.53c0-.19,0-.38,0-.59a3.67,3.67,0,0,0-.13-.66A2.33,2.33,0,0,0,914,743a7.55,7.55,0,0,0-1.08-.83c-.35-.24-.72-.48-1.09-.69a10.89,10.89,0,0,0-1.19-.58,7.13,7.13,0,0,0-1.29-.31,11.16,11.16,0,0,0-1.26-.12,2.57,2.57,0,0,0-1.36.25,1.73,1.73,0,0,0-.78.9c-1.17,2.92-1.75,4.39-2.91,7.32Z" transform="translate(-619.51 -104)"/><path d="M937.85,761.24l.1-.15,0-.12,0-.17a4,4,0,0,0,.06-1.87,3.49,3.49,0,0,0-.78-1.56,5.59,5.59,0,0,0-1-.94,6.32,6.32,0,0,0-1.34-.71l-.13,0a.23.23,0,0,1-.12,0h-.26l-.4,0-.35,0-.4,0-.41,0a15.4,15.4,0,0,0-2.32.18,13.58,13.58,0,0,0-2.36.59,10.92,10.92,0,0,0-2.2,1,9.72,9.72,0,0,0-1.84,1.42l-1.92-.64c1.17-2.63,1.75-3.94,2.9-6.58l1.89.58a.72.72,0,0,0,.12.29,1.73,1.73,0,0,1,.15.2l.07.11,0,.08a.1.1,0,0,0,.07,0h.23a.32.32,0,0,0,.18,0l1-.09c.37,0,.77,0,1.17,0s.81,0,1.28,0l1.51.09a18.12,18.12,0,0,1,1.8.23c.63.11,1.31.27,2,.46l1.91.46a16.16,16.16,0,0,1,3,1.19,10.38,10.38,0,0,1,2.42,1.71,5.09,5.09,0,0,1,1.47,2.08,4.31,4.31,0,0,1,.11,2.34L943,772.74a6.42,6.42,0,0,0-.17,1.46,3,3,0,0,0,.28,1.17,3.55,3.55,0,0,0,.53.86,4.43,4.43,0,0,0,.69.68,3,3,0,0,0,.35.23,2,2,0,0,0,.36.19l.38.15.33.09c-.05.24-.08.36-.13.59l-2.07-.45c-2.93-.64-4.39-1-7.31-1.7l-.09-.07,0-.1c-.09-.22-.18-.46-.26-.7a5.08,5.08,0,0,1-.2-.74c0-.06,0-.12,0-.16a.45.45,0,0,1,0-.16.2.2,0,0,1,0-.14,1.62,1.62,0,0,0,0-.19,6.77,6.77,0,0,1-1.07.4,8.3,8.3,0,0,1-1.21.22,12.37,12.37,0,0,1-2.5.17,24.23,24.23,0,0,1-2.53-.22,4.67,4.67,0,0,1-.52-.08,4.37,4.37,0,0,1-.52-.12l-.28-.08a.69.69,0,0,0-.24,0l-.29-.08-.23-.06-2-.59a16.9,16.9,0,0,1-2.37-.88,14.3,14.3,0,0,1-2-1.11,5.28,5.28,0,0,1-1.43-1.39,3.89,3.89,0,0,1-.65-1.51,3.66,3.66,0,0,1-.11-.78,6,6,0,0,1,0-.71c0-.21.07-.45.1-.67a3.88,3.88,0,0,1,.14-.61,4.88,4.88,0,0,1,2.2-2.69,10.8,10.8,0,0,1,4.37-1.31c1.84-.21,3.89-.33,6.13-.36s4.69,0,7.36.18l0-.08Zm-.6,2.56c-1.08,0-2.09.06-3,.13a22.56,22.56,0,0,0-2.61.35,16.9,16.9,0,0,0-2.78.79,8,8,0,0,0-2,1,2.63,2.63,0,0,0-.46.41,5,5,0,0,0-.37.43,2.71,2.71,0,0,0-.29.43,1.9,1.9,0,0,0-.18.42,2.81,2.81,0,0,0-.09.49,2.42,2.42,0,0,0,0,.47,2.4,2.4,0,0,0,.12.53,4.61,4.61,0,0,0,.23.52,3.69,3.69,0,0,0,.56.72,5.2,5.2,0,0,0,.75.63,3,3,0,0,0,.44.26l.46.22.18,0h.41a7,7,0,0,0,2.45-.29,9.5,9.5,0,0,0,2.44-1.16,7,7,0,0,0,2.1-2.21,11.29,11.29,0,0,0,1.35-3.3l.08-.31.08-.32,0-.14,0-.11Z" transform="translate(-619.51 -104)"/><path d="M962.3,759.13l1,.09,1,.13,1.94.27a21.47,21.47,0,0,1,5.81,1.73,12.58,12.58,0,0,1,4.11,3.11,15.08,15.08,0,0,1,2.49,3.91,10.35,10.35,0,0,1,.82,4.07l0,.26,0,.25v.11a.15.15,0,0,0,0,.11v.22a9,9,0,0,1-1.14,3.58,10.65,10.65,0,0,1-2.67,3,9.48,9.48,0,0,1-4.2,1.8,18.19,18.19,0,0,1-5.66,0l-2.09-.31c-6.4-1-9.59-1.53-16-2.84l.14-.67a2.87,2.87,0,0,0,1.4.13,2.73,2.73,0,0,0,1.14-.45,3.6,3.6,0,0,0,.85-.93,3.84,3.84,0,0,0,.49-1.31l3.93-20.06a7.61,7.61,0,0,0,.16-1.59,2,2,0,0,0-.2-1,2.31,2.31,0,0,0-.65-.57,8.56,8.56,0,0,0-1-.52l-.27-.1a.15.15,0,0,1-.11,0s0,0,0-.05a.25.25,0,0,1-.09,0,.18.18,0,0,0-.09,0l.15-.72c3.35.13,5,.16,8.36.19l1.88.32c-.53,3.14-.79,4.71-1.32,7.85Zm-.42,2.5c-1,5.61-1.42,8.41-2.36,14a2.31,2.31,0,0,0,.14,1.37,2.77,2.77,0,0,0,.88,1.06,5.71,5.71,0,0,0,1,.65,7.93,7.93,0,0,0,1.22.45,1,1,0,0,0,.29,0,.9.9,0,0,0,.24,0h.24l.29,0a9,9,0,0,0,2.54-.5,12.22,12.22,0,0,0,2.45-1.18,6.2,6.2,0,0,0,1.95-1.93,7.25,7.25,0,0,0,1-2.8,9.61,9.61,0,0,0-.2-3.63,10.12,10.12,0,0,0-1.53-3.33,8.07,8.07,0,0,0-2.79-2.41,17,17,0,0,0-4.34-1.57h-.15l-.22,0-.21,0a.84.84,0,0,1-.28,0l-.22,0Z" transform="translate(-619.51 -104)"/><path d="M992.62,754.85l1.9.11c-.55,10.41-.82,15.62-1.36,26a3.6,3.6,0,0,0,.13,1.34,1.54,1.54,0,0,0,.54.76,5.18,5.18,0,0,0,.87.47,5.47,5.47,0,0,0,1.09.31h.11l0,.65-2.1-.1c-4.65-.23-7-.39-11.62-.79,0-.28,0-.42.07-.69l2.09.18.05,0-2.1-.17.06,0a5.13,5.13,0,0,0,1.12-.12,4.2,4.2,0,0,0,.92-.36,1.59,1.59,0,0,0,.69-.65,3.42,3.42,0,0,0,.3-1.25c.7-8.82,1-13.23,1.74-22.05a2,2,0,0,0-.16-1,2.15,2.15,0,0,0-.62-.76,4,4,0,0,0-.92-.48,4.44,4.44,0,0,0-1-.28l-.09,0h-.05l.06-.68C987.66,755.16,989.32,755.07,992.62,754.85Z" transform="translate(-619.51 -104)"/><path d="M1000.55,769.17a10.38,10.38,0,0,1,3.28-3.39,18.64,18.64,0,0,1,4.35-2.13,16.66,16.66,0,0,1,4.69-.82l2-.08h.44a17.19,17.19,0,0,1,9.08,2.49,9.62,9.62,0,0,1,3.33,3.29,11,11,0,0,1,1.49,4.81v.26a10.88,10.88,0,0,1-.73,5.08,9,9,0,0,1-3.06,3.74,16.14,16.14,0,0,1-4.62,2.31,18.92,18.92,0,0,1-5.14.82l-2.11,0h-.32a19.3,19.3,0,0,1-5.22-.7,16.36,16.36,0,0,1-4.7-2.2A9.12,9.12,0,0,1,1000,779a11.12,11.12,0,0,1-.92-5.08v-.09A11,11,0,0,1,1000.55,769.17Zm19.63.76a6.65,6.65,0,0,0-1.93-2.41,11,11,0,0,0-2.2-1.33,8,8,0,0,0-2.31-.66,8.46,8.46,0,0,0-2.18.67,9.66,9.66,0,0,0-2,1.3,6,6,0,0,0-1.77,2.39,9,9,0,0,0-.6,3.33v.86a.61.61,0,0,0,0,.15.41.41,0,0,1,0,.16,14.11,14.11,0,0,0,1,4.09,7.51,7.51,0,0,0,1.9,2.75,9.94,9.94,0,0,0,2,1.32,5.08,5.08,0,0,0,2.13.61,6.86,6.86,0,0,0,2.47-.74,9.29,9.29,0,0,0,2.22-1.53,7.06,7.06,0,0,0,1.9-2.68,8.25,8.25,0,0,0,.5-3.36v-.34a.58.58,0,0,1-.06-.17v-.56a.27.27,0,0,1-.06-.17v-.26A10.56,10.56,0,0,0,1020.18,769.93Z" transform="translate(-619.51 -104)"/><path d="M1061,767.73c-.8,3.39-1.22,5.08-2.1,8.46a3.22,3.22,0,0,1,0,.37.94.94,0,0,0,0,.29.77.77,0,0,0,0,.26c0,.09,0,.17,0,.26a2.71,2.71,0,0,0,.38,1,2.53,2.53,0,0,0,.82.73,2.76,2.76,0,0,0,1.06.39,4.12,4.12,0,0,0,1.25-.05l.1.59-2.08.37c-4.43.76-6.65,1.11-11.1,1.71,0-.28-.06-.41-.09-.69a3.35,3.35,0,0,0,1.17-.18,4.27,4.27,0,0,0,.91-.5,2.32,2.32,0,0,0,.74-.89,5.66,5.66,0,0,0,.49-1.55c2.66-8.91,3.85-13.39,6-22.34a4.38,4.38,0,0,0,.14-.46,2.67,2.67,0,0,0,.07-.54,2.91,2.91,0,0,0,0-.51,3.11,3.11,0,0,0-.06-.44,1.58,1.58,0,0,0-.19-.54,2.07,2.07,0,0,0-.32-.38,1.09,1.09,0,0,0-.43-.25,1.46,1.46,0,0,0-.59,0l-.13-.72,1.89-.34c4.3-.8,6.45-1.24,10.73-2.22l.14.63a2.65,2.65,0,0,0-.58.38,1,1,0,0,0-.31.48,3.5,3.5,0,0,0-.08.64,3,3,0,0,0,.07.65l.08.33a3.21,3.21,0,0,0,.12.33,2.33,2.33,0,0,0,.11.28l.16.23c5.32,7.67,8.11,11.45,13.94,18.87a1.11,1.11,0,0,0,.2.26,1.86,1.86,0,0,1,.19.22.23.23,0,0,1,.11.11.26.26,0,0,0,.11.1.39.39,0,0,0,.17.11.61.61,0,0,1,.16.12,3.38,3.38,0,0,0,.51.38,4.87,4.87,0,0,0,.6.31,2.5,2.5,0,0,0,1.37,0c.07.24.1.35.16.59l-2,.53c-4.84,1.26-7.27,1.83-12.15,2.89-.06-.27-.09-.41-.14-.68a5.23,5.23,0,0,0,1.16-.73,2.93,2.93,0,0,0,.69-.86,3.51,3.51,0,0,0,.31-.93,2.47,2.47,0,0,0,0-.94,2.39,2.39,0,0,0-.21-.6c-.1-.19-.21-.38-.32-.56a5.93,5.93,0,0,0-.4-.62,4.33,4.33,0,0,0-.56-.58,10.41,10.41,0,0,0-2.48-1.66,21.13,21.13,0,0,0-6.47-2,17,17,0,0,0-3.2-.12Zm3-2.88a19.7,19.7,0,0,1,2.55,0,2.35,2.35,0,0,1,.52,0,5.07,5.07,0,0,0,.58.08,2.69,2.69,0,0,1,.54.1l.55.15c-2.28-3.35-3.4-5-5.59-8.43-.66,3.31-1,5-1.74,8.26C1062.24,765,1063.1,764.9,1064,764.85Z" transform="translate(-619.51 -104)"/><path d="M1099.87,776.84v0l0,.08a2.16,2.16,0,0,0,.45.81,3.54,3.54,0,0,0,.8.65,2.09,2.09,0,0,0,1,.31,3.93,3.93,0,0,0,1.34-.2c.08.26.13.39.21.65l-2.09.66c-4.76,1.49-7.15,2.18-12,3.47l-.18-.66,0,0,.11,0a7.2,7.2,0,0,0,1-.49,4.47,4.47,0,0,0,.93-.72,2,2,0,0,0,.51-1,2.72,2.72,0,0,0-.08-1.28c-2.39-8.48-3.58-12.73-6-21.21a10.41,10.41,0,0,0-.76-2,2.22,2.22,0,0,0-.82-1,2.77,2.77,0,0,0-1-.32,5.93,5.93,0,0,0-1.45,0l-.11,0c-.07-.28-.11-.42-.19-.71l1.9-.51c5.68-1.57,8.5-2.43,14.11-4.3a20.5,20.5,0,0,1,5.66-1,11.59,11.59,0,0,1,4.83.92,14.08,14.08,0,0,1,3.76,2.3,8.74,8.74,0,0,1,2.31,3.21l.06.16.07.16a8.84,8.84,0,0,1,.59,3.91,10.65,10.65,0,0,1-1.3,4.19,11,11,0,0,1-3.5,3.83,22.82,22.82,0,0,1-6,2.9l-2,.66c-.44.14-.9.29-1.4.43s-1,.26-1.52.37l-.29.06-.28.07c-.1,0-.21,0-.3,0l-.29.06C1098.85,773.53,1099.19,774.64,1099.87,776.84Zm-3.51-9.91a2,2,0,0,0,.71,1.07,2.8,2.8,0,0,0,1.26.49,6.8,6.8,0,0,0,1.28,0,12.56,12.56,0,0,0,1.32-.17l0,0,0,0c.2-.09.39-.19.57-.29s.4-.21.62-.32a10.34,10.34,0,0,0,2.14-1.57,12.8,12.8,0,0,0,1.8-2.07,6.16,6.16,0,0,0,1-2.47,7.14,7.14,0,0,0-.15-2.74l-.07-.2,0-.22-.06-.16-.07-.21a10.15,10.15,0,0,0-1.92-3.31,8.69,8.69,0,0,0-2.87-2.17,10.09,10.09,0,0,0-3.33-.92,8.33,8.33,0,0,0-3.23.38c-1.33.39-2,.59-3.34,1Z" transform="translate(-619.51 -104)"/><path d="M1116.09,748.5a10.29,10.29,0,0,1,1.69-4.43,18.64,18.64,0,0,1,3.19-3.73,17.11,17.11,0,0,1,4-2.67l1.79-.87.18-.08.23-.11a18.44,18.44,0,0,1,4.64-1.38,17.79,17.79,0,0,1,4.84-.08,9.87,9.87,0,0,1,4.44,1.64,10.87,10.87,0,0,1,3.33,3.79l0,0,0,0,0,.07,0,.08a10.67,10.67,0,0,1,1.35,5,9,9,0,0,1-1.35,4.69,16.73,16.73,0,0,1-3.39,4,19.75,19.75,0,0,1-4.47,2.87l-2,.9-.15.07-.15.06a19.83,19.83,0,0,1-5.15,1.5,16.61,16.61,0,0,1-5.26-.1,9.12,9.12,0,0,1-4.5-2.09,11.06,11.06,0,0,1-2.9-4.29l0-.08A11,11,0,0,1,1116.09,748.5Zm18.59-7.33a6.58,6.58,0,0,0-2.77-1.41,11.26,11.26,0,0,0-2.59-.32,8.52,8.52,0,0,0-2.42.34,8.79,8.79,0,0,0-1.76,1.52,9.69,9.69,0,0,0-1.39,2,6,6,0,0,0-.69,2.91,9,9,0,0,0,.79,3.29l.13.3.11.25.05.12,0,.12a.43.43,0,0,0,.09.13.32.32,0,0,1,.08.13,13.46,13.46,0,0,0,2.56,3.34,7.47,7.47,0,0,0,2.87,1.75,9.89,9.89,0,0,0,2.41.38,5.17,5.17,0,0,0,2.23-.3,7.26,7.26,0,0,0,2-1.7,9.54,9.54,0,0,0,1.45-2.31,7.09,7.09,0,0,0,.7-3.23,8.21,8.21,0,0,0-.88-3.29l-.08-.15-.08-.15a.41.41,0,0,1-.12-.14l-.08-.15-.07-.15-.1-.2a.37.37,0,0,1-.12-.13L1137,744l0-.08A10.39,10.39,0,0,0,1134.68,741.17Zm-13.22-10.54c.06-.12.11-.24.16-.36a2.72,2.72,0,0,1,.2-.37,3,3,0,0,0,.18-.3,2,2,0,0,1,.2-.26c.07-.07.14-.17.21-.24l.23-.19a.8.8,0,0,1,.19-.16,1.28,1.28,0,0,1,.25-.15l1.73-.85a2.55,2.55,0,0,1,.87-.18,2.33,2.33,0,0,1,.88.15,3.73,3.73,0,0,1,.82.42,3.3,3.3,0,0,1,.64.6l.09.19.14.17a1.58,1.58,0,0,1,.17.52,2,2,0,0,1,0,.48,1.57,1.57,0,0,1-.14.5,1.19,1.19,0,0,1-.28.42c-2.19,2.22-3.31,3.32-5.58,5.49l-1.8.8-1.09-.65C1120.36,734.24,1120.74,733,1121.46,730.63Z" transform="translate(-619.51 -104)"/><path d="M1164.73,724.25l-.51.74-1.75,1.12,0-.07-.07-.11a3.36,3.36,0,0,0-1.37-1.25,4.17,4.17,0,0,0-2-.34,13.25,13.25,0,0,0-2.34.29,16.53,16.53,0,0,0-2.28.67,4.84,4.84,0,0,0-.66.28l-.64.31-.14.07a.25.25,0,0,1-.09,0,.17.17,0,0,0-.1,0l-.34.28-.34.27a7.05,7.05,0,0,0-.56.5,4.42,4.42,0,0,0-.38.5,2.06,2.06,0,0,0-.17.42,1.35,1.35,0,0,0,0,.45,1.31,1.31,0,0,0,0,.39,1.14,1.14,0,0,0,.16.38l.05.09,0,.1a.3.3,0,0,0,.09.1s.06,0,.09.09a.47.47,0,0,0,.16.18l.19.12a1.9,1.9,0,0,0,.8.36,6.65,6.65,0,0,0,1.09.13,7.11,7.11,0,0,0,1.35-.14,14.52,14.52,0,0,0,1.66-.45q2.77-1,5-1.58a26.85,26.85,0,0,1,4.09-.74,7.33,7.33,0,0,1,3.08.26,3.9,3.9,0,0,1,2,1.56,4.29,4.29,0,0,1,.42.83,8.84,8.84,0,0,1,.33,1,8.08,8.08,0,0,1,.17,1.13,9.24,9.24,0,0,1,0,1.29,6,6,0,0,1-.51,2.25,8.09,8.09,0,0,1-1.45,2.23,21.12,21.12,0,0,1-2.22,2.05,21.69,21.69,0,0,1-2.69,1.9l-1.87,1.12-.3.18-.31.18a2.56,2.56,0,0,0-.37.17l-.3.18c-.24.1-.46.21-.67.31s-.41.24-.59.33l-.54.21a4,4,0,0,0-.51.25c-.16.07-.35.13-.52.19l-.51.2c-.32.13-.66.29-1,.42s-.68.23-1,.32a5.89,5.89,0,0,0-.59.16c-.21.06-.41.14-.62.22l-.07,0H1155l-.07,0-.07,0-.05,0c-.11.1-.22.21-.34.34s-.22.25-.31.37l-1.92,1-4.38-7.32.53-.68,1.84-1a7.07,7.07,0,0,0,2.22,2.29,6,6,0,0,0,2.92.85,13.83,13.83,0,0,0,3.22-.25,12.59,12.59,0,0,0,3.09-1.07l.07,0,.07,0a.13.13,0,0,0,.09,0l.07,0a2.17,2.17,0,0,0,.29-.2l.29-.19.27-.24a1.51,1.51,0,0,0,.26-.24,6.67,6.67,0,0,0,.86-.82c.27-.29.54-.58.77-.87a4.11,4.11,0,0,0,.54-.91,2.65,2.65,0,0,0,.22-.82,2.21,2.21,0,0,0,0-.78,2.28,2.28,0,0,0-.3-.68l0-.08-.05-.07s0,0-.07,0l0-.07,0-.07,0-.08a.1.1,0,0,1-.09,0l0-.07a2.9,2.9,0,0,0-.87-.5,6.26,6.26,0,0,0-1.12-.3,6,6,0,0,0-1.41,0,6.49,6.49,0,0,0-1.58.39,44.88,44.88,0,0,1-4.93,1.63,32.62,32.62,0,0,1-4.23.85,5.88,5.88,0,0,1-3.3-.44,5,5,0,0,1-2.23-2.21,3.8,3.8,0,0,1-.44-2.09,7.25,7.25,0,0,1,.69-2.52,8.63,8.63,0,0,1,1.91-2.63,16.34,16.34,0,0,1,3.14-2.34l1.71-1.06c.25-.11.49-.23.73-.36s.49-.26.76-.39.51-.23.78-.37.56-.25.84-.36l.55-.26a2.83,2.83,0,0,1,.57-.23l.29-.11a1.71,1.71,0,0,0,.27-.14,1,1,0,0,0,.25-.08l.27-.14c.26-.09.52-.2.79-.32s.51-.21.74-.29l0,0c0-.06.07-.1.06-.14a.52.52,0,0,1,0-.11l0-.1a.07.07,0,0,0,0-.06l0-.08,1.71-1.09Z" transform="translate(-619.51 -104)"/><path d="M1176,709a.14.14,0,0,0,.11,0,.23.23,0,0,0,0-.1l.13-.09c.18-.21.39-.45.61-.73a6.14,6.14,0,0,0,.63-1l1.6-1.27c.17,1.56.24,2.35.39,3.92l-1.66,1.25-.35,0-.28.05-.33.08-.3.12a5,5,0,0,0-.54.31l-.51.35-1,.67c2.85,3.93,4.27,5.9,7.11,9.83a6.86,6.86,0,0,0,1.52,1.59,2.78,2.78,0,0,0,1.52.57,4.39,4.39,0,0,0,1-.07,3.55,3.55,0,0,0,.89-.27,6.25,6.25,0,0,0,.62-.76c.19-.27.37-.54.53-.8a7.69,7.69,0,0,0,.46-1.13,2.62,2.62,0,0,0,.12-.92l1.7-1.36.81-.3c.24,1.71.36,2.57.58,4.28-.41.49-.82,1-1.22,1.36s-.8.79-1.18,1.15l-1.1,1c-.36.32-.71.59-1,.83l-1.79,1.3a11,11,0,0,1-3.27,1.71,4.19,4.19,0,0,1-2.62,0,6.76,6.76,0,0,1-2.14-1.3,12,12,0,0,1-1.89-2.2l-6.91-10.13-2.68,1.81-.38-.58a4.21,4.21,0,0,0,1.23-1.47,4.15,4.15,0,0,0,.39-1.7,7,7,0,0,0-.2-1.72,5.4,5.4,0,0,0-.62-1.53l-.17-.25-.07-.1-.08-.11,0-.07-.05-.07-.08-.11,0-.07,0-.07a.1.1,0,0,1-.09,0l0-.07-.1-.14-.1-.15a.15.15,0,0,1-.11-.07l-.1-.15a2.61,2.61,0,0,1-.24-.22l-.25-.22c1.07-1.76,1.6-2.65,2.63-4.42l1.61-1.16,4.76,6.59C1174.44,710.19,1175,709.81,1176,709Z" transform="translate(-619.51 -104)"/><path d="M1185.67,708.11a10.74,10.74,0,0,1,.47-4.82,20.45,20.45,0,0,1,2.15-4.58,18.76,18.76,0,0,1,3.27-3.82l1.53-1.4.16-.13.19-.18a20.07,20.07,0,0,1,4.22-2.77,19,19,0,0,1,4.76-1.58,10.07,10.07,0,0,1,4.83.21,10.41,10.41,0,0,1,4.3,2.66l0,0,0,0,.06.06.06.06a10.28,10.28,0,0,1,2.66,4.41,9.13,9.13,0,0,1-.09,5,17.66,17.66,0,0,1-2.27,5,20.78,20.78,0,0,1-3.65,4.17l-1.69,1.48-.12.11-.13.11a21.66,21.66,0,0,1-4.68,3,17.42,17.42,0,0,1-5.22,1.49,9.12,9.12,0,0,1-5-.66,10.68,10.68,0,0,1-4-3.28l0-.07A10.57,10.57,0,0,1,1185.67,708.11Zm16.39-12.8a6.72,6.72,0,0,0-3.12-.51,11.75,11.75,0,0,0-2.64.48,8.65,8.65,0,0,0-2.3,1.08,9.78,9.78,0,0,0-1.34,2,10.52,10.52,0,0,0-.82,2.39,6,6,0,0,0,.1,3,8.51,8.51,0,0,0,1.66,3l.2.24.18.22.08.1.09.1a.35.35,0,0,0,.11.1.35.35,0,0,1,.12.1,13.35,13.35,0,0,0,3.42,2.47,7.5,7.5,0,0,0,3.3.82,10.91,10.91,0,0,0,2.48-.36,5.55,5.55,0,0,0,2.12-1,7.5,7.5,0,0,0,1.53-2.26,9.89,9.89,0,0,0,.82-2.7,7.12,7.12,0,0,0-.18-3.36,7.85,7.85,0,0,0-1.74-2.92l-.12-.13-.12-.12a.38.38,0,0,1-.15-.09l-.12-.13-.12-.13-.14-.16a.24.24,0,0,1-.16-.09l-.11-.12-.06-.07A10.42,10.42,0,0,0,1202.06,695.31Z" transform="translate(-619.51 -104)"/><path d="M1206.69,670c.57-.6.85-.9,1.41-1.51l19.1,17.75a3.35,3.35,0,0,0,1.13.74,1.42,1.42,0,0,0,1,0,5.81,5.81,0,0,0,1-.42,6,6,0,0,0,1-.71l.08-.09.47.44c-.61.68-.92,1-1.54,1.69-3.44,3.71-5.18,5.53-8.73,9.07-.19-.2-.29-.3-.49-.49.65-.64,1-1,1.6-1.61h.07l-1.59,1.61v-.07a4.91,4.91,0,0,0,.69-1,4.73,4.73,0,0,0,.37-1,1.57,1.57,0,0,0,0-1,3.13,3.13,0,0,0-.74-1l-15.77-15.51a1.75,1.75,0,0,0-.87-.49,2.2,2.2,0,0,0-1,0,4.58,4.58,0,0,0-1,.45,5.42,5.42,0,0,0-.91.62l-.1,0,0,0-.48-.49C1203.46,674.25,1204.55,672.83,1206.69,670Z" transform="translate(-619.51 -104)"/><path d="M799.46,332.66a2.85,2.85,0,0,0-.23.26l-.06.1a.17.17,0,0,0-.11.06,1.06,1.06,0,0,0-.12.2l-.12.2a2.32,2.32,0,0,0-.14.23,2.11,2.11,0,0,1-.14.22l-.46.63-.5.68-.28.38a4.1,4.1,0,0,0-.23.4c-.07.12-.19.25-.28.38l-.27.38c-.54.75-.82,1.13-1.36,1.9-.42.6-.88,1.22-1.36,1.86s-1,1.29-1.49,1.93-1,1.32-1.55,2-1.14,1.29-1.75,1.92-1.19,1.19-1.83,1.75-1.3,1.09-2,1.6a21.94,21.94,0,0,1-2.12,1.44,24.85,24.85,0,0,1-2.28,1.23,21.53,21.53,0,0,1-3.4,1.3,17.22,17.22,0,0,1-3.41.65,14.94,14.94,0,0,1-3.29-.06,11.38,11.38,0,0,1-2.93-.76.54.54,0,0,0-.19-.07.67.67,0,0,1-.23-.1.36.36,0,0,1-.21,0l-.18-.1-.17-.1-.22-.13-.17-.1-.18-.1a15.39,15.39,0,0,1-1.34-.87,8.51,8.51,0,0,1-1.17-1.08,9.27,9.27,0,0,1-1-1.3c-.29-.47-.56-.95-.83-1.46a15.57,15.57,0,0,1-1.15-3.64,16.33,16.33,0,0,1-.23-3.91,17.26,17.26,0,0,1,.91-4.41,34.28,34.28,0,0,1,2.26-5.14c.14-.28.29-.55.45-.82s.32-.52.49-.78.18-.28.27-.41.14-.28.2-.38a3.74,3.74,0,0,1,.27-.42l.24-.35c.56-.89.85-1.33,1.43-2.21.32-.41.62-.82.92-1.23s.59-.8.89-1.17.59-.75.86-1.12.55-.71.82-1.05.51-.6.77-.89.51-.57.74-.83l.13-.19.1-.13.15-.21a1.54,1.54,0,0,0,.15-.29,1.64,1.64,0,0,0,.14-.22,1.71,1.71,0,0,1,.13-.23,4.06,4.06,0,0,0,.34-.88c.07-.27.13-.55.19-.83.6-.84.9-1.27,1.51-2.11,3.43,1.07,5.13,1.62,8.53,2.75l-.33,1c-.6.8-.91,1.2-1.51,2a7,7,0,0,0-3.13,0,11.6,11.6,0,0,0-3.41,1.46,18,18,0,0,0-2.93,2.17,16.53,16.53,0,0,0-2.55,2.81,16.86,16.86,0,0,0-1.94,4.34,17.77,17.77,0,0,0-.75,4.72,9,9,0,0,0,1.15,4.71,10.41,10.41,0,0,0,3.72,3.68l.08,0,.07.05.12.07.08,0a11.59,11.59,0,0,0,5.38,1.56,13.91,13.91,0,0,0,5.72-1.11,24.93,24.93,0,0,0,5.32-3,23.63,23.63,0,0,0,4.35-4.14l0,0a22.38,22.38,0,0,0,1.52-2.91,15.94,15.94,0,0,0,.94-3.11,13.34,13.34,0,0,0,.21-3.73,13.49,13.49,0,0,0-.88-3.73c.57-.77.85-1.15,1.43-1.91l.84-.56c1.6,3.69,2.42,5.52,4.12,9.14l-1.4,1.85A1.21,1.21,0,0,0,799.46,332.66Z" transform="translate(-619.51 -104)"/><path d="M793.1,314a11,11,0,0,1-.27-5.37,21.54,21.54,0,0,1,5.11-10.6c.65-.75,1-1.12,1.63-1.85l.17-.18.21-.23a22.46,22.46,0,0,1,4.61-3.73,19.75,19.75,0,0,1,5.26-2.22,9.88,9.88,0,0,1,5.23,0,10.13,10.13,0,0,1,4.53,2.77l0,0,0,0,.06.06.06.07a11,11,0,0,1,2.76,4.63,10.27,10.27,0,0,1,0,5.17,20.28,20.28,0,0,1-2,5.16,24.15,24.15,0,0,1-3.29,4.49l-1.53,1.66-.11.13-.11.13a25.12,25.12,0,0,1-4.3,3.69,20.58,20.58,0,0,1-5.05,2.46,10.48,10.48,0,0,1-5.3.45,11,11,0,0,1-4.88-2.38l-.07-.05A10.18,10.18,0,0,1,793.1,314Zm16.35-17.11a6.71,6.71,0,0,0-3.39-.19,12.46,12.46,0,0,0-2.87.9,10.64,10.64,0,0,0-2.46,1.58,11,11,0,0,0-2,5.26,6,6,0,0,0,.46,3.27,8.3,8.3,0,0,0,2.17,2.82l.26.22.22.19.1.09.1.09a.5.5,0,0,0,.14.08.29.29,0,0,1,.14.08,14,14,0,0,0,4,1.95,8.38,8.38,0,0,0,3.55.32,11.84,11.84,0,0,0,2.51-.72,5.8,5.8,0,0,0,2-1.26,8.16,8.16,0,0,0,1.32-2.48,11.15,11.15,0,0,0,.59-2.87,7.92,7.92,0,0,0-.42-3.49,8.27,8.27,0,0,0-2-3l-.13-.13-.13-.12a.46.46,0,0,1-.17-.09l-.13-.12-.12-.13-.16-.16a.3.3,0,0,1-.17-.08l-.13-.13-.07-.06A10,10,0,0,0,809.45,296.86Z" transform="translate(-619.51 -104)"/><path d="M824.31,273.89l.43-.37.18-.15.23-.19.18-.16.19-.15.06-.06.1,0,.37-.4c.11-.12.23-.24.32-.36a4,4,0,0,0,.39-.62,2.89,2.89,0,0,0,.25-.68v-.28a3.31,3.31,0,0,1,0-.33l1.85-1.52c.29,1.58.44,2.36.75,3.93-.74.6-1.1.91-1.83,1.52l-.39.18a3.19,3.19,0,0,0-.52.29l-.3.25a2.64,2.64,0,0,1-.32.22,2.48,2.48,0,0,0-.36.31l-.41.34-.35.24c4,4.63,5.93,6.95,9.88,11.58a6.2,6.2,0,0,0,1.42,1.28,2.57,2.57,0,0,0,1.41.4,3.62,3.62,0,0,0,1.3-.25,4.18,4.18,0,0,0,1.11-.66l.4.48L839,290.13c-3.84,3.27-5.73,4.95-9.43,8.43l-.49-.53,1.63-1.52h.07L829.15,298l.08-.08A2.84,2.84,0,0,0,830,297a5.79,5.79,0,0,0,.47-1.15,2.27,2.27,0,0,0-.13-1.31,4.84,4.84,0,0,0-1-1.47L818.8,281.46c-1.25,1.14-1.87,1.72-3.11,2.89l-.5-.53a4.93,4.93,0,0,0,1.26-1.42,3.92,3.92,0,0,0,.51-1.63,3.8,3.8,0,0,0-.3-1.81,7.06,7.06,0,0,0-1.29-1.93,5.38,5.38,0,0,1-1.45-2.94,5.83,5.83,0,0,1,.58-3.3,20.56,20.56,0,0,1,2-3.37,21.34,21.34,0,0,1,2.72-3l1.88-1.62a.94.94,0,0,0,.22-.12l.19-.16.19-.16.19-.15c.42-.34.83-.66,1.25-1s.86-.57,1.26-.84.81-.54,1.21-.76.79-.43,1.17-.61c.67,2.13,1,3.2,1.71,5.32-.76.6-1.14.9-1.89,1.52l-.91.33a.17.17,0,0,1,0-.15l-.09-.1,0-.07a.1.1,0,0,1,0-.11l-.06-.07-.06-.07a2,2,0,0,0-.89-.67,2.28,2.28,0,0,0-1.17,0c-.27.07-.52.14-.77.23a4.81,4.81,0,0,0-.81.38,6.23,6.23,0,0,0-.81,1.23,7.27,7.27,0,0,0-.5,1.4,3.18,3.18,0,0,0,0,1.68,4,4,0,0,0,.84,1.5l2.48,2.91A2,2,0,0,0,824.31,273.89Z" transform="translate(-619.51 -104)"/><path d="M842.52,262c.17-.5.38-1,.63-1.6a14.39,14.39,0,0,1,1-1.83,10.05,10.05,0,0,1,1.6-1.89,17.65,17.65,0,0,1,2.43-1.94l1.93-1.36.2-.13.29-.2.22-.09.25-.16c.69,2.07,1,3.1,1.75,5.16l-1.92,1.3c-.28,0-.57,0-.88.05a6.73,6.73,0,0,0-1,.16,3.06,3.06,0,0,0-.48.17l-.51.24A6.07,6.07,0,0,0,847,261.4a7.89,7.89,0,0,0-.62,1.94,4.76,4.76,0,0,0,.16,2.41,9.37,9.37,0,0,0,1.4,2.62l5.14,7.13a2.58,2.58,0,0,0,.73.72,1.38,1.38,0,0,0,.8.17,3.33,3.33,0,0,0,.81-.13,3.68,3.68,0,0,0,.75-.32l.1,0,.11,0,.13-.09.09-.06.09-.07.13-.09.37.51-1.78,1.27c-3.92,2.81-5.85,4.27-9.66,7.29l-.44-.57a3.58,3.58,0,0,0,.93-.76,2.92,2.92,0,0,0,.55-.92,1.81,1.81,0,0,0,.11-.94,1.94,1.94,0,0,0-.4-.88c-3.83-5-5.75-7.45-9.57-12.42a1.87,1.87,0,0,0-.87-.64,2.22,2.22,0,0,0-1.12-.1,5.8,5.8,0,0,0-1.2.39,6.39,6.39,0,0,0-1.1.62l-.12,0,0,0-.44-.56c2.44-2.32,3.68-3.46,6.19-5.69l1.91-1.41c.28.05.53.11.75.17a3.16,3.16,0,0,1,.58.25,3.61,3.61,0,0,1,.56.31,5.28,5.28,0,0,1,.44.36l0,.07,0,.07Z" transform="translate(-619.51 -104)"/><path d="M873.14,247.86l0-.18-.07-.12-.09-.16a3.66,3.66,0,0,0-3.16-2,6.82,6.82,0,0,0-1.59.13,7.93,7.93,0,0,0-1.69.55.35.35,0,0,0-.12.1l-.11.09-.12.09-.11.09a3.37,3.37,0,0,1-.37.29c-.12.1-.23.19-.31.27l-.36.31-.35.31a17.4,17.4,0,0,0-1.77,2,14.43,14.43,0,0,0-1.4,2.35,11.14,11.14,0,0,0-.93,2.49,9.48,9.48,0,0,0-.23,2.49l-2,1.19c-1.32-2.71-2-4.07-3.27-6.79l2-1.26a.82.82,0,0,0,.33.09h.29l.14,0H858a.16.16,0,0,0,.09,0,1.13,1.13,0,0,1,.19-.19c.07-.07.12-.12.13-.17.21-.27.44-.57.72-.89s.59-.67.92-1,.67-.68,1.08-1l1.34-1.19a21,21,0,0,1,1.7-1.32c.63-.44,1.33-.88,2.11-1.33l2-1.19a19.68,19.68,0,0,1,3.59-1.49,12.5,12.5,0,0,1,3.42-.53,5.53,5.53,0,0,1,2.8.54,4,4,0,0,1,1.73,1.77l5.68,11a6.3,6.3,0,0,0,.85,1.28,3.32,3.32,0,0,0,1,.76,4.26,4.26,0,0,0,1,.35,5.54,5.54,0,0,0,1,.1l.43,0a3.28,3.28,0,0,0,.41-.08l.39-.12a2.52,2.52,0,0,0,.33-.14l.28.57-1.92,1c-2.72,1.38-4.07,2.09-6.75,3.55h-.12l-.09-.05-.69-.37a5.1,5.1,0,0,1-.67-.43l-.15-.1a.4.4,0,0,1-.1-.12.31.31,0,0,1-.13-.08,1,1,0,0,0-.16-.12,8.06,8.06,0,0,1-.53,1.06,7.15,7.15,0,0,1-.73,1,13.57,13.57,0,0,1-1.7,1.92q-.93.87-1.95,1.68a4.46,4.46,0,0,1-.43.33l-.45.3-.26.15a.56.56,0,0,0-.18.16l-.26.15-.2.13-1.85,1.11a17.83,17.83,0,0,1-2.28,1.19,15.7,15.7,0,0,1-2.21.81,5.64,5.64,0,0,1-2,.19,4.2,4.2,0,0,1-1.65-.49,3.63,3.63,0,0,1-.71-.43c-.22-.16-.44-.31-.59-.44s-.32-.36-.47-.53a4.58,4.58,0,0,1-.41-.51,4.91,4.91,0,0,1-.71-3.58,10.85,10.85,0,0,1,2.06-4.46,46,46,0,0,1,4.35-5.19,71.08,71.08,0,0,1,6.07-5.57l0-.08Zm1.38,2.37c-.87.83-1.64,1.62-2.32,2.37a21.87,21.87,0,0,0-1.78,2.25,16.5,16.5,0,0,0-1.51,2.72,7.83,7.83,0,0,0-.65,2.28,2.88,2.88,0,0,0,0,.65,3.66,3.66,0,0,0,.07.59,3.47,3.47,0,0,0,.12.53,2.55,2.55,0,0,0,.2.44,2.64,2.64,0,0,0,.32.41,3.89,3.89,0,0,0,.39.32,3,3,0,0,0,.49.28,4.09,4.09,0,0,0,.56.18,3.65,3.65,0,0,0,1,.09,7.38,7.38,0,0,0,1-.11,3.8,3.8,0,0,0,.51-.15l.49-.19a.45.45,0,0,0,.15-.11,1.12,1.12,0,0,0,.13-.16l.09-.07a.3.3,0,0,1,.08-.08,7.43,7.43,0,0,0,1.56-2,10.48,10.48,0,0,0,1-2.65,7.71,7.71,0,0,0,0-3.21A12.07,12.07,0,0,0,875,251.1l-.17-.29-.16-.3-.08-.14-.05-.1Z" transform="translate(-619.51 -104)"/><path d="M917.65,240.27a4.59,4.59,0,0,0,.71,1.35,2.64,2.64,0,0,0,.95.73,2.71,2.71,0,0,0,1.11.24,3.82,3.82,0,0,0,1.16-.22l.21.59-2,.71c-5.7,2-8.52,3.11-14.11,5.47a23.62,23.62,0,0,1-6.23,1.78,12.57,12.57,0,0,1-5.43-.42,14.34,14.34,0,0,1-4.33-2.12,9,9,0,0,1-2.75-3.26,8.24,8.24,0,0,1-.86-4.17,12.69,12.69,0,0,1,1.29-4.79,13.79,13.79,0,0,1,4-4.79,28.73,28.73,0,0,1,7-4l2.13-.92,1.23-.42c.42-.15.85-.3,1.29-.44l.25-.1a.8.8,0,0,1,.26-.05l-1-2.55a4.75,4.75,0,0,0-1-1.61,1.93,1.93,0,0,0-1.21-.64,6.89,6.89,0,0,0-1.28,0,5.39,5.39,0,0,0-1.3.36c-.11-.29-.17-.43-.29-.71,3.41-2,5.14-3,8.62-4.88l2.24-.82Zm-12.28-10.16a2.18,2.18,0,0,0-.76-1,2.53,2.53,0,0,0-1.3-.46,6.85,6.85,0,0,0-1.11,0,8,8,0,0,0-1.27.23.22.22,0,0,1-.09.08l-.16.07c-.13.08-.25.16-.37.22a3,3,0,0,0-.32.21l-.37.25-.36.24a11,11,0,0,0-2.13,2,15.82,15.82,0,0,0-1.66,2.41,6.52,6.52,0,0,0-.86,2.62,6.83,6.83,0,0,0,.32,2.69,3.8,3.8,0,0,0,.14.51,2.87,2.87,0,0,0,.17.44l.18.41c.06.14.13.27.19.41a9.55,9.55,0,0,0,2,3.08,5.75,5.75,0,0,0,2.67,1.55,14.89,14.89,0,0,0,3,.43,12.9,12.9,0,0,0,2.9-.19l.66-.11a6.77,6.77,0,0,0,.69-.16l.63-.16a5.62,5.62,0,0,0,.62-.2l.7-.2.63-.23a.2.2,0,0,0,.08-.08l.08,0,.07,0,.28-.11.22-.09.1,0,.1,0,.15-.06,0-.08Z" transform="translate(-619.51 -104)"/><path d="M934.05,235.73a4.63,4.63,0,0,0,.51,1.17,1.62,1.62,0,0,0,.73.58,2.23,2.23,0,0,0,1,.15,5.86,5.86,0,0,0,1.35-.23c.06.24.1.36.17.61l-2,.57c-4.5,1.28-6.75,2-11.2,3.46l-.23-.68a3.51,3.51,0,0,0,1.91-1,1.46,1.46,0,0,0,.39-.88,3.4,3.4,0,0,0-.21-1.31c-1.85-5.7-2.78-8.55-4.64-14.25a3.18,3.18,0,0,0-.54-1,3.78,3.78,0,0,0-.82-.78,2.31,2.31,0,0,0-1.18-.37,3.9,3.9,0,0,0-1.46.25c-.1-.31-.16-.46-.26-.77,3.53-1.48,5.31-2.2,8.9-3.56l2.21-.65C930.77,224.51,931.86,228.25,934.05,235.73Zm-13.26-25.26.26-.36a2.69,2.69,0,0,1,.32-.38l.28-.3a2.18,2.18,0,0,1,.29-.26,3.55,3.55,0,0,1,.31-.23,3.21,3.21,0,0,0,.31-.19,3,3,0,0,1,.27-.15,2.19,2.19,0,0,1,.33-.12l2.28-.72a3.77,3.77,0,0,1,1.09-.08,2.88,2.88,0,0,1,1,.28,3.52,3.52,0,0,1,.86.55,2.78,2.78,0,0,1,.61.72l.06.21.12.21a1.62,1.62,0,0,1,.07.56,2.05,2.05,0,0,1-.13.53,2.32,2.32,0,0,1-.29.5,1.65,1.65,0,0,1-.43.4c-3.06,2-4.57,3-7.54,5.12l-2.21.71-1.23-.73C918.74,214.22,919.41,213,920.79,210.47Z" transform="translate(-619.51 -104)"/><path d="M956,218l0-.18,0-.14,0-.17a4,4,0,0,0-.81-1.8,3.85,3.85,0,0,0-1.54-1.1,6.35,6.35,0,0,0-1.53-.38,7.22,7.22,0,0,0-1.74,0,.48.48,0,0,0-.14.05.55.55,0,0,1-.13.05l-.14,0a.31.31,0,0,1-.13.05,3.89,3.89,0,0,1-.44.16l-.37.15-.43.18-.42.19a16.44,16.44,0,0,0-2.26,1.35,14.38,14.38,0,0,0-2,1.78,11.39,11.39,0,0,0-1.62,2,9.61,9.61,0,0,0-1,2.27l-2.18.5c-.4-3-.6-4.47-1-7.45.89-.23,1.34-.34,2.23-.55a.69.69,0,0,0,.28.18l.26.1.13.06.1,0a.14.14,0,0,0,.09,0,1.71,1.71,0,0,1,.23-.13.37.37,0,0,0,.18-.11c.27-.19.58-.39.94-.62s.76-.44,1.17-.66.82-.43,1.32-.65l1.61-.7a19.07,19.07,0,0,1,2-.71c.72-.21,1.51-.41,2.38-.58l2.24-.49a18.71,18.71,0,0,1,3.81-.28,13,13,0,0,1,3.36.57,5.69,5.69,0,0,1,2.46,1.4,4.15,4.15,0,0,1,1.08,2.22c.79,4.87,1.18,7.3,2,12.17a6.14,6.14,0,0,0,.41,1.48,3.24,3.24,0,0,0,.7,1,4.16,4.16,0,0,0,.83.65,5.5,5.5,0,0,0,.9.4,4,4,0,0,0,.41.1,1.84,1.84,0,0,0,.41.05,2.87,2.87,0,0,0,.41,0l.34,0,.09.62-2.09.31c-3,.45-4.44.7-7.4,1.24l-.11,0-.07-.08-.53-.56a5.9,5.9,0,0,1-.5-.62l-.11-.14a.53.53,0,0,1-.05-.15.2.2,0,0,1-.1-.12.83.83,0,0,0-.12-.16,6.36,6.36,0,0,1-.81.84,8,8,0,0,1-1,.74,13.71,13.71,0,0,1-2.17,1.28c-.76.36-1.54.68-2.34,1a4.24,4.24,0,0,1-.5.18L952,235l-.29.06a.74.74,0,0,0-.22.1l-.28.06-.23.05-2.06.47a17.85,17.85,0,0,1-2.49.4,14.93,14.93,0,0,1-2.3.05,5.38,5.38,0,0,1-2-.48,4.09,4.09,0,0,1-1.39-1,4.43,4.43,0,0,1-.53-.63c-.15-.23-.32-.44-.41-.62s-.2-.44-.29-.64a5.79,5.79,0,0,1-.22-.62,5,5,0,0,1,.42-3.6,10.62,10.62,0,0,1,3.26-3.56,45.71,45.71,0,0,1,5.64-3.51A68.78,68.78,0,0,1,956,218.2l0-.08Zm.57,2.69c-1.07.51-2,1-2.89,1.5a21.17,21.17,0,0,0-2.34,1.57,15.87,15.87,0,0,0-2.24,2.09,7.88,7.88,0,0,0-1.29,1.95,2.65,2.65,0,0,0-.22.61c0,.19-.09.39-.12.58a3.44,3.44,0,0,0,0,.54,1.78,1.78,0,0,0,.06.47,2,2,0,0,0,.17.49,2.48,2.48,0,0,0,.26.42,3.08,3.08,0,0,0,.38.43,4.27,4.27,0,0,0,.46.35,3.51,3.51,0,0,0,.86.38,5.36,5.36,0,0,0,1,.22,3.32,3.32,0,0,0,.53,0l.51,0,.18-.06.17-.11.1,0a.19.19,0,0,1,.1,0,7.41,7.41,0,0,0,2.07-1.42,10.64,10.64,0,0,0,1.72-2.21,7.62,7.62,0,0,0,1-3,12.3,12.3,0,0,0-.19-3.72l-.06-.33-.07-.33,0-.16,0-.11Z" transform="translate(-619.51 -104)"/><path d="M1018.43,207.34l-.93.28-2.27-.05a7.87,7.87,0,0,0-1.41-2.42,8.24,8.24,0,0,0-2.31-1.83,18.73,18.73,0,0,0-2.83-1.27,15.91,15.91,0,0,0-3-.7l-.35-.07-.35,0-.41-.06a2,2,0,0,0-.35,0h-.29a14.6,14.6,0,0,0-1.48.19,10.43,10.43,0,0,0-1.36.32,7.86,7.86,0,0,0-1.55.65,3.81,3.81,0,0,0-1,.82,1.32,1.32,0,0,0-.33.4,4.09,4.09,0,0,0-.22.39,3.1,3.1,0,0,0-.1.36,1.12,1.12,0,0,0-.05.36,1.82,1.82,0,0,0,.86,1.41,7,7,0,0,0,2.43,1c1.09.29,2.26.54,3.44.81s2.41.52,3.7.76l1.27.27c.43.09.88.17,1.27.27s.83.24,1.24.33l1.19.29a15.61,15.61,0,0,1,3.74,1.38,17.67,17.67,0,0,1,2.36,1.61,10,10,0,0,1,1.71,1.83,6.61,6.61,0,0,1,1,2,6.08,6.08,0,0,1,.26,2.06,6.42,6.42,0,0,1-.2,1.28,6.62,6.62,0,0,1-.47,1.26,5.21,5.21,0,0,1-.3.64,6.81,6.81,0,0,1-.41.63l-.46.66c-.15.2-.32.42-.51.65l-.14.18-.14.13a.55.55,0,0,0-.17.17.55.55,0,0,1-.17.17l-.33.33-.33.28A18,18,0,0,1,1016,227a14,14,0,0,1-2.91,1.27,23.1,23.1,0,0,1-3,.66,21.89,21.89,0,0,1-3.13.25l-2.1,0c-.6,0-1.2,0-1.79,0s-1.21-.1-1.8-.16c-.27,0-.57-.06-.87-.11s-.6-.09-.87-.15-.63-.14-.93-.19a7.58,7.58,0,0,1-.88-.19h-.11s-.05,0-.05,0h-.22l-.32-.12a.39.39,0,0,1-.21,0l-.16,0a.51.51,0,0,1-.18,0,.59.59,0,0,0-.19,0l-.13,0-.13,0a.29.29,0,0,1-.13.08l-.13,0a1.39,1.39,0,0,0-.51.29,1.86,1.86,0,0,0-.35.47l-2.1.12c-1.45-4.6-2.19-6.9-3.74-11.48l.8-.42,2.2-.14c.06.27.12.53.19.78a4.11,4.11,0,0,0,.29.73,6.37,6.37,0,0,0,.42.69l.48.7a12.56,12.56,0,0,0,2.11,2.32,18.72,18.72,0,0,0,3,2.08,13.59,13.59,0,0,0,3.14,1.32,14.47,14.47,0,0,0,3.63.53,5.39,5.39,0,0,0,.88-.07l.88-.12c.48-.08,1-.21,1.54-.35a16.45,16.45,0,0,0,1.6-.51,6.18,6.18,0,0,0,1.47-.75,5.82,5.82,0,0,0,1.23-1.2,6.51,6.51,0,0,0,.78-1.47,5.48,5.48,0,0,0,.35-1.57,3.85,3.85,0,0,0-.24-1.49,5.29,5.29,0,0,0-.8-1.41,5,5,0,0,0-1.42-1.19,8.47,8.47,0,0,0-2.15-.82l-1-.27-1-.27a2.44,2.44,0,0,0-.5-.13,3.57,3.57,0,0,1-.5-.13c-.17,0-.37-.06-.53-.11l-.53-.1-.23-.07-.22-.06-.22,0-.22-.07-.42-.08-.37-.08q-2.56-.59-4.91-1.22c-1.57-.43-3.08-.88-4.53-1.38a8.1,8.1,0,0,1-3.27-2,4.47,4.47,0,0,1-1.28-2.87l0-.45a1.71,1.71,0,0,1,0-.45c0-.15.07-.31.11-.48a3.12,3.12,0,0,0,.11-.53,5.52,5.52,0,0,1,1.58-2.55,9.82,9.82,0,0,1,3-1.85,21.92,21.92,0,0,1,4-1.18,25.06,25.06,0,0,1,4.3-.45l2.35-.09a5.63,5.63,0,0,0,.71,0c.23,0,.5,0,.76,0s.47,0,.71,0l.7.06c.45,0,.94.08,1.41.14s.94.13,1.41.23l.35,0a.19.19,0,0,0,.11,0h.12s0,0,.06,0h.12l.2,0a.66.66,0,0,0,.21,0,.39.39,0,0,0,.17.07l.18,0,.32-.06a1.43,1.43,0,0,0,.26-.06,1.69,1.69,0,0,0,.62-.29,1.59,1.59,0,0,0,.45-.51v-.09l2.35,0C1017.23,202,1017.64,203.77,1018.43,207.34Z" transform="translate(-619.51 -104)"/><path d="M1045.38,215.4l.08-.17,0-.14,0-.17a4,4,0,0,0-.2-2,3.68,3.68,0,0,0-1.11-1.52,6,6,0,0,0-1.33-.84,7.45,7.45,0,0,0-1.65-.56h-.57l-.46,0a2.55,2.55,0,0,0-.41,0l-.46,0-.46,0a17.12,17.12,0,0,0-2.56.58,14.79,14.79,0,0,0-2.49,1.06,11.6,11.6,0,0,0-2.18,1.44,9.63,9.63,0,0,0-1.63,1.86c-.88-.09-1.33-.13-2.21-.2.56-3,.84-4.44,1.42-7.39l2.28.17a.84.84,0,0,0,.21.26l.21.18.11.1.08.07a.1.1,0,0,0,.08,0l.26,0a.36.36,0,0,0,.21-.05c.31-.09.67-.19,1.08-.29s.86-.18,1.32-.27.91-.14,1.45-.2l1.75-.17a18.12,18.12,0,0,1,2.11,0q1.13,0,2.43.18l2.29.23a19.53,19.53,0,0,1,3.69.92,12.62,12.62,0,0,1,3,1.6,5.6,5.6,0,0,1,1.89,2.09,4.15,4.15,0,0,1,.32,2.44c-.8,4.87-1.2,7.3-2,12.17a6,6,0,0,0-.09,1.53,3.46,3.46,0,0,0,.34,1.2,4.16,4.16,0,0,0,.59.87,5.06,5.06,0,0,0,.72.67l.36.22.37.18.38.13a2.37,2.37,0,0,0,.34.08c0,.25-.07.37-.11.62l-2.08-.35c-3-.5-4.45-.72-7.42-1.13l-.1-.06,0-.1-.33-.7a5.51,5.51,0,0,1-.27-.74.88.88,0,0,1-.06-.17.43.43,0,0,1,0-.16.26.26,0,0,1-.06-.14.6.6,0,0,0-.06-.19,6.76,6.76,0,0,1-1,.54,7,7,0,0,1-1.17.39,12.73,12.73,0,0,1-2.47.55c-.82.09-1.66.16-2.51.19h-.53a4.58,4.58,0,0,1-.53,0l-.29,0a.62.62,0,0,0-.24,0l-.29,0-.23,0c-.84-.09-1.26-.13-2.1-.2a16.91,16.91,0,0,1-2.48-.4,15.69,15.69,0,0,1-2.19-.66,5.61,5.61,0,0,1-1.7-1.07,4.12,4.12,0,0,1-1-1.37,3.62,3.62,0,0,1-.3-.77,7.25,7.25,0,0,1-.2-.71c0-.21,0-.47-.06-.7a3.56,3.56,0,0,1,0-.65,5,5,0,0,1,1.54-3.29,10.41,10.41,0,0,1,4.21-2.35,44.92,44.92,0,0,1,6.44-1.59,68.41,68.41,0,0,1,8-.88v-.22Zm-.3,2.73c-1.18.15-2.25.32-3.22.52a22.36,22.36,0,0,0-2.72.76,16.85,16.85,0,0,0-2.78,1.29,7.76,7.76,0,0,0-1.84,1.45,3,3,0,0,0-.4.5c-.11.17-.2.35-.29.52a2.32,2.32,0,0,0-.3,1.48,2,2,0,0,0,.12.49,2,2,0,0,0,.22.52,3.43,3.43,0,0,0,.33.48,3.5,3.5,0,0,0,.69.63,6,6,0,0,0,.85.51c.18.08.34.14.49.19l.5.14h.19l.19-.05h.11a.17.17,0,0,1,.1,0,7.24,7.24,0,0,0,2.42-.71,10.49,10.49,0,0,0,2.32-1.56,7.63,7.63,0,0,0,1.89-2.57,12.22,12.22,0,0,0,1-3.59c0-.12,0-.23,0-.34s0-.21,0-.33l0-.16v-.15Z" transform="translate(-619.51 -104)"/><path d="M1086.13,223.24l-1,.1-2.16-.6a3.47,3.47,0,0,0-.47-1.92,8.29,8.29,0,0,0-1.68-2,11.22,11.22,0,0,0-2.09-1.55,9.57,9.57,0,0,0-2.45-1.12,7.8,7.8,0,0,0-2.59,0,10.82,10.82,0,0,0-2.54.66,5.44,5.44,0,0,0-2.52,2.1,10.93,10.93,0,0,0-1.49,3.8l0,.22v.23l-.06.26,0,.22a8.37,8.37,0,0,0,.18,3.68,8.85,8.85,0,0,0,1.78,3.25,15,15,0,0,0,2.75,2.61,10.4,10.4,0,0,0,3.21,1.7,8,8,0,0,0,1.87.11,10.29,10.29,0,0,0,1.92-.24,7.39,7.39,0,0,0,2.33-1,10.42,10.42,0,0,0,2.07-1.76l2.11.56.69.53c-2,2.39-2.93,3.59-4.83,6l-2-.57-.66-.41-.15,0a.22.22,0,0,0-.16,0l-.18-.05-.18-.05-1.12-.22-1.1-.27-2-.52a33.75,33.75,0,0,1-6.42-2.24,16,16,0,0,1-4.58-3.21,12.24,12.24,0,0,1-3.61-9.13,2.23,2.23,0,0,1,0-.37c0-.12,0-.24,0-.35l0-.18,0-.22,0-.18,0-.18a10.3,10.3,0,0,1,1.51-3.79,11.12,11.12,0,0,1,3-3.05,10.1,10.1,0,0,1,4.4-1.73,15,15,0,0,1,5.49.32l2.25.48.34.08a.17.17,0,0,0,.1.07l.11,0,.17,0,.34.08a.17.17,0,0,0,.1.07l.11,0,.17,0,2.45.76q1.07.34,1.83.63l.32.11.28.09a2.09,2.09,0,0,1,.3.11,1.35,1.35,0,0,0,.24.08.25.25,0,0,0,.12,0h.29a1.87,1.87,0,0,0,.34,0,1.38,1.38,0,0,0,.29-.08l.28-.16a.26.26,0,0,0,.16,0,.54.54,0,0,1,.22-.05l0-.09,2.23.61C1086.36,218.64,1086.29,220.18,1086.13,223.24Z" transform="translate(-619.51 -104)"/><path d="M1097.85,237a10.68,10.68,0,0,0,1.53,3.23,13.86,13.86,0,0,0,2,2.29,9.09,9.09,0,0,0,2.32,1.66,7.11,7.11,0,0,0,2.3.38,11.63,11.63,0,0,0,2.35-.17,9.84,9.84,0,0,0,2.89-.92,11.23,11.23,0,0,0,2.66-1.82l2,.81.69.64c-2.36,2.38-3.52,3.58-5.81,6l-2-.81-.08-.09-.45-.08c-.16,0-.33-.05-.46-.09s-.27-.1-.43-.13l-.46-.08-1.61-.47q-.79-.24-1.59-.54l-2-.76-.1,0-.1,0a29.05,29.05,0,0,1-5-2.52,24.32,24.32,0,0,1-4.31-3.46,12.09,12.09,0,0,1-2.79-4.39,11,11,0,0,1-.53-5.15,3,3,0,0,1,0-.44,2,2,0,0,1,.09-.37l.05-.17.07-.22,0-.17,0-.17a8.57,8.57,0,0,1,2.39-4,10.09,10.09,0,0,1,4.33-2.32,18.71,18.71,0,0,1,5.4-.61,19.68,19.68,0,0,1,5.41,1l2.19.75.27.1.32.13a19.12,19.12,0,0,1,3.78,2,16.6,16.6,0,0,1,3.14,2.78,10.55,10.55,0,0,1,2.07,3.46,10,10,0,0,1,.53,4c-8.79-1.62-13.17-2.24-21.87-3.11A16.38,16.38,0,0,0,1097.85,237Zm12.93-5.1a7.19,7.19,0,0,0-.36-2.2,6.68,6.68,0,0,0-1-1.91,7.34,7.34,0,0,0-1.17-1.25,9.3,9.3,0,0,0-1.42-1,7.76,7.76,0,0,0-2.22-.17,8.33,8.33,0,0,0-2.31.47,6,6,0,0,0-2.51,1.61,7.66,7.66,0,0,0-1.57,2.75l-.06.17,0,0C1103.16,230.91,1105.7,231.19,1110.78,231.9Z" transform="translate(-619.51 -104)"/><path d="M1134.68,237.64c.51-.08,1.08-.15,1.68-.19a13.9,13.9,0,0,1,2.05,0,10,10,0,0,1,2.39.52,17.73,17.73,0,0,1,2.81,1.22l2.08,1.07.21.11.31.17.18.15.26.14c-1.51,1.58-2.26,2.37-3.76,4-.8-.44-1.21-.65-2-1.08-.13-.24-.28-.49-.44-.75a6.66,6.66,0,0,0-.58-.76,2.49,2.49,0,0,0-.37-.35l-.44-.33a5.65,5.65,0,0,0-1.82-.22,7.88,7.88,0,0,0-2,.35,4.75,4.75,0,0,0-2,1.28,9.6,9.6,0,0,0-1.67,2.46l-3.93,7.86a2.61,2.61,0,0,0-.31,1,1.45,1.45,0,0,0,.21.78,3.26,3.26,0,0,0,.49.65,3.65,3.65,0,0,0,.62.51.18.18,0,0,1,.08.07.31.31,0,0,0,.09.07l.14.07.1.05.09.05.15.07c-.12.22-.18.34-.29.56l-1.92-1c-4.24-2.12-6.38-3.12-10.7-5l.3-.66a3.54,3.54,0,0,0,1.08.46,2.84,2.84,0,0,0,1,.05,1.78,1.78,0,0,0,.87-.35,1.87,1.87,0,0,0,.59-.77c2.63-5.69,4-8.53,6.58-14.23a1.88,1.88,0,0,0,.17-1.06,2.2,2.2,0,0,0-.41-1,6,6,0,0,0-.87-.87,6.34,6.34,0,0,0-1-.68l-.08-.08-.06,0,.3-.65c3.1,1.05,4.64,1.6,7.72,2.76l2.1,1a7.13,7.13,0,0,1,.18.74,3.52,3.52,0,0,1,.05.62,4.23,4.23,0,0,1,0,.64,4.86,4.86,0,0,1-.11.55l0,.08,0,.08Z" transform="translate(-619.51 -104)"/><path d="M1163.61,273.55a4.59,4.59,0,0,0-.69,1.36,2.5,2.5,0,0,0-.06,1.21,2.76,2.76,0,0,0,.46,1.05,4.18,4.18,0,0,0,.87.86l-.37.51-1.77-1.28c-5-3.62-7.6-5.34-12.8-8.62a24.48,24.48,0,0,1-5.1-4.13,12.65,12.65,0,0,1-2.79-4.71,14.4,14.4,0,0,1-.75-4.76,9,9,0,0,1,1.12-4.12,8.19,8.19,0,0,1,2.94-3.08,12.76,12.76,0,0,1,4.71-1.67,14,14,0,0,1,6.24.52,29.32,29.32,0,0,1,7.41,3.53l2,1.24c.34.27.7.53,1.07.79s.74.53,1.12.82l.22.15a.7.7,0,0,1,.2.18c.61-.91.91-1.37,1.53-2.28a5,5,0,0,0,.77-1.71,1.94,1.94,0,0,0-.17-1.36,6.48,6.48,0,0,0-.8-1,5.44,5.44,0,0,0-1-.88l.42-.64c3.66,1.69,5.48,2.57,9.1,4.4l2,1.41C1173.11,260.21,1170,264.66,1163.61,273.55Zm1.23-15.95a2.26,2.26,0,0,0,.39-1.21,2.58,2.58,0,0,0-.38-1.33,6.82,6.82,0,0,0-.65-.92,7.37,7.37,0,0,0-.93-.92.21.21,0,0,1-.12,0l-.15-.1-.41-.18-.35-.15-.42-.16-.42-.16a11.79,11.79,0,0,0-2.85-.66,16.26,16.26,0,0,0-3,0,6.32,6.32,0,0,0-4.71,2.58,4,4,0,0,0-.34.4,4.56,4.56,0,0,0-.27.39l-.23.39c-.08.12-.15.26-.23.38a9.67,9.67,0,0,0-1.39,3.4,5.77,5.77,0,0,0,.26,3.08,15.89,15.89,0,0,0,1.37,2.7,13,13,0,0,0,1.86,2.29c.15.17.31.33.47.49l.53.48.51.43a6.41,6.41,0,0,0,.52.39l.58.47.56.39a.16.16,0,0,0,.12,0l.06.05.07.05.25.16.21.14.09.06.09.06.14.09.05-.07Z" transform="translate(-619.51 -104)"/><path d="M1177.09,268.17a10.62,10.62,0,0,1,5.21-.58,20.11,20.11,0,0,1,10.45,4.49c.75.6,1.12.91,1.86,1.52l.19.16.22.2a21.46,21.46,0,0,1,3.82,4.41,19.75,19.75,0,0,1,2.38,5.15,10,10,0,0,1,.23,5.24,10.19,10.19,0,0,1-2.57,4.65l0,0,0,0-.07.06-.06.07a11.05,11.05,0,0,1-4.5,2.95,10.16,10.16,0,0,1-5.13.25,20,20,0,0,1-5.18-1.78,23.13,23.13,0,0,1-4.53-3.06c-.66-.58-1-.86-1.67-1.43l-.13-.11-.12-.11a23.22,23.22,0,0,1-3.72-4.06,19.48,19.48,0,0,1-2.49-4.85,10.29,10.29,0,0,1-.52-5.19,11.53,11.53,0,0,1,2.23-5l.06-.07A10.28,10.28,0,0,1,1177.09,268.17Zm17.11,15.3a6.71,6.71,0,0,0,.09-3.39,12.29,12.29,0,0,0-1-2.81,9.82,9.82,0,0,0-1.61-2.37,10.56,10.56,0,0,0-5.2-1.7,6.08,6.08,0,0,0-3.19.63,8.51,8.51,0,0,0-2.7,2.31l-.21.26-.18.23-.09.11-.08.1a.41.41,0,0,0-.08.14.29.29,0,0,1-.08.14,14.59,14.59,0,0,0-1.81,4,8.19,8.19,0,0,0-.23,3.53,11.32,11.32,0,0,0,.76,2.45,5.49,5.49,0,0,0,1.29,2,7.45,7.45,0,0,0,2.47,1.18,10.68,10.68,0,0,0,2.84.46,7.86,7.86,0,0,0,3.44-.59,8.23,8.23,0,0,0,2.86-2.11l.12-.14.12-.13a.3.3,0,0,1,.08-.17l.12-.14.12-.13.15-.17a.3.3,0,0,1,.08-.17l.12-.14.06-.06A10,10,0,0,0,1194.2,283.47Z" transform="translate(-619.51 -104)"/><path d="M1219.08,299.46a.33.33,0,0,0,.05.12.23.23,0,0,0,.12.06l.12.14.91.67a8.89,8.89,0,0,0,1.16.7l1.66,1.82c-1.71.18-2.56.28-4.25.48-.64-.73-1-1.09-1.62-1.81,0-.13-.07-.26-.11-.39s-.07-.24-.1-.32a1.94,1.94,0,0,0-.15-.36c-.06-.11-.12-.23-.18-.33a6,6,0,0,0-.44-.59c-.15-.19-.31-.37-.48-.55-.36-.43-.54-.64-.91-1.06l-9.27,8.68a7.1,7.1,0,0,0-1.44,1.79,3,3,0,0,0-.4,1.66,4.9,4.9,0,0,0,.19,1,3.56,3.56,0,0,0,.38.89,8,8,0,0,0,.85.58c.3.17.59.33.89.47a6.92,6.92,0,0,0,1.21.38,2.81,2.81,0,0,0,1,.06l1.55,1.71c.15.34.22.5.36.84-1.77.34-2.65.52-4.41.89-.54-.39-1-.77-1.49-1.15s-.88-.74-1.28-1.1l-1.14-1c-.36-.34-.68-.65-1-1l-1.54-1.65a12.2,12.2,0,0,1-2.2-3.08,4.46,4.46,0,0,1-.44-2.68,7.18,7.18,0,0,1,.94-2.45,12.79,12.79,0,0,1,1.89-2.38l9.08-9.07c-1.07-1.08-1.61-1.61-2.69-2.68.2-.2.3-.31.51-.51a5.66,5.66,0,0,0,1.94,1.13,4.6,4.6,0,0,0,1.94.19,7.12,7.12,0,0,0,1.82-.43,5.34,5.34,0,0,0,1.5-.88l.22-.22.1-.1.09-.1.07-.06.06-.06.1-.1.06-.06.07-.06a.12.12,0,0,1,0-.11l.06-.06.13-.13.13-.13a.16.16,0,0,1,0-.14l.13-.12a1.8,1.8,0,0,1,.17-.31q.09-.13.18-.3c2.26,1,3.39,1.58,5.66,2.69l1.72,1.84-6.21,5.82C1217.5,297.71,1218,298.29,1219.08,299.46Z" transform="translate(-619.51 -104)"/><path d="M1233.17,326.71l.18,0,.11-.08.14-.11a3.71,3.71,0,0,0,1.25-1.53,3.94,3.94,0,0,0,.26-2,7.34,7.34,0,0,0-.39-1.66,8.94,8.94,0,0,0-.83-1.71.65.65,0,0,0-.12-.11l-.11-.11a.38.38,0,0,0-.11-.11.57.57,0,0,1-.11-.12,4,4,0,0,1-.36-.35,2.28,2.28,0,0,0-.32-.31l-.37-.34-.37-.34a20.66,20.66,0,0,0-2.33-1.64,15.88,15.88,0,0,0-2.61-1.23,12,12,0,0,0-2.66-.72,9.81,9.81,0,0,0-2.54,0l-1.51-1.89,6.34-4.06,1.58,1.92a.74.74,0,0,0,0,.35l0,.29c0,.06,0,.11,0,.16v.11a.12.12,0,0,0,0,.09,1.09,1.09,0,0,1,.22.17.53.53,0,0,0,.19.13q.45.27,1,.66c.38.25.77.54,1.17.85s.79.62,1.24,1l1.42,1.27c.53.49,1.06,1,1.61,1.66s1.1,1.31,1.68,2.08.93,1.2,1.54,2a23.55,23.55,0,0,1,2.11,3.64,15.07,15.07,0,0,1,1.1,3.58,6,6,0,0,1-.08,3,3.86,3.86,0,0,1-1.5,2l-10.19,6.95a6,6,0,0,0-1.16,1,3.33,3.33,0,0,0-.6,1.13,4.6,4.6,0,0,0-.18,1.09,6.28,6.28,0,0,0,.06,1.07c0,.16.07.32.11.46a4.43,4.43,0,0,0,.15.43c.06.15.13.29.19.41s.13.23.19.33l-.52.35-1.3-2c-1.86-2.79-2.81-4.16-4.74-6.86l0-.13,0-.1.26-.76a6.11,6.11,0,0,1,.32-.74.79.79,0,0,1,.08-.16.25.25,0,0,1,.11-.12.24.24,0,0,1,.06-.15l.09-.18a7.35,7.35,0,0,1-1.16-.46,7.92,7.92,0,0,1-1.16-.67,15.63,15.63,0,0,1-2.23-1.61c-.69-.59-1.36-1.22-2-1.88l-.4-.42a5.07,5.07,0,0,1-.37-.44l-.2-.26a.75.75,0,0,0-.19-.17l-.2-.25-.16-.21c-.56-.73-.85-1.09-1.42-1.81a22.76,22.76,0,0,1-1.56-2.24,17.48,17.48,0,0,1-1.16-2.21,5.86,5.86,0,0,1-.51-2.08,4.25,4.25,0,0,1,.23-1.75,3.8,3.8,0,0,1,.33-.77c.13-.24.24-.49.36-.66s.31-.36.45-.54a4.11,4.11,0,0,1,.46-.47,4.74,4.74,0,0,1,3.49-1.09,11.25,11.25,0,0,1,4.83,1.66,51.39,51.39,0,0,1,5.94,4,77.6,77.6,0,0,1,6.63,5.85l.07-.06Zm-2.18,1.67c-1-.84-1.91-1.58-2.78-2.22a23.13,23.13,0,0,0-2.57-1.66,18,18,0,0,0-3-1.31,7.87,7.87,0,0,0-2.41-.45,2.82,2.82,0,0,0-.66,0l-.58.13a3.16,3.16,0,0,0-.52.18,2.5,2.5,0,0,0-.4.25,2.59,2.59,0,0,0-.37.37,2.21,2.21,0,0,0-.26.44,3.18,3.18,0,0,0-.21.54,4.77,4.77,0,0,0-.09.6,4.24,4.24,0,0,0,.06,1,6.75,6.75,0,0,0,.27,1.05,5,5,0,0,0,.24.52l.26.49.15.15a.83.83,0,0,0,.17.12l.09.08a.24.24,0,0,1,.09.08,8.62,8.62,0,0,0,2.31,1.44,11.55,11.55,0,0,0,2.85.78,7.72,7.72,0,0,0,3.25-.29,11.18,11.18,0,0,0,3.31-1.72l.27-.2.27-.2.13-.09.09-.07Z" transform="translate(-619.51 -104)"/><path d="M1260.52,340.18c.54.92.82,1.38,1.36,2.31l-23.51,13.8a3.51,3.51,0,0,0-1.08.92,1.6,1.6,0,0,0-.32,1,6.21,6.21,0,0,0,.13,1.12,6.87,6.87,0,0,0,.39,1.23l.06.11-.58.33c-.48-.84-.72-1.25-1.21-2.09-2.67-4.59-4-6.84-6.9-11.24l.6-.39,1.29,2v.08l-1.28-2,.07,0a5.89,5.89,0,0,0,.86.93,6.37,6.37,0,0,0,.93.61,1.69,1.69,0,0,0,1,.21,3.23,3.23,0,0,0,1.25-.51l19.52-12.39a1.55,1.55,0,0,0,.68-.82,2.47,2.47,0,0,0,.14-1.17,6.77,6.77,0,0,0-.35-1.34,8.46,8.46,0,0,0-.58-1.27l0-.14,0-.05.6-.4C1256.37,334.59,1257.77,336.43,1260.52,340.18Z" transform="translate(-619.51 -104)"/></g><path class="cls-4" d="M840.12,656.26l-.91-.77A4.2,4.2,0,0,0,839,655a2.54,2.54,0,0,0-.36-.45l-.49-.46c-.19-.17-.38-.35-.6-.53-3.42-2.94-5.11-4.46-8.43-7.58l.26-.29a1.76,1.76,0,0,0,.75.53,1.73,1.73,0,0,0,.81.1,2.28,2.28,0,0,0,.83-.31,3.43,3.43,0,0,0,.8-.67l7.44-8a1.81,1.81,0,0,0,.33-.5,1.52,1.52,0,0,0,.13-.53,2.74,2.74,0,0,0,0-.5,2,2,0,0,0-.15-.47.24.24,0,0,0,0-.08.19.19,0,0,1-.05-.09s0,0,0-.06l0-.09-.09-.14a1.12,1.12,0,0,1-.05-.13l.28-.3.82.77c2,1.89,3.06,2.81,5.12,4.63l-.24.27a6.3,6.3,0,0,0-.91-.45,1.82,1.82,0,0,0-.71-.14,1.49,1.49,0,0,0-.56.19,1.83,1.83,0,0,0-.49.4L836,648.15a1.66,1.66,0,0,0-.41.77,1.63,1.63,0,0,0,.06.87,3.15,3.15,0,0,0,.32.7,3.76,3.76,0,0,0,.5.67l.32.2.34.22c.21.12.44.24.68.35s.5.22.76.31a8.46,8.46,0,0,0,1.42.37,9.46,9.46,0,0,0,1.56.13,7.12,7.12,0,0,0,1.64-.16,7.64,7.64,0,0,0,1.63-.55l.92.72.25.43C843.67,654.43,842.49,655.05,840.12,656.26Z" transform="translate(-619.51 -104)"/><path class="cls-4" d="M848.6,659.89a2.73,2.73,0,0,0-.42.71,1.36,1.36,0,0,0-.09.62,1.22,1.22,0,0,0,.25.59,3.56,3.56,0,0,0,.65.62l-.21.27-.94-.72c-2.13-1.66-3.19-2.5-5.29-4.21l.25-.31a2,2,0,0,0,.61.46,1.94,1.94,0,0,0,.63.18,1.18,1.18,0,0,0,.62-.18,2.58,2.58,0,0,0,.64-.58l4.83-6a1.81,1.81,0,0,0,.36-.68.93.93,0,0,0,0-.6,4.07,4.07,0,0,0-.29-.55q-.16-.25-.36-.51v-.07l0,0,.26-.32c1.55,1.06,2.32,1.59,3.88,2.61l.89.7Zm5.2-13.84a1.89,1.89,0,0,1,.67-.12,2.49,2.49,0,0,1,.68.13,2.86,2.86,0,0,1,.6.31l.88.67,0,0,0,0a3.81,3.81,0,0,1,.47.52,2.09,2.09,0,0,1,.28.63,1.43,1.43,0,0,1,0,.71,1.81,1.81,0,0,1-.34.68l0,.06-.06.08a2,2,0,0,1-.61.55,1.32,1.32,0,0,1-.67.18,1.8,1.8,0,0,1-.66-.12,2.39,2.39,0,0,1-.58-.34l-.87-.71,0,0h0a2,2,0,0,1-.52-.56,2.47,2.47,0,0,1-.29-.72,1.47,1.47,0,0,1,0-.78,2.07,2.07,0,0,1,.4-.74l0,0A1.82,1.82,0,0,1,853.8,646.05Z" transform="translate(-619.51 -104)"/><path class="cls-4" d="M860.9,658.79c.44,0,.87,0,1.28,0a8.23,8.23,0,0,1,1.17.17,8.68,8.68,0,0,1,1.43.4,7.38,7.38,0,0,1,1.16.58l.94.62a4.38,4.38,0,0,1,.92.9,2.94,2.94,0,0,1,.51,1.07,3.29,3.29,0,0,1,.08.83,2.77,2.77,0,0,1-.16.84c.5,0,1,0,1.4,0a9.26,9.26,0,0,1,1.24.13,7.59,7.59,0,0,1,1.46.38,5.86,5.86,0,0,1,1.15.55l.95.58a4,4,0,0,1,1,.91,2.53,2.53,0,0,1,.49,1.11,3,3,0,0,1,0,1.24,3.6,3.6,0,0,1-.5,1.24c-1.42,2.33-2.14,3.5-3.57,5.83a1.87,1.87,0,0,0-.28.72,1,1,0,0,0,.11.62,1.93,1.93,0,0,0,.35.51,1.91,1.91,0,0,0,.49.4h0l.05,0-.19.31-1-.6c-2.26-1.38-3.39-2.09-5.62-3.53l.21-.33a2.16,2.16,0,0,0,.63.39,1.81,1.81,0,0,0,.61.15.82.82,0,0,0,.54-.17,2.08,2.08,0,0,0,.56-.63l3.2-5.05a3.42,3.42,0,0,0,.45-1,1.54,1.54,0,0,0,0-.85,1.72,1.72,0,0,0-.19-.48,4,4,0,0,0-.3-.42l-.07,0-.1,0a.44.44,0,0,1-.16-.06l-.18,0a7.27,7.27,0,0,0-1-.17,5.62,5.62,0,0,0-1.08,0,5.45,5.45,0,0,0-1,.23,2.86,2.86,0,0,0-.79.43l-.12.09-.09.12,0,0-.05,0,0,.06,0,.07L864,671.22a2.64,2.64,0,0,0-.37.8.81.81,0,0,0,.11.6,2.43,2.43,0,0,0,.4.51,2.66,2.66,0,0,0,.52.42l-.18.29-1-.64c-2.23-1.48-3.34-2.24-5.54-3.78l.22-.32a1.61,1.61,0,0,0,.54.35,1.38,1.38,0,0,0,.55.09,1.1,1.1,0,0,0,.56-.19,2.1,2.1,0,0,0,.51-.55l3.4-4.92a3.9,3.9,0,0,0,.51-1,1.72,1.72,0,0,0,.06-.89,2,2,0,0,0-.17-.52,2.24,2.24,0,0,0-.31-.47l-.19-.09-.21-.07a5.33,5.33,0,0,0-1.07-.2,8.5,8.5,0,0,0-1.13,0,3.63,3.63,0,0,0-1,.2,4.4,4.4,0,0,0-.81.42l-.1.07a.27.27,0,0,0-.07.08l-.08.11-.06.08-3.1,4.3a1.78,1.78,0,0,0-.3.63.91.91,0,0,0,0,.52,1.7,1.7,0,0,0,.3.49,2.92,2.92,0,0,0,.48.43l-.19.28-1-.69c-2.11-1.51-3.16-2.29-5.24-3.86l.24-.31a2.37,2.37,0,0,0,.61.43,1.19,1.19,0,0,0,.56.11,1.09,1.09,0,0,0,.51-.21,2.39,2.39,0,0,0,.52-.53l4.38-5.86a3.35,3.35,0,0,0,.41-.72,1.61,1.61,0,0,0,.13-.63,1.55,1.55,0,0,0-.07-.5,1.38,1.38,0,0,0-.18-.39.83.83,0,0,0-.12-.17.69.69,0,0,0-.13-.11l0,0a.27.27,0,0,1-.07-.08l0,0-.06,0,.25-.33c1.36.84,2,1.25,3.41,2.06l.91.67,0,.2c0,.06,0,.14,0,.19a1.06,1.06,0,0,0,0,.19,1.18,1.18,0,0,1,0,.2l0,.22c0,.07,0,.12,0,.17a.78.78,0,0,1,0,.22.66.66,0,0,1-.06.2s0,0,0,.06a.17.17,0,0,0,0,.05l0,.06a.08.08,0,0,1,0,.06Z" transform="translate(-619.51 -104)"/><path class="cls-4" d="M878.87,672.49a5.82,5.82,0,0,1,2.54-.78,9.8,9.8,0,0,1,2.72.16,9,9,0,0,1,2.53.9l1,.51.09.05.12.07a9.29,9.29,0,0,1,3.7,3.79,5.49,5.49,0,0,1,.65,2.55,6.32,6.32,0,0,1-.69,2.76v0l0,0,0,0a6.18,6.18,0,0,1-1.81,2.25,5,5,0,0,1-2.52,1,9,9,0,0,1-2.84-.16,10.35,10.35,0,0,1-2.67-1l-1-.56-.07,0-.08,0a10.42,10.42,0,0,1-2.3-1.77,8.76,8.76,0,0,1-1.64-2.35,5.14,5.14,0,0,1-.55-2.7,6.35,6.35,0,0,1,.94-2.77l0,0A6.23,6.23,0,0,1,878.87,672.49Zm9.33,5.81a3.68,3.68,0,0,0-.25-1.72,5.49,5.49,0,0,0-.68-1.27,4.33,4.33,0,0,0-.94-1,4.82,4.82,0,0,0-1.25-.28,5.32,5.32,0,0,0-1.37.07,3.27,3.27,0,0,0-1.52.68,5.22,5.22,0,0,0-1.22,1.48l-.09.16-.08.13,0,.07,0,.06a.41.41,0,0,0,0,.08.13.13,0,0,1,0,.08,8,8,0,0,0-.66,2.28,4.35,4.35,0,0,0,.14,1.87,5.85,5.85,0,0,0,.6,1.2,2.64,2.64,0,0,0,.84.88,3.5,3.5,0,0,0,1.39.32,4.83,4.83,0,0,0,1.49-.13,4,4,0,0,0,1.66-.78,4.79,4.79,0,0,0,1.2-1.5l0-.08,0-.09a.3.3,0,0,1,0-.1l0-.08,0-.09.06-.11a.18.18,0,0,1,0-.1l0-.08,0,0A6.18,6.18,0,0,0,888.2,678.3Z" transform="translate(-619.51 -104)"/><path class="cls-4" d="M904.94,686.48h-.48l-1-.45,0,0,0-.07a1.92,1.92,0,0,0,.17-1,2.31,2.31,0,0,0-.43-1,6.36,6.36,0,0,0-.82-1,7.81,7.81,0,0,0-1-.83,1.66,1.66,0,0,0-.32-.22l-.34-.2-.07,0a.08.08,0,0,1,0,0l0,0-.23-.07-.22-.06-.4-.1a2,2,0,0,0-.34,0,.84.84,0,0,0-.24.06.71.71,0,0,0-.22.13,1.1,1.1,0,0,0-.16.15.91.91,0,0,0-.13.19l0,.06,0,0,0,.07a.13.13,0,0,1,0,.08.28.28,0,0,0,0,.13v.12a1.16,1.16,0,0,0,.08.48,3,3,0,0,0,.27.54,2.8,2.8,0,0,0,.46.57,7.48,7.48,0,0,0,.7.62,25.19,25.19,0,0,1,2.19,1.8,13.59,13.59,0,0,1,1.5,1.65,3.68,3.68,0,0,1,.76,1.5,2.24,2.24,0,0,1-.14,1.42,2.41,2.41,0,0,1-.26.46c-.11.15-.23.32-.36.47s-.3.29-.46.43a4.05,4.05,0,0,1-.59.41,3.39,3.39,0,0,1-1.16.48,4.1,4.1,0,0,1-1.41.05,10.56,10.56,0,0,1-1.56-.36,10.92,10.92,0,0,1-1.63-.61l-1-.49-.17-.08-.16-.08-.19-.11-.17-.08-.33-.2-.32-.16-.25-.18-.26-.15-.24-.17-.24-.17-.49-.31a5.41,5.41,0,0,1-.43-.35l-.25-.22-.28-.2,0,0,0,0,0,0,0,0h0l-.25,0-.27,0-1-.53c.78-1.76,1.18-2.64,2-4.39h.46l1,.5a4.13,4.13,0,0,0-.37,1.76,3.22,3.22,0,0,0,.49,1.6,7.22,7.22,0,0,0,1.06,1.38,6.84,6.84,0,0,0,1.38,1.06h0l0,0s0,0,0,0l0,0,.18.07.17.07.19,0,.18,0a3.24,3.24,0,0,0,.62.12c.21,0,.42.06.61.07a2.6,2.6,0,0,0,.57,0,1.43,1.43,0,0,0,.43-.17,1.41,1.41,0,0,0,.35-.27,1.74,1.74,0,0,0,.22-.35l0,0,0,0s0,0,0,0l0,0,0,0,0-.05a0,0,0,0,1,0,0l0-.05a1.78,1.78,0,0,0,0-.56,3.42,3.42,0,0,0-.19-.6,2.74,2.74,0,0,0-.39-.65,3.76,3.76,0,0,0-.64-.61,24,24,0,0,1-2.19-1.71,19.72,19.72,0,0,1-1.65-1.65,3.27,3.27,0,0,1-.8-1.64,3,3,0,0,1,.32-1.74,2.17,2.17,0,0,1,.81-.89,4,4,0,0,1,1.36-.51,4.65,4.65,0,0,1,1.78,0,8.58,8.58,0,0,1,2,.68l1,.45c.13.07.25.15.38.21l.41.23.4.24.42.27a1.89,1.89,0,0,0,.28.17l.27.19.14.11.14.07a.59.59,0,0,0,.11.09l.14.08.38.27a2.41,2.41,0,0,1,.35.25h0l.08,0,.06,0h0l0,0,0,0,1,.44C905.75,684.33,905.48,685.05,904.94,686.48Z" transform="translate(-619.51 -104)"/><path class="cls-4" d="M913.73,687.53a2.53,2.53,0,0,0,.38-.07l.38-.07a8.87,8.87,0,0,1,1.23-.13,11.62,11.62,0,0,1,1.18,0l.44.07c.15,0,.3.06.43.09a2.33,2.33,0,0,1,.44.1l.43.15,1,.36a4.62,4.62,0,0,1,1.1.61,3.44,3.44,0,0,1,.82.84,2.25,2.25,0,0,1,.35,1.13,3.4,3.4,0,0,1-.22,1.35l-2.51,7a2,2,0,0,0-.14.78,1,1,0,0,0,.23.59,1.91,1.91,0,0,0,.48.42,2.32,2.32,0,0,0,.59.29l-.11.32-1.08-.38c-2.45-.87-3.68-1.32-6.11-2.26l.14-.36a1.69,1.69,0,0,0,.69.21.92.92,0,0,0,.55-.13,1.55,1.55,0,0,0,.45-.41,2.55,2.55,0,0,0,.36-.68l2.18-5.78a2.78,2.78,0,0,0,.2-.92,1.56,1.56,0,0,0-.13-.74,1.28,1.28,0,0,0-.24-.39q-.16-.18-.33-.33h-.35l-.17,0a4.31,4.31,0,0,0-1.12.09,6.75,6.75,0,0,0-1.17.35,3.44,3.44,0,0,0-1,.57,2.48,2.48,0,0,0-.59.78v0l0,.09,0,.07-1.69,4.24a3.9,3.9,0,0,0-.27,1,1.32,1.32,0,0,0,.08.66,1.49,1.49,0,0,0,.37.43,1.77,1.77,0,0,0,.55.32l-.12.32-1.06-.42c-2.43-1-3.64-1.46-6.05-2.49l.15-.36a1.83,1.83,0,0,0,.72.25,1.53,1.53,0,0,0,.61,0,1.2,1.2,0,0,0,.55-.38,3,3,0,0,0,.49-.84c1-2.49,1.57-3.74,2.61-6.23a5.17,5.17,0,0,0,.4-1.3,1.2,1.2,0,0,0-.11-.8,2.41,2.41,0,0,0-.41-.48,1.65,1.65,0,0,0-.52-.33l.17-.41c1.48.47,2.23.69,3.72,1.13l1,.41c0,.25.06.46.09.66a2.62,2.62,0,0,1,0,.56.82.82,0,0,1,0,.27c0,.09,0,.18,0,.26Z" transform="translate(-619.51 -104)"/><path class="cls-4" d="M933.69,697l0-.08,0-.07,0-.09a2.46,2.46,0,0,0,.09-1.06,2,2,0,0,0-.39-.89,3.49,3.49,0,0,0-.54-.55,3.89,3.89,0,0,0-.72-.42H932l-.22,0-.19,0-.22,0-.22,0a8,8,0,0,0-1.28.07,6.74,6.74,0,0,0-1.31.31,6.28,6.28,0,0,0-1.22.51,5.53,5.53,0,0,0-1,.79l-1-.38c.69-1.47,1-2.2,1.71-3.68l1,.35a.34.34,0,0,0,.06.16,1,1,0,0,1,.08.11l0,.07,0,0,0,0h.23l.54,0h.64l.7,0,.83.08a9.36,9.36,0,0,1,1,.15c.35.08.72.18,1.12.3l1,.29a9.06,9.06,0,0,1,1.64.73,6.24,6.24,0,0,1,1.28,1,2.94,2.94,0,0,1,.74,1.21,2.47,2.47,0,0,1,0,1.32c-.72,2.57-1.09,3.85-1.81,6.41a3.5,3.5,0,0,0-.15.82,2.08,2.08,0,0,0,.11.66,2.16,2.16,0,0,0,.26.5,2.66,2.66,0,0,0,.34.4l.18.14a1.18,1.18,0,0,0,.19.11l.19.09a.64.64,0,0,0,.18.06l-.09.33-1.09-.3c-1.55-.43-2.33-.66-3.87-1.11l-.05,0v-.06l-.12-.4a2.84,2.84,0,0,1-.08-.42.29.29,0,0,1,0-.09.22.22,0,0,1,0-.08.24.24,0,0,1,0-.09.34.34,0,0,0,0-.1,3.41,3.41,0,0,1-.59.2,3.68,3.68,0,0,1-.65.11,7.79,7.79,0,0,1-1.36.06,12.53,12.53,0,0,1-1.34-.16l-.29-.05-.27-.07-.15-.05a.3.3,0,0,0-.13,0l-.15,0-.12,0-1.08-.35a9,9,0,0,1-1.26-.51,8.27,8.27,0,0,1-1.06-.64,3,3,0,0,1-.74-.78,2.26,2.26,0,0,1-.32-.86,2.12,2.12,0,0,1,0-.44c0-.14,0-.28,0-.39s0-.26.07-.38a1.89,1.89,0,0,1,.09-.34,2.75,2.75,0,0,1,1.24-1.5,5.58,5.58,0,0,1,2.39-.71,27,27,0,0,1,3.35-.14c1.22,0,2.56.09,4,.22v0Zm-.41,1.43c-.59,0-1.14,0-1.64,0a12.57,12.57,0,0,0-1.42.16,8,8,0,0,0-1.53.41,4,4,0,0,0-1.09.57,1.43,1.43,0,0,0-.26.22,2.25,2.25,0,0,0-.21.24,1.18,1.18,0,0,0-.17.24,1.58,1.58,0,0,0-.11.23,1.4,1.4,0,0,0-.06.28,1.22,1.22,0,0,0,0,.27,1.47,1.47,0,0,0,.05.29,1.72,1.72,0,0,0,.11.29,2.19,2.19,0,0,0,.28.42,3.33,3.33,0,0,0,.39.36l.23.15.24.13.1,0h.22a3.53,3.53,0,0,0,1.33-.13,5.23,5.23,0,0,0,1.35-.62,4,4,0,0,0,1.2-1.2,6.65,6.65,0,0,0,.83-1.84l0-.17.06-.18,0-.08,0-.06Z" transform="translate(-619.51 -104)"/><path class="cls-4" d="M951,702.94l.17.1a.44.44,0,0,0,.15.05l.12,0,.1,0,2.37.49a.57.57,0,0,0,.29.08,1.94,1.94,0,0,0,.34,0,.85.85,0,0,0,.35-.1,1.43,1.43,0,0,0,.4-.26l.44,0,1.07.21c-.74,1-1.11,1.54-1.86,2.55l-1.09-.22a.86.86,0,0,1-.2-.13.77.77,0,0,0-.17-.12l-.06-.05-.09-.06-.07,0-.06-.05-.08,0s-.06,0-.07,0l-.1,0-.09,0-.11,0a.18.18,0,0,1-.1,0l-.11,0-.11,0-1.18-.3-.52,0h-.42l-.17,0-.18,0-.12.05a.43.43,0,0,0-.13,0,.41.41,0,0,0-.11.07l-.12.07-.17.11-1.08-.24-.43-.13,1.91-2.5,1.08.24A.9.9,0,0,0,951,702.94Z" transform="translate(-619.51 -104)"/><path class="cls-4" d="M972.86,706.76c-1,1.69-1.48,2.53-2.49,4.2l-.08.2a.53.53,0,0,0,0,.15.34.34,0,0,0,0,.14l0,.15a1.46,1.46,0,0,0,0,.59,1.39,1.39,0,0,0,.29.53,1.43,1.43,0,0,0,.47.38,1.83,1.83,0,0,0,.65.19l-.05.34-1.12-.16c-2.37-.32-3.56-.5-5.93-.88l.06-.38a1.65,1.65,0,0,0,.63.08,2,2,0,0,0,.54-.12,1.22,1.22,0,0,0,.53-.36,3.45,3.45,0,0,0,.5-.76c2.82-4.39,4.18-6.6,6.8-11.06l.15-.22a1.38,1.38,0,0,0,.13-.28,1.48,1.48,0,0,0,.1-.27c0-.09,0-.17,0-.25a1.13,1.13,0,0,0,0-.32.88.88,0,0,0-.1-.26.76.76,0,0,0-.19-.21.81.81,0,0,0-.3-.1l.05-.41,1,.14c2.4.31,3.6.45,6,.7l0,.36a1.18,1.18,0,0,0-.36.1.58.58,0,0,0-.25.21,1.37,1.37,0,0,0-.16.32,1.9,1.9,0,0,0-.08.36l0,.19c0,.07,0,.14,0,.2a.49.49,0,0,0,0,.17l0,.15c1.4,5.06,2.15,7.58,3.74,12.62a.69.69,0,0,0,0,.17.64.64,0,0,1,.06.16s0,0,0,.07a.11.11,0,0,0,0,.08l.06.09.07.09a1.59,1.59,0,0,0,.18.3,3.2,3.2,0,0,0,.25.27.91.91,0,0,0,.3.19,1.24,1.24,0,0,0,.38.09l0,.34-1.12-.1c-2.65-.22-4-.35-6.61-.65l0-.38a2.72,2.72,0,0,0,.71-.19,1.62,1.62,0,0,0,.51-.34,1.94,1.94,0,0,0,.31-.44,1.36,1.36,0,0,0,.15-.51,1.44,1.44,0,0,0,0-.36l-.06-.36a3.34,3.34,0,0,0-.1-.4,2.05,2.05,0,0,0-.18-.41,5.92,5.92,0,0,0-1-1.33,10.7,10.7,0,0,0-1.52-1.3,10.23,10.23,0,0,0-1.46-.87,8.73,8.73,0,0,0-1.62-.61Zm2-1a9.18,9.18,0,0,1,1.31.45,1.51,1.51,0,0,1,.26.12l.29.14a1.75,1.75,0,0,1,.25.16l.26.17c-.59-2.2-.87-3.3-1.42-5.5-.91,1.66-1.38,2.49-2.32,4.14C974,705.49,974.43,705.6,974.88,705.72Z" transform="translate(-619.51 -104)"/><path class="cls-4" d="M985.59,716.05l1.13.09.44.23v.24a3,3,0,0,0,0,1,1.65,1.65,0,0,0,.3.67l.25.25a.92.92,0,0,0,.29.17,2.27,2.27,0,0,0,.75-.34,3.74,3.74,0,0,0,.71-.63,3.3,3.3,0,0,0,.57-.89,3.92,3.92,0,0,0,.26-1.11,2.54,2.54,0,0,0,0-.39c0-.13,0-.28-.06-.44a2.56,2.56,0,0,0-.09-.45c0-.16-.1-.32-.16-.49-1.46-3.71-2.15-5.57-3.49-9.3a1.85,1.85,0,0,0-.18-.38,3.83,3.83,0,0,0-.27-.39,1,1,0,0,0-.38-.31,1.68,1.68,0,0,0-.5-.13l0-.44,1.07.09c2.19.17,3.29.25,5.48.37l0,.39-.36.08a.76.76,0,0,0-.32.12.72.72,0,0,0-.28.55v.19a.34.34,0,0,0,0,.09l0,.11c.85,2.44,1.29,3.65,2.18,6.08,1.19-2.34,1.78-3.52,2.92-5.87l0-.12,0-.15a.5.5,0,0,0-.07-.29,1.1,1.1,0,0,0-.2-.28,1.26,1.26,0,0,0-.36-.21,1.5,1.5,0,0,0-.46-.09l0-.44,1.07,0c1.69.06,2.54.09,4.23.13v.39l-.47.23a3.79,3.79,0,0,0-.45.25,1.5,1.5,0,0,0-.35.36,1.79,1.79,0,0,0-.24.5c-2.36,5-3.59,7.43-6.17,12.33a6.62,6.62,0,0,1-.91,1.3,3.83,3.83,0,0,1-1.1.86,5.22,5.22,0,0,1-1.24.43,4.63,4.63,0,0,1-1.29.09l-1.14-.08h-.17l-.14,0-.18,0a.86.86,0,0,0-.17,0l-.34-.06-.31-.08c-.15-.06-.33-.1-.5-.17a4.15,4.15,0,0,1-.47-.2l-.32-.15-.26-.15-.16-.08-.14-.09h-.06C984.36,718,984.78,717.37,985.59,716.05Z" transform="translate(-619.51 -104)"/><path class="cls-4" d="M1011.37,714.41l-.37.27-.37.23a11.65,11.65,0,0,1-1,.54,6.5,6.5,0,0,1-1.07.39l-.55.12-.52.11a4.5,4.5,0,0,1-.51.08,4.1,4.1,0,0,1-.5,0h-1.13A4.65,4.65,0,0,1,1004,716a3.7,3.7,0,0,1-1-.53,2.21,2.21,0,0,1-.67-1,4.7,4.7,0,0,1-.22-1.59l.1-6.56a2.38,2.38,0,0,0-.09-.68,1.12,1.12,0,0,0-.25-.46,2.07,2.07,0,0,0-.36-.32.89.89,0,0,0-.38-.18H1001l0,0h-.11l-.16-.05v-.39c1.79-.12,2.68-.19,4.46-.34h1.07l0,7.85a4.83,4.83,0,0,0,.14,1.3,1.73,1.73,0,0,0,.42.81,2.18,2.18,0,0,0,.42.33,1.4,1.4,0,0,0,.48.18l.25-.07.27-.08a4.5,4.5,0,0,0,1-.53,6.19,6.19,0,0,0,.89-.76,4.42,4.42,0,0,0,.71-.91,3.46,3.46,0,0,0,.37-.94v0a.17.17,0,0,1,0-.07v-.17l0-.07v-.12l-.1-4.64a1.15,1.15,0,0,0-.1-.46,1.36,1.36,0,0,0-.27-.39,2.17,2.17,0,0,0-.37-.27,1.06,1.06,0,0,0-.39-.13h0s0,0-.06,0h-.11l-.16,0v-.39c1.76-.18,2.65-.28,4.41-.5l1.07,0c.16,4.05.23,6.08.39,10.13a2.7,2.7,0,0,0,.11.7,1.09,1.09,0,0,0,.3.47,1.11,1.11,0,0,0,.49.28,2.34,2.34,0,0,0,.73.06l0,.34-1.13,0c-1.68.07-2.53.09-4.21.13l-.06-.12-.06-.17-.06-.15a.57.57,0,0,1,0-.18,3.18,3.18,0,0,1-.11-.38,3.58,3.58,0,0,0-.11-.35v-.05Z" transform="translate(-619.51 -104)"/><path class="cls-4" d="M1023.69,704.57l.3-.23.31-.23a7.76,7.76,0,0,1,1-.66c.35-.18.7-.34,1.06-.49l.42-.13.42-.11c.14,0,.29-.08.44-.1l.44,0,1.06-.12a4.63,4.63,0,0,1,1.25.07,3.18,3.18,0,0,1,1.09.4,2.22,2.22,0,0,1,.8.86,3.54,3.54,0,0,1,.39,1.31l.8,7.37a2.3,2.3,0,0,0,.21.77,1,1,0,0,0,.46.43,1.92,1.92,0,0,0,.61.17,2.36,2.36,0,0,0,.65,0l0,.34-1.12.13c-2.56.28-3.84.41-6.41.63,0-.16,0-.23,0-.39a1.68,1.68,0,0,0,.71-.11.94.94,0,0,0,.43-.35,1.61,1.61,0,0,0,.21-.57,2.41,2.41,0,0,0,0-.77c-.23-2.46-.34-3.69-.57-6.15a2.7,2.7,0,0,0-.22-.92,1.67,1.67,0,0,0-.43-.61,1.58,1.58,0,0,0-.39-.24,3.81,3.81,0,0,0-.44-.15l-.08,0-.07,0-.16.07-.16.06a4.34,4.34,0,0,0-1,.57,6.12,6.12,0,0,0-.88.82,3.53,3.53,0,0,0-.6.94,2.24,2.24,0,0,0-.19.95v.22c.13,1.82.2,2.73.33,4.55a3.4,3.4,0,0,0,.19,1,1.26,1.26,0,0,0,.35.56,1.9,1.9,0,0,0,.52.23,1.8,1.8,0,0,0,.62,0c0,.14,0,.21,0,.34l-1.12.09c-2.57.19-3.86.27-6.43.4l0-.39a1.92,1.92,0,0,0,.74-.08,1.67,1.67,0,0,0,.53-.3,1.15,1.15,0,0,0,.32-.59,2.88,2.88,0,0,0,.07-1c-.15-2.69-.23-4-.38-6.74a5.45,5.45,0,0,0-.21-1.34,1.18,1.18,0,0,0-.45-.67,2.57,2.57,0,0,0-.56-.26,2,2,0,0,0-.61-.07l0-.43c1.51-.23,2.27-.36,3.78-.61l1.06-.07.37.54a4,4,0,0,1,.25.51,1.86,1.86,0,0,1,.1.25c0,.09,0,.17.07.25Z" transform="translate(-619.51 -104)"/><path class="cls-4" d="M1036.61,705.21a5.69,5.69,0,0,1,1.48-2.16,10,10,0,0,1,2.18-1.54,9.22,9.22,0,0,1,2.49-.82l1-.18.11,0,.13,0a9.19,9.19,0,0,1,2.62,0,9,9,0,0,1,2.51.76,5.3,5.3,0,0,1,2,1.63,6.34,6.34,0,0,1,1.13,2.61v.14a6.49,6.49,0,0,1,0,2.89,5.05,5.05,0,0,1-1.38,2.29,8.64,8.64,0,0,1-2.29,1.59,9.87,9.87,0,0,1-2.67.82l-1.12.17h-.16a10.31,10.31,0,0,1-2.83,0,8.59,8.59,0,0,1-2.67-.86,5.13,5.13,0,0,1-2-1.82,6.58,6.58,0,0,1-.93-2.76v-.05A6.26,6.26,0,0,1,1036.61,705.21Zm10.65-1.06a3.84,3.84,0,0,0-1.22-1.22,6.16,6.16,0,0,0-1.29-.59,4.25,4.25,0,0,0-1.31-.2,4.88,4.88,0,0,0-1.13.54,5.14,5.14,0,0,0-1,.88,3.34,3.34,0,0,0-.76,1.47,5.25,5.25,0,0,0,0,1.91l0,.18,0,.16v.14a.24.24,0,0,0,0,.09l0,.08a8.22,8.22,0,0,0,.85,2.21,4.38,4.38,0,0,0,1.23,1.4,5.6,5.6,0,0,0,1.18.58,2.54,2.54,0,0,0,1.18.19,3.39,3.39,0,0,0,1.25-.59,4.83,4.83,0,0,0,1.07-1,4,4,0,0,0,.82-1.62,4.94,4.94,0,0,0,0-1.92v-.09l0-.1a.18.18,0,0,1,0-.09l0-.1v-.09l0-.12a.2.2,0,0,1,0-.09V706A6.39,6.39,0,0,0,1047.26,704.15Z" transform="translate(-619.51 -104)"/><path class="cls-4" d="M1065.13,701.85h.35l.12,0,.11,0,2.34-.61a.63.63,0,0,0,.3,0,2.22,2.22,0,0,0,.31-.13.92.92,0,0,0,.28-.25,1.43,1.43,0,0,0,.23-.41l.42-.16,1.06-.28c-.21,1.24-.32,1.87-.55,3.11l-1.08.28-.23,0-.21,0-.08,0h-.25l-.08,0a.11.11,0,0,1-.08,0l-.1,0-.09,0-.11,0h-.11l-.11,0-.11,0-1.2.24-.47.22-.37.19-.15.1s-.11.06-.14.09a.9.9,0,0,1-.09.1l-.1.1-.07.11a.75.75,0,0,1-.07.12l-.1.18-1.08.25-.44.08c.25-1.24.37-1.85.61-3.09l1.07-.26A.81.81,0,0,0,1065.13,701.85Z" transform="translate(-619.51 -104)"/><path class="cls-4" d="M1092.46,684.45a8,8,0,0,1,3.48.75,9.29,9.29,0,0,1,2.64,1.79,7.42,7.42,0,0,1,1.64,2.46,7.57,7.57,0,0,1,.55,3,9,9,0,0,1-.75,3.24,7.7,7.7,0,0,1-2.19,2.94,12.91,12.91,0,0,1-3.76,2.1l-1.08.39-.1,0-.11,0-.11,0-.1,0a13.25,13.25,0,0,1-4.32.71,7.83,7.83,0,0,1-3.55-.88,9,9,0,0,1-2.61-2,7.42,7.42,0,0,1-1.47-2.65,7.1,7.1,0,0,1-.33-2.94,9.74,9.74,0,0,1,.89-3.08,7.66,7.66,0,0,1,2.24-2.78,14.28,14.28,0,0,1,3.77-2.09l0,0,1-.36A14.66,14.66,0,0,1,1092.46,684.45Zm-4.86,13.91a6.8,6.8,0,0,0,2,1,7.85,7.85,0,0,0,2,.37,5.75,5.75,0,0,0,1.85-.2h.06a5.7,5.7,0,0,0,1.62-1.09,6.84,6.84,0,0,0,1.24-1.6,4.85,4.85,0,0,0,.64-2.21,6,6,0,0,0-.39-2.39,6.81,6.81,0,0,0-.52-1,6.59,6.59,0,0,0-.74-1,9.09,9.09,0,0,0-1-1,13.06,13.06,0,0,0-1.23-1,6.31,6.31,0,0,0-1.3-.76,6,6,0,0,0-1.43-.42,7.66,7.66,0,0,0-1.42-.1,4.37,4.37,0,0,0-1.37.21,4.72,4.72,0,0,0-1.48,1,6.46,6.46,0,0,0-1.17,1.44,4.44,4.44,0,0,0-.63,2.18,7.25,7.25,0,0,0,.42,2.64c.06.18.13.37.2.56s.15.39.24.57.2.38.31.58.22.39.34.59l-1.06.32v0l1.06-.35A9.49,9.49,0,0,0,1087.6,698.36Z" transform="translate(-619.51 -104)"/><path class="cls-4" d="M1106,683.94c.12-.23.25-.47.41-.72a5.59,5.59,0,0,1,.58-.81,4.49,4.49,0,0,1,.87-.77,8.07,8.07,0,0,1,1.25-.71l1-.48.1-.05.15-.07.11,0,.12-.06c.25,1.14.37,1.71.61,2.85l-1,.47-.43-.07a3.44,3.44,0,0,0-.46,0l-.25,0-.26.07a2.7,2.7,0,0,0-.61.65,3.93,3.93,0,0,0-.43.92,2.75,2.75,0,0,0-.11,1.26,6,6,0,0,0,.47,1.53l1.93,4.33a1.47,1.47,0,0,0,.3.47.78.78,0,0,0,.39.18,2,2,0,0,0,.43,0,2.41,2.41,0,0,0,.42-.08l.06,0h.06l.08,0,0,0,0,0,.08,0,.14.3-1,.47c-2.31,1-3.47,1.54-5.8,2.51l-.15-.36a1.65,1.65,0,0,0,.57-.25,1.49,1.49,0,0,0,.4-.39,1,1,0,0,0,.17-.47,1.08,1.08,0,0,0-.1-.51l-3.3-7.79a1.17,1.17,0,0,0-.35-.46,1.24,1.24,0,0,0-.51-.23,2.41,2.41,0,0,0-.6,0,2.9,2.9,0,0,0-.57.12h-.08l-.15-.36c1.36-.73,2-1.11,3.38-1.86l1-.44.34.19a3,3,0,0,1,.26.21,2.72,2.72,0,0,1,.24.24l.18.24,0,0,0,.05Z" transform="translate(-619.51 -104)"/><path class="cls-4" d="M1121.42,679.2l0-.09,0-.07,0-.09a2.35,2.35,0,0,0-.67-.81,2.08,2.08,0,0,0-.91-.36,2.9,2.9,0,0,0-.78,0,3.1,3.1,0,0,0-.82.21l-.06,0-.06,0,0,0-.06,0-.18.13-.15.12-.18.14-.17.14a9,9,0,0,0-.89,1,7.6,7.6,0,0,0-.73,1.14,5.47,5.47,0,0,0-.52,1.23,5.1,5.1,0,0,0-.2,1.28l-1,.47-1.35-3.83,1-.48a.33.33,0,0,0,.15.07l.14,0,.07,0h.1a.38.38,0,0,1,.09-.09l.07-.07c.1-.13.23-.26.37-.41s.29-.31.46-.46a6.5,6.5,0,0,1,.53-.47c.2-.17.42-.35.66-.53a7.85,7.85,0,0,1,.82-.58,11.59,11.59,0,0,1,1-.58l1-.52a9,9,0,0,1,1.71-.64,6.41,6.41,0,0,1,1.65-.18,2.93,2.93,0,0,1,1.4.34,2.38,2.38,0,0,1,.91,1l3.19,5.85a3.06,3.06,0,0,0,.47.69,1.59,1.59,0,0,0,.54.39,1.91,1.91,0,0,0,.54.18,3.23,3.23,0,0,0,.53,0l.23,0,.22-.05.21-.07.17-.08.16.29-1,.56c-1.44.79-2.16,1.18-3.61,1.95h-.06l0,0-.37-.2a2.71,2.71,0,0,1-.35-.24l-.08-.05a.18.18,0,0,1,0-.07.12.12,0,0,1-.07-.05l-.09-.06a3.33,3.33,0,0,1-.29.56,3.43,3.43,0,0,1-.4.54,6.79,6.79,0,0,1-.94,1,12.64,12.64,0,0,1-1.09.84l-.24.17-.25.14-.15.07a.39.39,0,0,0-.1.08l-.14.07-.12.06-1,.51a9,9,0,0,1-1.27.52,8.45,8.45,0,0,1-1.21.29,2.8,2.8,0,0,1-1.09,0,2.2,2.2,0,0,1-.83-.39,1.54,1.54,0,0,1-.34-.28,3.67,3.67,0,0,1-.28-.28c-.08-.1-.14-.22-.21-.32a1.92,1.92,0,0,1-.18-.31,2.8,2.8,0,0,1-.16-1.94,5.73,5.73,0,0,1,1.24-2.19,30.53,30.53,0,0,1,2.34-2.46c.89-.85,1.92-1.74,3.07-2.67l0,0Zm.72,1.31c-.44.41-.84.8-1.18,1.17a10.41,10.41,0,0,0-.93,1.12,9.11,9.11,0,0,0-.83,1.37,4.71,4.71,0,0,0-.39,1.17,1.38,1.38,0,0,0,0,.34c0,.11,0,.22,0,.32a2.18,2.18,0,0,0,0,.29.85.85,0,0,0,.09.24,1,1,0,0,0,.15.24,1.14,1.14,0,0,0,.19.19,1.5,1.5,0,0,0,.24.18,2,2,0,0,0,.29.12,1.58,1.58,0,0,0,.49.1,3.25,3.25,0,0,0,.54,0l.28-.06.26-.08.09-.06.07-.07,0,0,0,0a3.48,3.48,0,0,0,.87-1,5.11,5.11,0,0,0,.55-1.39,4.08,4.08,0,0,0,0-1.71,6.61,6.61,0,0,0-.69-1.89l-.08-.16-.09-.16,0-.08,0-.05Z" transform="translate(-619.51 -104)"/><path class="cls-4" d="M1139.26,668.56l-.28.41-1,.6a1.93,1.93,0,0,0-.9-.54,4.29,4.29,0,0,0-1.35-.15,5.18,5.18,0,0,0-1.29.16,4.9,4.9,0,0,0-1.24.44,3.92,3.92,0,0,0-.88.93,5.73,5.73,0,0,0-.65,1.14,3,3,0,0,0-.14,1.71,6.49,6.49,0,0,0,.81,2l.06.1.09.09.07.13.06.1a4.34,4.34,0,0,0,3.29,2,7.73,7.73,0,0,0,2,0,5.07,5.07,0,0,0,1.87-.59,3.2,3.2,0,0,0,.75-.69,4.55,4.55,0,0,0,.62-.84,3.74,3.74,0,0,0,.47-1.27,5,5,0,0,0,0-1.45l1-.64.46-.09c.29,1.63.44,2.45.72,4.09l-1,.63-.41.11-.08.05a.17.17,0,0,0-.06.06l-.08.06-.09,0-.51.36c-.17.12-.35.23-.53.34l-1,.61a15.44,15.44,0,0,1-3.39,1.59,7.9,7.9,0,0,1-3,.4,6.38,6.38,0,0,1-2.59-.74,6.59,6.59,0,0,1-2.05-1.77,1,1,0,0,1-.14-.15.86.86,0,0,1-.1-.16l0-.09-.06-.1,0-.09,0-.08a6,6,0,0,1-.72-2.08A6.59,6.59,0,0,1,1128,673a5.18,5.18,0,0,1,1-2.16,7.24,7.24,0,0,1,2-1.72l.94-.59.14-.08h.06l0,0,.07,0,.14-.09a.06.06,0,0,0,.06,0l0,0,.07,0,1.1-.56c.32-.17.59-.31.83-.42l.15-.07.12-.06.14-.07.11-.06,0,0,0,0s0,0,0,0l0,0,.1-.14a.75.75,0,0,0,.06-.13l0-.16s0,0,0-.07a.54.54,0,0,1,0-.11l0,0,.94-.59C1137.52,666.8,1138.1,667.39,1139.26,668.56Z" transform="translate(-619.51 -104)"/><path class="cls-4" d="M1149.41,669.65a2.9,2.9,0,0,0,.55.62,1.29,1.29,0,0,0,.56.28,1.16,1.16,0,0,0,.63,0,3.37,3.37,0,0,0,.78-.42l.19.28-1,.66c-2.21,1.51-3.32,2.25-5.55,3.69l-.21-.32a2.12,2.12,0,0,0,.6-.44,1.65,1.65,0,0,0,.36-.54,1.15,1.15,0,0,0,0-.64,2.52,2.52,0,0,0-.35-.79l-4.23-6.44a1.73,1.73,0,0,0-.53-.57,1.06,1.06,0,0,0-.58-.16,5.77,5.77,0,0,0-.6.1l-.58.18h-.1l-.22-.34c1.46-1.13,2.18-1.7,3.62-2.86l.92-.62Zm-11.5-9.24a1.72,1.72,0,0,1,.09-.67,2.29,2.29,0,0,1,.32-.6,2.32,2.32,0,0,1,.47-.47l.9-.63,0,0,0,0a4,4,0,0,1,.64-.28,2.19,2.19,0,0,1,.67-.07,1.38,1.38,0,0,1,.69.2,1.89,1.89,0,0,1,.54.52l0,.06.05.08a2,2,0,0,1,.35.76,1.42,1.42,0,0,1,0,.68,1.82,1.82,0,0,1-.32.6,2.22,2.22,0,0,1-.48.44l-.94.6,0,0h0a1.72,1.72,0,0,1-.68.33,3.24,3.24,0,0,1-.76,0,1.49,1.49,0,0,1-.74-.25,2.1,2.1,0,0,1-.57-.61l0,0A2.11,2.11,0,0,1,1137.91,660.41Z" transform="translate(-619.51 -104)"/><path class="cls-4" d="M1149,661.84a5.84,5.84,0,0,1,.36-2.65,10.21,10.21,0,0,1,1.29-2.45,9.52,9.52,0,0,1,1.9-2l.88-.7.09-.06.12-.09a9.83,9.83,0,0,1,5.07-1.89,5.46,5.46,0,0,1,2.63.43,6.07,6.07,0,0,1,2.25,1.74v0l0,0,0,0,0,0a6.1,6.1,0,0,1,1.29,2.6,5.09,5.09,0,0,1-.2,2.72,9.46,9.46,0,0,1-1.37,2.57,10.69,10.69,0,0,1-2.08,2.06l-.94.71-.07,0-.07.06a11.14,11.14,0,0,1-2.6,1.4,9.31,9.31,0,0,1-2.85.56,5.11,5.11,0,0,1-2.71-.6,6.34,6.34,0,0,1-2.13-2l0,0A6.24,6.24,0,0,1,1149,661.84Zm9.29-6.25a3.66,3.66,0,0,0-1.69-.46,5.8,5.8,0,0,0-1.46.12,4.43,4.43,0,0,0-1.29.47,5,5,0,0,0-.79,1,5.26,5.26,0,0,0-.51,1.29,3.3,3.3,0,0,0,0,1.68,5,5,0,0,0,.84,1.72l.11.15.09.13,0,.06,0,.05a.09.09,0,0,0,.06.06l.06.07a8,8,0,0,0,1.81,1.53,4.3,4.3,0,0,0,1.78.63,5.44,5.44,0,0,0,1.35-.07,2.81,2.81,0,0,0,1.17-.42,3.66,3.66,0,0,0,.88-1.15,5.28,5.28,0,0,0,.52-1.43,4,4,0,0,0,0-1.86,4.76,4.76,0,0,0-.86-1.71l-.06-.07-.06-.08a.12.12,0,0,1-.08-.06l-.06-.08-.06-.07-.08-.1a.16.16,0,0,1-.08-.06l-.06-.08,0,0A5.78,5.78,0,0,0,1158.31,655.59Zm-8.53-4.28c0-.07,0-.14,0-.21s0-.15.07-.24a1,1,0,0,0,.07-.18.54.54,0,0,1,.08-.17,1.29,1.29,0,0,1,.09-.16l.1-.14.09-.11.12-.11.87-.68a1.57,1.57,0,0,1,.46-.21,1.45,1.45,0,0,1,.51,0,1.6,1.6,0,0,1,.5.13,1.45,1.45,0,0,1,.43.26l.07.09.1.08a.91.91,0,0,1,.15.27,1.29,1.29,0,0,1,.08.26,1,1,0,0,1,0,.29.81.81,0,0,1-.11.27c-1,1.49-1.46,2.23-2.45,3.7l-.9.66-.68-.22C1149.59,653.45,1149.66,652.74,1149.78,651.31Z" transform="translate(-619.51 -104)"/><path class="cls-4" d="M1166.63,645.72c0-.12.09-.25.13-.38s.08-.26.13-.38a8.34,8.34,0,0,1,.49-1.18,11.33,11.33,0,0,1,.61-1.07l.28-.38.3-.35a2.58,2.58,0,0,1,.31-.36c.11-.12.23-.22.34-.32l.84-.79a5.52,5.52,0,0,1,1.1-.73,3.73,3.73,0,0,1,1.17-.38,2.36,2.36,0,0,1,1.19.18,3.34,3.34,0,0,1,1.11.81l5,5.44a2,2,0,0,0,.63.49,1,1,0,0,0,.65,0,2.24,2.24,0,0,0,.62-.25,3.72,3.72,0,0,0,.56-.42l.23.25-.88.82c-2,1.88-3,2.8-5.1,4.62l-.25-.29a2.29,2.29,0,0,0,.54-.54,1,1,0,0,0,.15-.57,1.4,1.4,0,0,0-.15-.6,2.76,2.76,0,0,0-.43-.64l-4.11-4.6a2.8,2.8,0,0,0-.73-.6,1.51,1.51,0,0,0-.73-.21,1.54,1.54,0,0,0-.48,0,2.18,2.18,0,0,0-.45.16s0,0,0,.07l0,.08-.1.15-.1.15a4.53,4.53,0,0,0-.48,1.07,6.7,6.7,0,0,0-.27,1.23,3.77,3.77,0,0,0,0,1.13,2.12,2.12,0,0,0,.4.89v0l0,0,.06.07,0,.06,3,3.46a3.39,3.39,0,0,0,.73.68,1.16,1.16,0,0,0,.63.23,1.56,1.56,0,0,0,.58-.15,2.09,2.09,0,0,0,.56-.35l.23.25-.91.79c-2.07,1.78-3.12,2.66-5.23,4.39l-.24-.31a2.15,2.15,0,0,0,.58-.53,1.77,1.77,0,0,0,.27-.58,1.15,1.15,0,0,0-.07-.67,3.39,3.39,0,0,0-.51-.83l-4.31-5.2a5.29,5.29,0,0,0-1-.95,1.12,1.12,0,0,0-.77-.26,2.6,2.6,0,0,0-.64.15,1.91,1.91,0,0,0-.56.33l-.27-.34c1.15-1.14,1.72-1.72,2.85-2.88l.87-.74.63.22a2.41,2.41,0,0,1,.51.25,1,1,0,0,1,.23.13l.21.16Z" transform="translate(-619.51 -104)"/></svg>