<svg xmlns="http://www.w3.org/2000/svg" viewBox="0 0 777 777"><defs><style>.cls-1{isolation:isolate;}.cls-2{fill:#fff;}.cls-3{fill:#0b5095;}.cls-4{fill:#c03a2a;}.cls-5{fill:#e92556;}.cls-6{fill:#fd0;}.cls-7{fill:#fcc200;}.cls-8{fill:#dfcfd8;}.cls-11,.cls-12,.cls-8{mix-blend-mode:multiply;}.cls-9{fill:none;stroke:#c6c6c5;stroke-miterlimit:10;stroke-width:11.72px;}.cls-10{fill:#c6c6c5;}.cls-11{fill:#9c9b9b;}.cls-13{fill:#a48293;}.cls-14{fill:#cb3c2d;}</style></defs><title>LogoCofradíaCorazon</title><g class="cls-1"><g id="Capa_2" data-name="Capa 2"><circle class="cls-2" cx="388.5" cy="388.5" r="388.5"/><path class="cls-3" d="M1009,111.17c-210.42,0-381,170.58-381,381s170.58,381,381,381,381-170.58,381-381S1219.43,111.17,1009,111.17Zm-.5,744c-200.2,0-362.5-162.3-362.5-362.5s162.3-362.5,362.5-362.5S1371,292.47,1371,492.67,1208.71,855.17,1008.51,855.17Z" transform="translate(-620.51 -103.67)"/><path class="cls-3" d="M1009,139.17c-195,0-353,158-353,353s158,353,353,353,353-158,353-353S1204,139.17,1009,139.17Zm0,672c-176.18,0-319-142.82-319-319s142.82-319,319-319,319,142.82,319,319S1185.19,811.17,1009,811.17Z" transform="translate(-620.51 -103.67)"/><g id="Cruz"><path class="cls-3" d="M967.88,390.35H860s9.91,19.81,30.82,38.52h62.72V612.65L999.79,638V414.56S974.48,413.46,967.88,390.35Z" transform="translate(-620.51 -103.67)"/><path class="cls-4" d="M1044.35,329.63a47,47,0,0,1-7,6.85c.35-.56.69-1.13,1-1.7C1040.37,333.11,1042.38,331.4,1044.35,329.63Z" transform="translate(-620.51 -103.67)"/><path class="cls-4" d="M1033.36,350.18l18.17-9.41-.43.42a40.29,40.29,0,0,1-2.82,3,17.32,17.32,0,0,1-3.41,2.15,43,43,0,0,1-5.64,2.14C1037.29,349.12,1035.35,349.72,1033.36,350.18Z" transform="translate(-620.51 -103.67)"/><path class="cls-4" d="M1051.53,340.77c.41-.39.84-.77,1.29-1.12a3.1,3.1,0,0,1-1.21,1.08Z" transform="translate(-620.51 -103.67)"/><path class="cls-3" d="M1000.89,257.19v81.65c0,4.21.1,8.62-1.69,12.52s-5.49,7.68-9.68,8.72-8.79-.83-12-3.47c-1.73-1.42-2.73-3.56-4.52-4.94a15.28,15.28,0,0,0-11.35-2.76,13.89,13.89,0,0,0-8,3.72c-2.76,2.57-5.37,5.29-7.91,8.06-.81.91-4,3.7-2.83,5a2,2,0,0,0,1,.56c1.79.47,3.75-.15,5.57-.15l6.07,0c2,0,3.57-.17,5.2,1.17a7.33,7.33,0,0,1,2.7,6.55H878.34q-9.18,0-18.38,0c8.7-12.87,18.64-31.26,33.09-38.48,0,0,59-1.11,59.42-1.1.87,0,1.1-59.43,1.1-59.43S960.18,263.8,1000.89,257.19Z" transform="translate(-620.51 -103.67)"/></g><path class="cls-5" d="M1195.5,643.5s-9-22-9-41c0,0-100,2-175,57,0,0-82-58-176-57,0,0-3,37-7,40h-14v15s105-6,172,32v6s0,2,3,2,43-1,43-1,3,1,3-2v-5s62-35,173-32v-14Zm-10,0s-6.63-.07-7.23-.07q-5.2,0-10.4.15t-10.11.43c-3.28.19-6.55.41-9.82.69s-6.35.57-9.52.92-6.14.72-9.21,1.14-5.93.85-8.89,1.33-5.73,1-8.58,1.51-5.51,1.07-8.26,1.66-5.29,1.16-7.92,1.79-5.07,1.24-7.59,1.9-4.84,1.3-7.25,2-4.61,1.35-6.9,2.06-4.37,1.38-6.54,2.11-4.13,1.41-6.19,2.14-3.88,1.41-5.82,2.15-3.64,1.4-5.44,2.13-3.39,1.38-5.07,2.1-3.14,1.35-4.69,2-2.87,1.3-4.3,2-2.61,1.23-3.9,1.86l-3.5,1.75c-1,.53-2.07,1.07-3.09,1.61-2.42,1.29-4.83,2.59-7.17,4-1.9,1.15-3.86,3-6.11,3.32a7.84,7.84,0,0,1-5.16-1.36c-1.06-.63-2.06-1.36-3.12-2s-2.14-1-3.2-1.58c-2.36-1.21-4.71-2.45-7.1-3.62q-4.87-2.4-9.84-4.61t-9.68-4.15q-4.71-1.92-9.45-3.7-4.55-1.69-9.14-3.27c-2.91-1-5.82-2-8.75-2.88q-4.12-1.29-8.28-2.49c-2.57-.74-5.15-1.46-7.74-2.14q-3.56-.95-7.12-1.81c-2.13-.52-4.27-1-6.42-1.49q-2.81-.63-5.64-1.2c-1.59-.33-3.19-.64-4.79-.94l-3.85-.68-2.85-.47-1.77-.26a3.94,3.94,0,0,0-.6-.08h-2a4.14,4.14,0,0,0-2,.44,1.71,1.71,0,0,0-.7.63c-.16.29-.27.61-.43.9a3.59,3.59,0,0,1-.59.7c-1.37,1.22-3.92,2.24-5.51.83a4.29,4.29,0,0,1-.84-1.1,7.55,7.55,0,0,1-.85-2.2,2.76,2.76,0,0,0-.86-1.78,4.15,4.15,0,0,0-1.44-.48,13.5,13.5,0,0,0-1.57-.24c-.79-.08-1.59-.15-2.38-.2-1-.08-2.11-.14-3.16-.2-1.25-.07-2.5-.14-3.76-.19l-4.19-.19-4.46-.17-4.56-.16-4.5-.14-4.27-.13-3.86-.11-3.3-.09-2.56-.07-1.66,0h-.59v-8l59,2c-9-3-56-5-56-5v-8c3-1,60,5,60,5-25-7-58-9-58-9v-8h1l2.45.06,2.45.08,2.44.1,2.44.14,2.44.16c.81.05,1.62.12,2.42.18l2.43.21,2.41.23,2.41.26,2.41.28,2.39.3,2.39.33,2.38.34,2.37.37,2.36.39,2.36.41,2.34.42,2.33.45,2.33.46,2.31.49,2.3.49,2.29.52,2.28.53,2.27.55,2.25.56,2.25.58,2.23.59,2.21.61,2.2.62,2.19.63,2.17.64,2.16.66,2.14.66,2.13.68c.71.23,1.41.45,2.11.69l2.1.69,2.08.7,2.06.72,2,.72,2,.73,2,.73,2,.74,2,.75,1.95.75,1.93.76,1.92.76,1.89.76,1.87.77,1.85.77,1.83.77,1.81.77,1.78.78,1.77.77,1.74.78,1.71.77,1.7.77,1.67.77,1.64.77,1.63.77,1.59.76,1.57.76,1.55.76c.51.24,1,.49,1.52.75l1.49.74,1.47.74,1.44.73,1.41.73c.47.23.93.47,1.39.71l1.35.71,1.33.71,1.3.69,1.27.68,1.24.67,1.21.67c.4.21.79.43,1.18.65l1.15.64c.38.2.75.41,1.12.62l1.09.62,1.06.6,1,.59,1,.57,1,.56.93.54.89.53.86.51.82.49.79.48.76.46.72.44.68.42.65.4.61.38.57.36.54.34.5.31.46.3.43.27.39.25.34.23a3.28,3.28,0,0,1,.31.2l.27.17.23.15.19.13.3.2,0,0,.07,0,.45-.33.55-.38,2.07-1.41,2.07-1.39,2.09-1.37,2.09-1.34,2.1-1.32,2.1-1.29,2.1-1.27,2.12-1.25,2.11-1.23,2.12-1.2c.7-.4,1.41-.79,2.12-1.18l2.12-1.16,2.13-1.14,2.12-1.11,2.13-1.1,2.13-1.07,2.12-1,2.13-1,2.13-1,2.12-1,2.12-1,2.12-1,2.12-.92,2.11-.91,2.11-.89c.7-.3,1.4-.59,2.11-.87l2.1-.86,2.09-.83,2.09-.81,2.08-.8,2.08-.77,2.07-.76,2.06-.75,2-.72,2.05-.71,2-.69,2-.67,2-.65,2-.64,2-.63,2-.6,2-.6,2-.57,1.94-.56,1.93-.55,1.92-.53,1.9-.51,1.89-.5,1.87-.49,1.86-.47,1.84-.45,1.82-.45,1.8-.43,1.79-.42,1.77-.4,1.75-.39,1.73-.38,1.71-.36,1.69-.36,1.67-.34,1.65-.33,1.63-.31,1.6-.31,1.59-.29,1.56-.29,1.53-.27,1.51-.26,1.49-.25,1.46-.24,1.44-.23,1.41-.22,1.38-.22,1.36-.2,1.33-.19,1.3-.19,1.28-.17,1.24-.17,1.22-.16,1.18-.15,1.16-.14,1.12-.13,1.09-.13,1.07-.12,1-.11,1-.11,1-.09.93-.1.9-.08.86-.08.82-.08.79-.07.76-.06.72-.06.68,0,.64-.05.6,0,.57,0,.53,0,.48,0,.45,0,.41,0,.37,0h.32l.29,0h.77s0,7,0,7a249.72,249.72,0,0,0-69,14c15-4,70-10,70-10,1,0,2,8,2,8a287.57,287.57,0,0,0-74.78,9.94c22.14-5.93,77.78-4.94,77.78-4.94Z" transform="translate(-620.51 -103.67)"/><g id="Cofradía"><path d="M820.48,692.22l-.82-.34c-.62-.56-.93-.85-1.54-1.42a7.71,7.71,0,0,0,.21-5.28,19.19,19.19,0,0,0-1-2.62,14.21,14.21,0,0,0-1.45-2.37,2.33,2.33,0,0,0-.17-.26c-.07-.08-.15-.16-.21-.24a2.73,2.73,0,0,1-.21-.3,2.29,2.29,0,0,0-.21-.23l-.07-.07-.06-.06-.05,0c-.34-.3-.69-.57-1-.83a9.6,9.6,0,0,0-1.06-.66,6.91,6.91,0,0,0-1.4-.6,3.36,3.36,0,0,0-1.19-.14,1.24,1.24,0,0,0-.48,0c-.15,0-.3.06-.41.1a2.48,2.48,0,0,0-.32.17,1.15,1.15,0,0,0-.29.2,1.73,1.73,0,0,0-.47,1.49,6.49,6.49,0,0,0,.79,2.34c.49.92,1.06,1.87,1.65,2.83s1.23,2,1.94,3c.22.33.44.67.68,1s.48.68.68,1,.41.69.64,1l.63,1a15.35,15.35,0,0,1,1.06,1.78,15.66,15.66,0,0,1,.71,1.55,18.05,18.05,0,0,1,.71,2.62,9.88,9.88,0,0,1,.16,2.39,6.89,6.89,0,0,1-.41,2.13,5.53,5.53,0,0,1-1,1.7,5.63,5.63,0,0,1-.91.84,6.1,6.1,0,0,1-1.11.65c-.19.1-.4.2-.62.29a6.2,6.2,0,0,1-.7.21l-.76.19c-.24.06-.51.11-.8.16a1.18,1.18,0,0,1-.21,0h-.19a.6.6,0,0,0-.24,0,.9.9,0,0,1-.24,0,3.62,3.62,0,0,1-.46,0h-.43a16,16,0,0,1-3.26-.42,13.61,13.61,0,0,1-3.1-1.14,24.65,24.65,0,0,1-2.82-1.74A22.12,22.12,0,0,1,798,700c-.65-.63-1-1-1.62-1.59-.46-.45-.9-.92-1.32-1.4s-.84-1-1.23-1.51c-.18-.24-.38-.49-.56-.76s-.38-.54-.54-.79-.35-.6-.54-.87a8.86,8.86,0,0,1-.49-.82l-.08-.09a0,0,0,0,1,0-.07l-.08-.08-.08-.08c-.06-.13-.08-.2-.14-.34a.35.35,0,0,1-.17-.15.88.88,0,0,0-.11-.13l-.12-.16a.83.83,0,0,0-.12-.16.53.53,0,0,0-.11-.09l-.12-.09-.14-.06-.12-.09a1.56,1.56,0,0,0-.58-.23,1.61,1.61,0,0,0-.58,0c-.63-.66-.94-1-1.57-1.67,2.43-4,3.65-5.94,6.14-9.85l.82.38c.59.65.89,1,1.49,1.62-.16.2-.32.41-.46.62a3.45,3.45,0,0,0-.35.66q-.13.36-.24.75c-.06.27-.13.53-.19.8a10.71,10.71,0,0,0-.3,3.07,17.79,17.79,0,0,0,.55,3.63,13.26,13.26,0,0,0,1.32,3.28,15.28,15.28,0,0,0,2.29,3.11,6.06,6.06,0,0,0,.71.6c.26.2.5.4.74.57a15.17,15.17,0,0,0,1.39.9c.49.3,1,.56,1.55.81a6.25,6.25,0,0,0,1.62.52,5.38,5.38,0,0,0,1.7,0,5.53,5.53,0,0,0,1.53-.52,4.57,4.57,0,0,0,1.27-.88,3.55,3.55,0,0,0,.76-1.22,4.69,4.69,0,0,0,.31-1.54,4.78,4.78,0,0,0-.26-1.78,8.7,8.7,0,0,0-1-2c-.18-.28-.35-.57-.53-.86l-.52-.86a2.24,2.24,0,0,0-.26-.43c-.11-.15-.18-.32-.25-.43l-.3-.44c-.08-.14-.2-.3-.29-.44a.93.93,0,0,0-.11-.19,1.86,1.86,0,0,1-.1-.2.75.75,0,0,1-.14-.17,2,2,0,0,1-.11-.2,4,4,0,0,0-.23-.34l-.19-.31q-1.34-2.19-2.4-4.27T801.66,679a7.3,7.3,0,0,1-.56-3.59,4.27,4.27,0,0,1,1.38-2.66l.32-.29a1.72,1.72,0,0,1,.35-.25l.42-.21a4,4,0,0,0,.46-.24,5.44,5.44,0,0,1,2.79-.43,9.17,9.17,0,0,1,3.1.94,21.57,21.57,0,0,1,3.16,1.88,23.47,23.47,0,0,1,2.88,2.46l1.49,1.42a3.55,3.55,0,0,0,.41.46c.14.14.29.33.44.5l.43.44.39.47c.26.31.54.62.8,1s.5.66.74,1a2.23,2.23,0,0,0,.19.24.13.13,0,0,0,0,.1l.08.07s0,0,0,.07l.07.07a.75.75,0,0,1,.12.14.45.45,0,0,0,.11.14.48.48,0,0,0,.07.15.44.44,0,0,0,.1.12l.24.15.22.11a1.48,1.48,0,0,0,.58.16,1.66,1.66,0,0,0,.61-.1l.06-.07,1.5,1.38C823,687.6,822.13,689.14,820.48,692.22Z" transform="translate(-620.51 -103.67)"/><path d="M836.63,712.79l.15-.11.07-.1.11-.14a4,4,0,0,0,.76-1.71,3.58,3.58,0,0,0-.16-1.77,6,6,0,0,0-.64-1.3,6.36,6.36,0,0,0-1-1.22l-.12-.06-.12-.07-.11-.06-.12-.06-.36-.21-.33-.17-.38-.19-.38-.19a17.49,17.49,0,0,0-2.28-.8,14.77,14.77,0,0,0-2.48-.42,11.27,11.27,0,0,0-2.46,0,10,10,0,0,0-2.29.56l-1.6-1.4c2.11-2,3.15-3,5.25-4.92l1.59,1.33a.62.62,0,0,0,0,.31l.06.25a.59.59,0,0,1,0,.13.84.84,0,0,1,0,.1.12.12,0,0,0,0,.07.84.84,0,0,1,.22.1.46.46,0,0,0,.18.06l1,.33c.37.13.74.28,1.14.45s.76.33,1.2.56l1.41.71a17.9,17.9,0,0,1,1.63.95c.56.37,1.15.79,1.77,1.27l1.66,1.21a18.34,18.34,0,0,1,2.45,2.35,11.91,11.91,0,0,1,1.67,2.58,5.4,5.4,0,0,1,.61,2.54A4.14,4.14,0,0,1,844,716l-6.81,9.62a5.64,5.64,0,0,0-.71,1.29,2.88,2.88,0,0,0-.18,1.19,3.9,3.9,0,0,0,.18,1,5.23,5.23,0,0,0,.4.9,3.74,3.74,0,0,0,.25.36,3.92,3.92,0,0,0,.27.33l.3.28a2.42,2.42,0,0,0,.28.22l-.34.5-1.8-1.25c-2.55-1.79-3.81-2.71-6.33-4.57l-.06-.1v-.1c0-.25,0-.5,0-.76a4.91,4.91,0,0,1,.09-.77.79.79,0,0,1,0-.17.37.37,0,0,1,.07-.14.27.27,0,0,1,0-.15,1.06,1.06,0,0,0,0-.19,6.85,6.85,0,0,1-1.18-.07,9.08,9.08,0,0,1-1.23-.28,13.74,13.74,0,0,1-2.45-.88,26.15,26.15,0,0,1-2.33-1.24c-.17-.09-.32-.19-.48-.29l-.45-.33-.24-.19a.53.53,0,0,0-.22-.12l-.24-.19-.19-.16c-.7-.55-1-.83-1.73-1.39a17.79,17.79,0,0,1-1.94-1.8,16.93,16.93,0,0,1-1.52-1.88,5.79,5.79,0,0,1-.84-1.89,3.89,3.89,0,0,1,0-1.69,3.21,3.21,0,0,1,.18-.77,6.06,6.06,0,0,1,.25-.67c.09-.19.24-.39.35-.58a3.3,3.3,0,0,1,.36-.51,4.77,4.77,0,0,1,3.11-1.59,11.24,11.24,0,0,1,4.67.61c1.84.56,3.85,1.3,6,2.2s4.46,2,7,3.2l0-.07Zm-1.53,2.13c-1.05-.43-2-.8-2.92-1.11a22.83,22.83,0,0,0-2.62-.75,18.38,18.38,0,0,0-2.95-.41,8.32,8.32,0,0,0-2.27.16,3.25,3.25,0,0,0-.6.19c-.18.07-.35.16-.52.24a2.93,2.93,0,0,0-.43.29,2,2,0,0,0-.33.31,2.47,2.47,0,0,0-.27.42,2.06,2.06,0,0,0-.15.46,2.44,2.44,0,0,0-.09.54q0,.27,0,.57a4,4,0,0,0,.26.91,6.56,6.56,0,0,0,.48.9,3.85,3.85,0,0,0,.33.42l.35.4.17.1.19.07.1,0,.1.05a7.59,7.59,0,0,0,2.44.74,9.63,9.63,0,0,0,2.77-.08A7,7,0,0,0,832,718.2a11.13,11.13,0,0,0,2.52-2.52l.19-.26.2-.26L835,715l.06-.08Z" transform="translate(-620.51 -103.67)"/><path d="M858.19,722.59l.72,0h.71a16.21,16.21,0,0,1,2.26.21c.71.12,1.43.28,2.13.47l.78.27c.26.09.52.21.76.3s.52.2.77.33.5.27.73.41c.7.39,1.05.59,1.76,1a10.17,10.17,0,0,1,1.83,1.45,6.47,6.47,0,0,1,1.27,1.75,4.08,4.08,0,0,1,.35,2.09,5.65,5.65,0,0,1-.76,2.31l-6.31,11.51a3.54,3.54,0,0,0-.47,1.34,1.79,1.79,0,0,0,.29,1.11,3.85,3.85,0,0,0,.78.92,5.83,5.83,0,0,0,1,.7l-.28.53-1.9-1c-4.35-2.37-6.5-3.6-10.76-6.15l.35-.59a3.6,3.6,0,0,0,1.23.63,1.86,1.86,0,0,0,1,0,2.76,2.76,0,0,0,.93-.58,4.31,4.31,0,0,0,.85-1.07l5.52-9.44a4.71,4.71,0,0,0,.61-1.56,2.77,2.77,0,0,0,0-1.35,2.52,2.52,0,0,0-.34-.77,4.83,4.83,0,0,0-.51-.68.37.37,0,0,0-.15,0,.4.4,0,0,1-.16,0l-.3-.08-.31-.09a8.76,8.76,0,0,0-2.07-.24,12.37,12.37,0,0,0-2.23.19,6.25,6.25,0,0,0-1.9.67,3.78,3.78,0,0,0-1.3,1.14l0,0,0,0-.1.15-.07.11-4.29,6.85a5.83,5.83,0,0,0-.76,1.61,2.12,2.12,0,0,0,0,1.19,3.07,3.07,0,0,0,.58.92,3.75,3.75,0,0,0,.92.78l-.31.51-1.85-1.15c-4.23-2.64-6.32-4-10.46-6.84.15-.23.23-.34.39-.57a3.84,3.84,0,0,0,1.24.75,3.32,3.32,0,0,0,1.15.2,2.16,2.16,0,0,0,1.12-.46,4.9,4.9,0,0,0,1.15-1.28l6.63-10a9.34,9.34,0,0,0,1.11-2.13,2.08,2.08,0,0,0,0-1.45,5.3,5.3,0,0,0-.58-1,4.1,4.1,0,0,0-.86-.79l.44-.64c2.54,1.41,3.82,2.09,6.38,3.42l1.71,1.1c0,.44,0,.83,0,1.18a5.48,5.48,0,0,1-.15,1,2.37,2.37,0,0,1-.11.46c-.06.15-.11.3-.16.44Z" transform="translate(-620.51 -103.67)"/><path d="M902,751.62l-3.35,8.43a2.9,2.9,0,0,0-.23,1.28,3,3,0,0,0,.37,1.23,4.14,4.14,0,0,0,.9,1.05,4.44,4.44,0,0,0,1.27.72l-.22.56-2-.77c-5-2-7.5-3-12.43-5.18l.28-.63,1.95.86.08.1a.2.2,0,0,0,.09.06l.14.06-1.94-.89a.94.94,0,0,0,.18.12.54.54,0,0,0,.21,0,4,4,0,0,0,1.07.23,4.36,4.36,0,0,0,1.07,0,1.81,1.81,0,0,0,1-.53,3.79,3.79,0,0,0,.79-1.23l8.31-19.38a3.1,3.1,0,0,0,.29-1.21,1.93,1.93,0,0,0-.28-1,6.26,6.26,0,0,0-.58-.87,3.57,3.57,0,0,0-.77-.66l-.18-.08-.17-.08-.09,0a0,0,0,0,1,0-.06l-.09,0-.09,0,.3-.67c.71.32,1.06.48,1.77.78,7,3,10.56,4.45,17.72,7a13.22,13.22,0,0,1,2.43,1.31,7,7,0,0,1,1.75,1.68,5.05,5.05,0,0,1,.91,1.91,3.69,3.69,0,0,1-.11,1.89,4,4,0,0,1-.47.95,5.64,5.64,0,0,1-.76.91c-.16.16-.32.31-.49.45s-.39.26-.57.38a6.92,6.92,0,0,1-.63.4l-.73.37a12.4,12.4,0,0,1-2.81.89,31.3,31.3,0,0,1-3.72.49,33.35,33.35,0,0,1-4.58,0,52.63,52.63,0,0,1-5.59-.65Zm1.72-2.61c.23,0,.46,0,.72,0l.34,0,.35,0a23.74,23.74,0,0,0,3-.1,27.92,27.92,0,0,0,3-.44,6.31,6.31,0,0,0,2.27-.94A3.25,3.25,0,0,0,914.6,746a2.93,2.93,0,0,0,.13-.51,3.08,3.08,0,0,0,0-.53c0-.19,0-.38,0-.59a3.67,3.67,0,0,0-.13-.66A2.33,2.33,0,0,0,914,743a7.55,7.55,0,0,0-1.08-.83c-.35-.24-.72-.48-1.09-.69a10.89,10.89,0,0,0-1.19-.58,7.13,7.13,0,0,0-1.29-.31,11.16,11.16,0,0,0-1.26-.12,2.57,2.57,0,0,0-1.36.25,1.73,1.73,0,0,0-.78.9c-1.17,2.92-1.75,4.39-2.91,7.32Z" transform="translate(-620.51 -103.67)"/><path d="M937.85,761.24l.1-.15,0-.12,0-.17a4,4,0,0,0,.06-1.87,3.49,3.49,0,0,0-.78-1.56,5.59,5.59,0,0,0-1-.94,6.32,6.32,0,0,0-1.34-.71l-.13,0a.23.23,0,0,1-.12,0h-.26l-.4,0-.35,0-.4,0-.41,0a15.4,15.4,0,0,0-2.32.18,13.58,13.58,0,0,0-2.36.59,10.92,10.92,0,0,0-2.2,1,9.72,9.72,0,0,0-1.84,1.42l-1.92-.64c1.17-2.63,1.75-3.94,2.9-6.58l1.89.58a.72.72,0,0,0,.12.29,1.73,1.73,0,0,1,.15.2l.07.11,0,.08a.1.1,0,0,0,.07,0h.23a.32.32,0,0,0,.18,0l1-.09c.37,0,.77,0,1.17,0s.81,0,1.28,0l1.51.09a18.12,18.12,0,0,1,1.8.23c.63.11,1.31.27,2,.46l1.91.46a16.16,16.16,0,0,1,3,1.19,10.38,10.38,0,0,1,2.42,1.71,5.09,5.09,0,0,1,1.47,2.08,4.31,4.31,0,0,1,.11,2.34L943,772.74a6.42,6.42,0,0,0-.17,1.46,3,3,0,0,0,.28,1.17,3.55,3.55,0,0,0,.53.86,4.43,4.43,0,0,0,.69.68,3,3,0,0,0,.35.23,2,2,0,0,0,.36.19l.38.15.33.09c-.05.24-.08.36-.13.59l-2.07-.45c-2.93-.64-4.39-1-7.31-1.7l-.09-.07,0-.1c-.09-.22-.18-.46-.26-.7a5.08,5.08,0,0,1-.2-.74c0-.06,0-.12,0-.16a.45.45,0,0,1,0-.16.2.2,0,0,1,0-.14,1.62,1.62,0,0,0,0-.19,6.77,6.77,0,0,1-1.07.4,8.3,8.3,0,0,1-1.21.22,12.37,12.37,0,0,1-2.5.17,24.23,24.23,0,0,1-2.53-.22,4.67,4.67,0,0,1-.52-.08,4.37,4.37,0,0,1-.52-.12l-.28-.08a.69.69,0,0,0-.24,0l-.29-.08-.23-.06-2-.59a16.9,16.9,0,0,1-2.37-.88,14.3,14.3,0,0,1-2-1.11,5.28,5.28,0,0,1-1.43-1.39,3.89,3.89,0,0,1-.65-1.51,3.66,3.66,0,0,1-.11-.78,6,6,0,0,1,0-.71c0-.21.07-.45.1-.67a3.88,3.88,0,0,1,.14-.61,4.88,4.88,0,0,1,2.2-2.69,10.8,10.8,0,0,1,4.37-1.31c1.84-.21,3.89-.33,6.13-.36s4.69,0,7.36.18l0-.08Zm-.6,2.56c-1.08,0-2.09.06-3,.13a22.56,22.56,0,0,0-2.61.35,16.9,16.9,0,0,0-2.78.79,8,8,0,0,0-2,1,2.63,2.63,0,0,0-.46.41,5,5,0,0,0-.37.43,2.71,2.71,0,0,0-.29.43,1.9,1.9,0,0,0-.18.42,2.81,2.81,0,0,0-.09.49,2.42,2.42,0,0,0,0,.47,2.4,2.4,0,0,0,.12.53,4.61,4.61,0,0,0,.23.52,3.69,3.69,0,0,0,.56.72,5.2,5.2,0,0,0,.75.63,3,3,0,0,0,.44.26l.46.22.18,0h.41a7,7,0,0,0,2.45-.29,9.5,9.5,0,0,0,2.44-1.16,7,7,0,0,0,2.1-2.21,11.29,11.29,0,0,0,1.35-3.3l.08-.31.08-.32,0-.14,0-.11Z" transform="translate(-620.51 -103.67)"/><path d="M962.3,759.13l1,.09,1,.13,1.94.27a21.47,21.47,0,0,1,5.81,1.73,12.58,12.58,0,0,1,4.11,3.11,15.08,15.08,0,0,1,2.49,3.91,10.35,10.35,0,0,1,.82,4.07l0,.26,0,.25v.11a.15.15,0,0,0,0,.11v.22a9,9,0,0,1-1.14,3.58,10.65,10.65,0,0,1-2.67,3,9.48,9.48,0,0,1-4.2,1.8,18.19,18.19,0,0,1-5.66,0l-2.09-.31c-6.4-1-9.59-1.53-16-2.84l.14-.67a2.87,2.87,0,0,0,1.4.13,2.73,2.73,0,0,0,1.14-.45,3.6,3.6,0,0,0,.85-.93,3.84,3.84,0,0,0,.49-1.31l3.93-20.06a7.61,7.61,0,0,0,.16-1.59,2,2,0,0,0-.2-1,2.31,2.31,0,0,0-.65-.57,8.56,8.56,0,0,0-1-.52l-.27-.1a.15.15,0,0,1-.11,0s0,0,0-.05a.25.25,0,0,1-.09,0,.18.18,0,0,0-.09,0l.15-.72c3.35.13,5,.16,8.36.19l1.88.32c-.53,3.14-.79,4.71-1.32,7.85Zm-.42,2.5c-1,5.61-1.42,8.41-2.36,14a2.31,2.31,0,0,0,.14,1.37,2.77,2.77,0,0,0,.88,1.06,5.71,5.71,0,0,0,1,.65,7.93,7.93,0,0,0,1.22.45,1,1,0,0,0,.29,0,.9.9,0,0,0,.24,0h.24l.29,0a9,9,0,0,0,2.54-.5,12.22,12.22,0,0,0,2.45-1.18,6.2,6.2,0,0,0,1.95-1.93,7.25,7.25,0,0,0,1-2.8,9.61,9.61,0,0,0-.2-3.63,10.12,10.12,0,0,0-1.53-3.33,8.07,8.07,0,0,0-2.79-2.41,17,17,0,0,0-4.34-1.57h-.15l-.22,0-.21,0a.84.84,0,0,1-.28,0l-.22,0Z" transform="translate(-620.51 -103.67)"/><path d="M992.62,754.85l1.9.11c-.55,10.41-.82,15.62-1.36,26a3.6,3.6,0,0,0,.13,1.34,1.54,1.54,0,0,0,.54.76,5.18,5.18,0,0,0,.87.47,5.47,5.47,0,0,0,1.09.31h.11l0,.65-2.1-.1c-4.65-.23-7-.39-11.62-.79,0-.28,0-.42.07-.69l2.09.18.05,0-2.1-.17.06,0a5.13,5.13,0,0,0,1.12-.12,4.2,4.2,0,0,0,.92-.36,1.59,1.59,0,0,0,.69-.65,3.42,3.42,0,0,0,.3-1.25c.7-8.82,1-13.23,1.74-22.05a2,2,0,0,0-.16-1,2.15,2.15,0,0,0-.62-.76,4,4,0,0,0-.92-.48,4.44,4.44,0,0,0-1-.28l-.09,0h-.05l.06-.68C987.66,755.16,989.32,755.07,992.62,754.85Z" transform="translate(-620.51 -103.67)"/><path d="M1000.55,769.17a10.38,10.38,0,0,1,3.28-3.39,18.64,18.64,0,0,1,4.35-2.13,16.66,16.66,0,0,1,4.69-.82l2-.08h.44a17.19,17.19,0,0,1,9.08,2.49,9.62,9.62,0,0,1,3.33,3.29,11,11,0,0,1,1.49,4.81v.26a10.88,10.88,0,0,1-.73,5.08,9,9,0,0,1-3.06,3.74,16.14,16.14,0,0,1-4.62,2.31,18.92,18.92,0,0,1-5.14.82l-2.11,0h-.32a19.3,19.3,0,0,1-5.22-.7,16.36,16.36,0,0,1-4.7-2.2A9.12,9.12,0,0,1,1000,779a11.12,11.12,0,0,1-.92-5.08v-.09A11,11,0,0,1,1000.55,769.17Zm19.63.76a6.65,6.65,0,0,0-1.93-2.41,11,11,0,0,0-2.2-1.33,8,8,0,0,0-2.31-.66,8.46,8.46,0,0,0-2.18.67,9.66,9.66,0,0,0-2,1.3,6,6,0,0,0-1.77,2.39,9,9,0,0,0-.6,3.33v.86a.61.61,0,0,0,0,.15.41.41,0,0,1,0,.16,14.11,14.11,0,0,0,1,4.09,7.51,7.51,0,0,0,1.9,2.75,9.94,9.94,0,0,0,2,1.32,5.08,5.08,0,0,0,2.13.61,6.86,6.86,0,0,0,2.47-.74,9.29,9.29,0,0,0,2.22-1.53,7.06,7.06,0,0,0,1.9-2.68,8.25,8.25,0,0,0,.5-3.36v-.34a.58.58,0,0,1-.06-.17v-.56a.27.27,0,0,1-.06-.17v-.26A10.56,10.56,0,0,0,1020.18,769.93Z" transform="translate(-620.51 -103.67)"/><path d="M1061,767.73c-.8,3.39-1.22,5.08-2.1,8.46a3.22,3.22,0,0,1,0,.37.94.94,0,0,0,0,.29.77.77,0,0,0,0,.26c0,.09,0,.17,0,.26a2.71,2.71,0,0,0,.38,1,2.53,2.53,0,0,0,.82.73,2.76,2.76,0,0,0,1.06.39,4.12,4.12,0,0,0,1.25-.05l.1.59-2.08.37c-4.43.76-6.65,1.11-11.1,1.71,0-.28-.06-.41-.09-.69a3.35,3.35,0,0,0,1.17-.18,4.27,4.27,0,0,0,.91-.5,2.32,2.32,0,0,0,.74-.89,5.66,5.66,0,0,0,.49-1.55c2.66-8.91,3.85-13.39,6-22.34a4.38,4.38,0,0,0,.14-.46,2.67,2.67,0,0,0,.07-.54,2.91,2.91,0,0,0,0-.51,3.11,3.11,0,0,0-.06-.44,1.58,1.58,0,0,0-.19-.54,2.07,2.07,0,0,0-.32-.38,1.09,1.09,0,0,0-.43-.25,1.46,1.46,0,0,0-.59,0l-.13-.72,1.89-.34c4.3-.8,6.45-1.24,10.73-2.22l.14.63a2.65,2.65,0,0,0-.58.38,1,1,0,0,0-.31.48,3.5,3.5,0,0,0-.08.64,3,3,0,0,0,.07.65l.08.33a3.21,3.21,0,0,0,.12.33,2.33,2.33,0,0,0,.11.28l.16.23c5.32,7.67,8.11,11.45,13.94,18.87a1.11,1.11,0,0,0,.2.26,1.86,1.86,0,0,1,.19.22.23.23,0,0,1,.11.11.26.26,0,0,0,.11.1.39.39,0,0,0,.17.11.61.61,0,0,1,.16.12,3.38,3.38,0,0,0,.51.38,4.87,4.87,0,0,0,.6.31,2.5,2.5,0,0,0,1.37,0c.07.24.1.35.16.59l-2,.53c-4.84,1.26-7.27,1.83-12.15,2.89-.06-.27-.09-.41-.14-.68a5.23,5.23,0,0,0,1.16-.73,2.93,2.93,0,0,0,.69-.86,3.51,3.51,0,0,0,.31-.93,2.47,2.47,0,0,0,0-.94,2.39,2.39,0,0,0-.21-.6c-.1-.19-.21-.38-.32-.56a5.93,5.93,0,0,0-.4-.62,4.33,4.33,0,0,0-.56-.58,10.41,10.41,0,0,0-2.48-1.66,21.13,21.13,0,0,0-6.47-2,17,17,0,0,0-3.2-.12Zm3-2.88a19.7,19.7,0,0,1,2.55,0,2.35,2.35,0,0,1,.52,0,5.07,5.07,0,0,0,.58.08,2.69,2.69,0,0,1,.54.1l.55.15c-2.28-3.35-3.4-5-5.59-8.43-.66,3.31-1,5-1.74,8.26C1062.24,765,1063.1,764.9,1064,764.85Z" transform="translate(-620.51 -103.67)"/><path d="M1099.87,776.84v0l0,.08a2.16,2.16,0,0,0,.45.81,3.54,3.54,0,0,0,.8.65,2.09,2.09,0,0,0,1,.31,3.93,3.93,0,0,0,1.34-.2c.08.26.13.39.21.65l-2.09.66c-4.76,1.49-7.15,2.18-12,3.47l-.18-.66,0,0,.11,0a7.2,7.2,0,0,0,1-.49,4.47,4.47,0,0,0,.93-.72,2,2,0,0,0,.51-1,2.72,2.72,0,0,0-.08-1.28c-2.39-8.48-3.58-12.73-6-21.21a10.41,10.41,0,0,0-.76-2,2.22,2.22,0,0,0-.82-1,2.77,2.77,0,0,0-1-.32,5.93,5.93,0,0,0-1.45,0l-.11,0c-.07-.28-.11-.42-.19-.71l1.9-.51c5.68-1.57,8.5-2.43,14.11-4.3a20.5,20.5,0,0,1,5.66-1,11.59,11.59,0,0,1,4.83.92,14.08,14.08,0,0,1,3.76,2.3,8.74,8.74,0,0,1,2.31,3.21l.06.16.07.16a8.84,8.84,0,0,1,.59,3.91,10.65,10.65,0,0,1-1.3,4.19,11,11,0,0,1-3.5,3.83,22.82,22.82,0,0,1-6,2.9l-2,.66c-.44.14-.9.29-1.4.43s-1,.26-1.52.37l-.29.06-.28.07c-.1,0-.21,0-.3,0l-.29.06C1098.85,773.53,1099.19,774.64,1099.87,776.84Zm-3.51-9.91a2,2,0,0,0,.71,1.07,2.8,2.8,0,0,0,1.26.49,6.8,6.8,0,0,0,1.28,0,12.56,12.56,0,0,0,1.32-.17l0,0,0,0c.2-.09.39-.19.57-.29s.4-.21.62-.32a10.34,10.34,0,0,0,2.14-1.57,12.8,12.8,0,0,0,1.8-2.07,6.16,6.16,0,0,0,1-2.47,7.14,7.14,0,0,0-.15-2.74l-.07-.2,0-.22-.06-.16-.07-.21a10.15,10.15,0,0,0-1.92-3.31,8.69,8.69,0,0,0-2.87-2.17,10.09,10.09,0,0,0-3.33-.92,8.33,8.33,0,0,0-3.23.38c-1.33.39-2,.59-3.34,1Z" transform="translate(-620.51 -103.67)"/><path d="M1116.09,748.5a10.29,10.29,0,0,1,1.69-4.43,18.64,18.64,0,0,1,3.19-3.73,17.11,17.11,0,0,1,4-2.67l1.79-.87.18-.08.23-.11a18.44,18.44,0,0,1,4.64-1.38,17.79,17.79,0,0,1,4.84-.08,9.87,9.87,0,0,1,4.44,1.64,10.87,10.87,0,0,1,3.33,3.79l0,0,0,0,0,.07,0,.08a10.67,10.67,0,0,1,1.35,5,9,9,0,0,1-1.35,4.69,16.73,16.73,0,0,1-3.39,4,19.75,19.75,0,0,1-4.47,2.87l-2,.9-.15.07-.15.06a19.83,19.83,0,0,1-5.15,1.5,16.61,16.61,0,0,1-5.26-.1,9.12,9.12,0,0,1-4.5-2.09,11.06,11.06,0,0,1-2.9-4.29l0-.08A11,11,0,0,1,1116.09,748.5Zm18.59-7.33a6.58,6.58,0,0,0-2.77-1.41,11.26,11.26,0,0,0-2.59-.32,8.52,8.52,0,0,0-2.42.34,8.79,8.79,0,0,0-1.76,1.52,9.69,9.69,0,0,0-1.39,2,6,6,0,0,0-.69,2.91,9,9,0,0,0,.79,3.29l.13.3.11.25.05.12,0,.12a.43.43,0,0,0,.09.13.32.32,0,0,1,.08.13,13.46,13.46,0,0,0,2.56,3.34,7.47,7.47,0,0,0,2.87,1.75,9.89,9.89,0,0,0,2.41.38,5.17,5.17,0,0,0,2.23-.3,7.26,7.26,0,0,0,2-1.7,9.54,9.54,0,0,0,1.45-2.31,7.09,7.09,0,0,0,.7-3.23,8.21,8.21,0,0,0-.88-3.29l-.08-.15-.08-.15a.41.41,0,0,1-.12-.14l-.08-.15-.07-.15-.1-.2a.37.37,0,0,1-.12-.13L1137,744l0-.08A10.39,10.39,0,0,0,1134.68,741.17Zm-13.22-10.54c.06-.12.11-.24.16-.36a2.72,2.72,0,0,1,.2-.37,3,3,0,0,0,.18-.3,2,2,0,0,1,.2-.26c.07-.07.14-.17.21-.24l.23-.19a.8.8,0,0,1,.19-.16,1.28,1.28,0,0,1,.25-.15l1.73-.85a2.55,2.55,0,0,1,.87-.18,2.33,2.33,0,0,1,.88.15,3.73,3.73,0,0,1,.82.42,3.3,3.3,0,0,1,.64.6l.09.19.14.17a1.58,1.58,0,0,1,.17.52,2,2,0,0,1,0,.48,1.57,1.57,0,0,1-.14.5,1.19,1.19,0,0,1-.28.42c-2.19,2.22-3.31,3.32-5.58,5.49l-1.8.8-1.09-.65C1120.36,734.24,1120.74,733,1121.46,730.63Z" transform="translate(-620.51 -103.67)"/><path d="M1164.73,724.25l-.51.74-1.75,1.12,0-.07-.07-.11a3.36,3.36,0,0,0-1.37-1.25,4.17,4.17,0,0,0-2-.34,13.25,13.25,0,0,0-2.34.29,16.53,16.53,0,0,0-2.28.67,4.84,4.84,0,0,0-.66.28l-.64.31-.14.07a.25.25,0,0,1-.09,0,.17.17,0,0,0-.1,0l-.34.28-.34.27a7.05,7.05,0,0,0-.56.5,4.42,4.42,0,0,0-.38.5,2.06,2.06,0,0,0-.17.42,1.35,1.35,0,0,0,0,.45,1.31,1.31,0,0,0,0,.39,1.14,1.14,0,0,0,.16.38l.05.09,0,.1a.3.3,0,0,0,.09.1s.06,0,.09.09a.47.47,0,0,0,.16.18l.19.12a1.9,1.9,0,0,0,.8.36,6.65,6.65,0,0,0,1.09.13,7.11,7.11,0,0,0,1.35-.14,14.52,14.52,0,0,0,1.66-.45q2.77-1,5-1.58a26.85,26.85,0,0,1,4.09-.74,7.33,7.33,0,0,1,3.08.26,3.9,3.9,0,0,1,2,1.56,4.29,4.29,0,0,1,.42.83,8.84,8.84,0,0,1,.33,1,8.08,8.08,0,0,1,.17,1.13,9.24,9.24,0,0,1,0,1.29,6,6,0,0,1-.51,2.25,8.09,8.09,0,0,1-1.45,2.23,21.12,21.12,0,0,1-2.22,2.05,21.69,21.69,0,0,1-2.69,1.9l-1.87,1.12-.3.18-.31.18a2.56,2.56,0,0,0-.37.17l-.3.18c-.24.1-.46.21-.67.31s-.41.24-.59.33l-.54.21a4,4,0,0,0-.51.25c-.16.07-.35.13-.52.19l-.51.2c-.32.13-.66.29-1,.42s-.68.23-1,.32a5.89,5.89,0,0,0-.59.16c-.21.06-.41.14-.62.22l-.07,0H1155l-.07,0-.07,0-.05,0c-.11.1-.22.21-.34.34s-.22.25-.31.37l-1.92,1-4.38-7.32.53-.68,1.84-1a7.07,7.07,0,0,0,2.22,2.29,6,6,0,0,0,2.92.85,13.83,13.83,0,0,0,3.22-.25,12.59,12.59,0,0,0,3.09-1.07l.07,0,.07,0a.13.13,0,0,0,.09,0l.07,0a2.17,2.17,0,0,0,.29-.2l.29-.19.27-.24a1.51,1.51,0,0,0,.26-.24,6.67,6.67,0,0,0,.86-.82c.27-.29.54-.58.77-.87a4.11,4.11,0,0,0,.54-.91,2.65,2.65,0,0,0,.22-.82,2.21,2.21,0,0,0,0-.78,2.28,2.28,0,0,0-.3-.68l0-.08-.05-.07s0,0-.07,0l0-.07,0-.07,0-.08a.1.1,0,0,1-.09,0l0-.07a2.9,2.9,0,0,0-.87-.5,6.26,6.26,0,0,0-1.12-.3,6,6,0,0,0-1.41,0,6.49,6.49,0,0,0-1.58.39,44.88,44.88,0,0,1-4.93,1.63,32.62,32.62,0,0,1-4.23.85,5.88,5.88,0,0,1-3.3-.44,5,5,0,0,1-2.23-2.21,3.8,3.8,0,0,1-.44-2.09,7.25,7.25,0,0,1,.69-2.52,8.63,8.63,0,0,1,1.91-2.63,16.34,16.34,0,0,1,3.14-2.34l1.71-1.06c.25-.11.49-.23.73-.36s.49-.26.76-.39.51-.23.78-.37.56-.25.84-.36l.55-.26a2.83,2.83,0,0,1,.57-.23l.29-.11a1.71,1.71,0,0,0,.27-.14,1,1,0,0,0,.25-.08l.27-.14c.26-.09.52-.2.79-.32s.51-.21.74-.29l0,0c0-.06.07-.1.06-.14a.52.52,0,0,1,0-.11l0-.1a.07.07,0,0,0,0-.06l0-.08,1.71-1.09Z" transform="translate(-620.51 -103.67)"/><path d="M1176,709a.14.14,0,0,0,.11,0,.23.23,0,0,0,0-.1l.13-.09c.18-.21.39-.45.61-.73a6.14,6.14,0,0,0,.63-1l1.6-1.27c.17,1.56.24,2.35.39,3.92l-1.66,1.25-.35,0-.28.05-.33.08-.3.12a5,5,0,0,0-.54.31l-.51.35-1,.67c2.85,3.93,4.27,5.9,7.11,9.83a6.86,6.86,0,0,0,1.52,1.59,2.78,2.78,0,0,0,1.52.57,4.39,4.39,0,0,0,1-.07,3.55,3.55,0,0,0,.89-.27,6.25,6.25,0,0,0,.62-.76c.19-.27.37-.54.53-.8a7.69,7.69,0,0,0,.46-1.13,2.62,2.62,0,0,0,.12-.92l1.7-1.36.81-.3c.24,1.71.36,2.57.58,4.28-.41.49-.82,1-1.22,1.36s-.8.79-1.18,1.15l-1.1,1c-.36.32-.71.59-1,.83l-1.79,1.3a11,11,0,0,1-3.27,1.71,4.19,4.19,0,0,1-2.62,0,6.76,6.76,0,0,1-2.14-1.3,12,12,0,0,1-1.89-2.2l-6.91-10.13-2.68,1.81-.38-.58a4.21,4.21,0,0,0,1.23-1.47,4.15,4.15,0,0,0,.39-1.7,7,7,0,0,0-.2-1.72,5.4,5.4,0,0,0-.62-1.53l-.17-.25-.07-.1-.08-.11,0-.07-.05-.07-.08-.11,0-.07,0-.07a.1.1,0,0,1-.09,0l0-.07-.1-.14-.1-.15a.15.15,0,0,1-.11-.07l-.1-.15a2.61,2.61,0,0,1-.24-.22l-.25-.22c1.07-1.76,1.6-2.65,2.63-4.42l1.61-1.16,4.76,6.59C1174.44,710.19,1175,709.81,1176,709Z" transform="translate(-620.51 -103.67)"/><path d="M1185.67,708.11a10.74,10.74,0,0,1,.47-4.82,20.45,20.45,0,0,1,2.15-4.58,18.76,18.76,0,0,1,3.27-3.82l1.53-1.4.16-.13.19-.18a20.07,20.07,0,0,1,4.22-2.77,19,19,0,0,1,4.76-1.58,10.07,10.07,0,0,1,4.83.21,10.41,10.41,0,0,1,4.3,2.66l0,0,0,0,.06.06.06.06a10.28,10.28,0,0,1,2.66,4.41,9.13,9.13,0,0,1-.09,5,17.66,17.66,0,0,1-2.27,5,20.78,20.78,0,0,1-3.65,4.17l-1.69,1.48-.12.11-.13.11a21.66,21.66,0,0,1-4.68,3,17.42,17.42,0,0,1-5.22,1.49,9.12,9.12,0,0,1-5-.66,10.68,10.68,0,0,1-4-3.28l0-.07A10.57,10.57,0,0,1,1185.67,708.11Zm16.39-12.8a6.72,6.72,0,0,0-3.12-.51,11.75,11.75,0,0,0-2.64.48,8.65,8.65,0,0,0-2.3,1.08,9.78,9.78,0,0,0-1.34,2,10.52,10.52,0,0,0-.82,2.39,6,6,0,0,0,.1,3,8.51,8.51,0,0,0,1.66,3l.2.24.18.22.08.1.09.1a.35.35,0,0,0,.11.1.35.35,0,0,1,.12.1,13.35,13.35,0,0,0,3.42,2.47,7.5,7.5,0,0,0,3.3.82,10.91,10.91,0,0,0,2.48-.36,5.55,5.55,0,0,0,2.12-1,7.5,7.5,0,0,0,1.53-2.26,9.89,9.89,0,0,0,.82-2.7,7.12,7.12,0,0,0-.18-3.36,7.85,7.85,0,0,0-1.74-2.92l-.12-.13-.12-.12a.38.38,0,0,1-.15-.09l-.12-.13-.12-.13-.14-.16a.24.24,0,0,1-.16-.09l-.11-.12-.06-.07A10.42,10.42,0,0,0,1202.06,695.31Z" transform="translate(-620.51 -103.67)"/><path d="M1206.69,670c.57-.6.85-.9,1.41-1.51l19.1,17.75a3.35,3.35,0,0,0,1.13.74,1.42,1.42,0,0,0,1,0,5.81,5.81,0,0,0,1-.42,6,6,0,0,0,1-.71l.08-.09.47.44c-.61.68-.92,1-1.54,1.69-3.44,3.71-5.18,5.53-8.73,9.07-.19-.2-.29-.3-.49-.49.65-.64,1-1,1.6-1.61h.07l-1.59,1.61v-.07a4.91,4.91,0,0,0,.69-1,4.73,4.73,0,0,0,.37-1,1.57,1.57,0,0,0,0-1,3.13,3.13,0,0,0-.74-1l-15.77-15.51a1.75,1.75,0,0,0-.87-.49,2.2,2.2,0,0,0-1,0,4.58,4.58,0,0,0-1,.45,5.42,5.42,0,0,0-.91.62l-.1,0,0,0-.48-.49C1203.46,674.25,1204.55,672.83,1206.69,670Z" transform="translate(-620.51 -103.67)"/><path d="M799.46,332.66a2.85,2.85,0,0,0-.23.26l-.06.1a.17.17,0,0,0-.11.06,1.06,1.06,0,0,0-.12.2l-.12.2a2.32,2.32,0,0,0-.14.23,2.11,2.11,0,0,1-.14.22l-.46.63-.5.68-.28.38a4.1,4.1,0,0,0-.23.4c-.07.12-.19.25-.28.38l-.27.38c-.54.75-.82,1.13-1.36,1.9-.42.6-.88,1.22-1.36,1.86s-1,1.29-1.49,1.93-1,1.32-1.55,2-1.14,1.29-1.75,1.92-1.19,1.19-1.83,1.75-1.3,1.09-2,1.6a21.94,21.94,0,0,1-2.12,1.44,24.85,24.85,0,0,1-2.28,1.23,21.53,21.53,0,0,1-3.4,1.3,17.22,17.22,0,0,1-3.41.65,14.94,14.94,0,0,1-3.29-.06,11.38,11.38,0,0,1-2.93-.76.54.54,0,0,0-.19-.07.67.67,0,0,1-.23-.1.36.36,0,0,1-.21,0l-.18-.1-.17-.1-.22-.13-.17-.1-.18-.1a15.39,15.39,0,0,1-1.34-.87,8.51,8.51,0,0,1-1.17-1.08,9.27,9.27,0,0,1-1-1.3c-.29-.47-.56-.95-.83-1.46a15.57,15.57,0,0,1-1.15-3.64,16.33,16.33,0,0,1-.23-3.91,17.26,17.26,0,0,1,.91-4.41,34.28,34.28,0,0,1,2.26-5.14c.14-.28.29-.55.45-.82s.32-.52.49-.78.18-.28.27-.41.14-.28.2-.38a3.74,3.74,0,0,1,.27-.42l.24-.35c.56-.89.85-1.33,1.43-2.21.32-.41.62-.82.92-1.23s.59-.8.89-1.17.59-.75.86-1.12.55-.71.82-1.05.51-.6.77-.89.51-.57.74-.83l.13-.19.1-.13.15-.21a1.54,1.54,0,0,0,.15-.29,1.64,1.64,0,0,0,.14-.22,1.71,1.71,0,0,1,.13-.23,4.06,4.06,0,0,0,.34-.88c.07-.27.13-.55.19-.83.6-.84.9-1.27,1.51-2.11,3.43,1.07,5.13,1.62,8.53,2.75l-.33,1c-.6.8-.91,1.2-1.51,2a7,7,0,0,0-3.13,0,11.6,11.6,0,0,0-3.41,1.46,18,18,0,0,0-2.93,2.17,16.53,16.53,0,0,0-2.55,2.81,16.86,16.86,0,0,0-1.94,4.34,17.77,17.77,0,0,0-.75,4.72,9,9,0,0,0,1.15,4.71,10.41,10.41,0,0,0,3.72,3.68l.08,0,.07.05.12.07.08,0a11.59,11.59,0,0,0,5.38,1.56,13.91,13.91,0,0,0,5.72-1.11,24.93,24.93,0,0,0,5.32-3,23.63,23.63,0,0,0,4.35-4.14l0,0a22.38,22.38,0,0,0,1.52-2.91,15.94,15.94,0,0,0,.94-3.11,13.34,13.34,0,0,0,.21-3.73,13.49,13.49,0,0,0-.88-3.73c.57-.77.85-1.15,1.43-1.91l.84-.56c1.6,3.69,2.42,5.52,4.12,9.14l-1.4,1.85A1.21,1.21,0,0,0,799.46,332.66Z" transform="translate(-620.51 -103.67)"/><path d="M793.1,314a11,11,0,0,1-.27-5.37,21.54,21.54,0,0,1,5.11-10.6c.65-.75,1-1.12,1.63-1.85l.17-.18.21-.23a22.46,22.46,0,0,1,4.61-3.73,19.75,19.75,0,0,1,5.26-2.22,9.88,9.88,0,0,1,5.23,0,10.13,10.13,0,0,1,4.53,2.77l0,0,0,0,.06.06.06.07a11,11,0,0,1,2.76,4.63,10.27,10.27,0,0,1,0,5.17,20.28,20.28,0,0,1-2,5.16,24.15,24.15,0,0,1-3.29,4.49l-1.53,1.66-.11.13-.11.13a25.12,25.12,0,0,1-4.3,3.69,20.58,20.58,0,0,1-5.05,2.46,10.48,10.48,0,0,1-5.3.45,11,11,0,0,1-4.88-2.38l-.07-.05A10.18,10.18,0,0,1,793.1,314Zm16.35-17.11a6.71,6.71,0,0,0-3.39-.19,12.46,12.46,0,0,0-2.87.9,10.64,10.64,0,0,0-2.46,1.58,11,11,0,0,0-2,5.26,6,6,0,0,0,.46,3.27,8.3,8.3,0,0,0,2.17,2.82l.26.22.22.19.1.09.1.09a.5.5,0,0,0,.14.08.29.29,0,0,1,.14.08,14,14,0,0,0,4,1.95,8.38,8.38,0,0,0,3.55.32,11.84,11.84,0,0,0,2.51-.72,5.8,5.8,0,0,0,2-1.26,8.16,8.16,0,0,0,1.32-2.48,11.15,11.15,0,0,0,.59-2.87,7.92,7.92,0,0,0-.42-3.49,8.27,8.27,0,0,0-2-3l-.13-.13-.13-.12a.46.46,0,0,1-.17-.09l-.13-.12-.12-.13-.16-.16a.3.3,0,0,1-.17-.08l-.13-.13-.07-.06A10,10,0,0,0,809.45,296.86Z" transform="translate(-620.51 -103.67)"/><path d="M824.31,273.89l.43-.37.18-.15.23-.19.18-.16.19-.15.06-.06.1,0,.37-.4c.11-.12.23-.24.32-.36a4,4,0,0,0,.39-.62,2.89,2.89,0,0,0,.25-.68v-.28a3.31,3.31,0,0,1,0-.33l1.85-1.52c.29,1.58.44,2.36.75,3.93-.74.6-1.1.91-1.83,1.52l-.39.18a3.19,3.19,0,0,0-.52.29l-.3.25a2.64,2.64,0,0,1-.32.22,2.48,2.48,0,0,0-.36.31l-.41.34-.35.24c4,4.63,5.93,6.95,9.88,11.58a6.2,6.2,0,0,0,1.42,1.28,2.57,2.57,0,0,0,1.41.4,3.62,3.62,0,0,0,1.3-.25,4.18,4.18,0,0,0,1.11-.66l.4.48L839,290.13c-3.84,3.27-5.73,4.95-9.43,8.43l-.49-.53,1.63-1.52h.07L829.15,298l.08-.08A2.84,2.84,0,0,0,830,297a5.79,5.79,0,0,0,.47-1.15,2.27,2.27,0,0,0-.13-1.31,4.84,4.84,0,0,0-1-1.47L818.8,281.46c-1.25,1.14-1.87,1.72-3.11,2.89l-.5-.53a4.93,4.93,0,0,0,1.26-1.42,3.92,3.92,0,0,0,.51-1.63,3.8,3.8,0,0,0-.3-1.81,7.06,7.06,0,0,0-1.29-1.93,5.38,5.38,0,0,1-1.45-2.94,5.83,5.83,0,0,1,.58-3.3,20.56,20.56,0,0,1,2-3.37,21.34,21.34,0,0,1,2.72-3l1.88-1.62a.94.94,0,0,0,.22-.12l.19-.16.19-.16.19-.15c.42-.34.83-.66,1.25-1s.86-.57,1.26-.84.81-.54,1.21-.76.79-.43,1.17-.61c.67,2.13,1,3.2,1.71,5.32-.76.6-1.14.9-1.89,1.52l-.91.33a.17.17,0,0,1,0-.15l-.09-.1,0-.07a.1.1,0,0,1,0-.11l-.06-.07-.06-.07a2,2,0,0,0-.89-.67,2.28,2.28,0,0,0-1.17,0c-.27.07-.52.14-.77.23a4.81,4.81,0,0,0-.81.38,6.23,6.23,0,0,0-.81,1.23,7.27,7.27,0,0,0-.5,1.4,3.18,3.18,0,0,0,0,1.68,4,4,0,0,0,.84,1.5l2.48,2.91A2,2,0,0,0,824.31,273.89Z" transform="translate(-620.51 -103.67)"/><path d="M842.52,262c.17-.5.38-1,.63-1.6a14.39,14.39,0,0,1,1-1.83,10.05,10.05,0,0,1,1.6-1.89,17.65,17.65,0,0,1,2.43-1.94l1.93-1.36.2-.13.29-.2.22-.09.25-.16c.69,2.07,1,3.1,1.75,5.16l-1.92,1.3c-.28,0-.57,0-.88.05a6.73,6.73,0,0,0-1,.16,3.06,3.06,0,0,0-.48.17l-.51.24A6.07,6.07,0,0,0,847,261.4a7.89,7.89,0,0,0-.62,1.94,4.76,4.76,0,0,0,.16,2.41,9.37,9.37,0,0,0,1.4,2.62l5.14,7.13a2.58,2.58,0,0,0,.73.72,1.38,1.38,0,0,0,.8.17,3.33,3.33,0,0,0,.81-.13,3.68,3.68,0,0,0,.75-.32l.1,0,.11,0,.13-.09.09-.06.09-.07.13-.09.37.51-1.78,1.27c-3.92,2.81-5.85,4.27-9.66,7.29l-.44-.57a3.58,3.58,0,0,0,.93-.76,2.92,2.92,0,0,0,.55-.92,1.81,1.81,0,0,0,.11-.94,1.94,1.94,0,0,0-.4-.88c-3.83-5-5.75-7.45-9.57-12.42a1.87,1.87,0,0,0-.87-.64,2.22,2.22,0,0,0-1.12-.1,5.8,5.8,0,0,0-1.2.39,6.39,6.39,0,0,0-1.1.62l-.12,0,0,0-.44-.56c2.44-2.32,3.68-3.46,6.19-5.69l1.91-1.41c.28.05.53.11.75.17a3.16,3.16,0,0,1,.58.25,3.61,3.61,0,0,1,.56.31,5.28,5.28,0,0,1,.44.36l0,.07,0,.07Z" transform="translate(-620.51 -103.67)"/><path d="M873.14,247.86l0-.18-.07-.12-.09-.16a3.66,3.66,0,0,0-3.16-2,6.82,6.82,0,0,0-1.59.13,7.93,7.93,0,0,0-1.69.55.35.35,0,0,0-.12.1l-.11.09-.12.09-.11.09a3.37,3.37,0,0,1-.37.29c-.12.1-.23.19-.31.27l-.36.31-.35.31a17.4,17.4,0,0,0-1.77,2,14.43,14.43,0,0,0-1.4,2.35,11.14,11.14,0,0,0-.93,2.49,9.48,9.48,0,0,0-.23,2.49l-2,1.19c-1.32-2.71-2-4.07-3.27-6.79l2-1.26a.82.82,0,0,0,.33.09h.29l.14,0H858a.16.16,0,0,0,.09,0,1.13,1.13,0,0,1,.19-.19c.07-.07.12-.12.13-.17.21-.27.44-.57.72-.89s.59-.67.92-1,.67-.68,1.08-1l1.34-1.19a21,21,0,0,1,1.7-1.32c.63-.44,1.33-.88,2.11-1.33l2-1.19a19.68,19.68,0,0,1,3.59-1.49,12.5,12.5,0,0,1,3.42-.53,5.53,5.53,0,0,1,2.8.54,4,4,0,0,1,1.73,1.77l5.68,11a6.3,6.3,0,0,0,.85,1.28,3.32,3.32,0,0,0,1,.76,4.26,4.26,0,0,0,1,.35,5.54,5.54,0,0,0,1,.1l.43,0a3.28,3.28,0,0,0,.41-.08l.39-.12a2.52,2.52,0,0,0,.33-.14l.28.57-1.92,1c-2.72,1.38-4.07,2.09-6.75,3.55h-.12l-.09-.05-.69-.37a5.1,5.1,0,0,1-.67-.43l-.15-.1a.4.4,0,0,1-.1-.12.31.31,0,0,1-.13-.08,1,1,0,0,0-.16-.12,8.06,8.06,0,0,1-.53,1.06,7.15,7.15,0,0,1-.73,1,13.57,13.57,0,0,1-1.7,1.92q-.93.87-1.95,1.68a4.46,4.46,0,0,1-.43.33l-.45.3-.26.15a.56.56,0,0,0-.18.16l-.26.15-.2.13-1.85,1.11a17.83,17.83,0,0,1-2.28,1.19,15.7,15.7,0,0,1-2.21.81,5.64,5.64,0,0,1-2,.19,4.2,4.2,0,0,1-1.65-.49,3.63,3.63,0,0,1-.71-.43c-.22-.16-.44-.31-.59-.44s-.32-.36-.47-.53a4.58,4.58,0,0,1-.41-.51,4.91,4.91,0,0,1-.71-3.58,10.85,10.85,0,0,1,2.06-4.46,46,46,0,0,1,4.35-5.19,71.08,71.08,0,0,1,6.07-5.57l0-.08Zm1.38,2.37c-.87.83-1.64,1.62-2.32,2.37a21.87,21.87,0,0,0-1.78,2.25,16.5,16.5,0,0,0-1.51,2.72,7.83,7.83,0,0,0-.65,2.28,2.88,2.88,0,0,0,0,.65,3.66,3.66,0,0,0,.07.59,3.47,3.47,0,0,0,.12.53,2.55,2.55,0,0,0,.2.44,2.64,2.64,0,0,0,.32.41,3.89,3.89,0,0,0,.39.32,3,3,0,0,0,.49.28,4.09,4.09,0,0,0,.56.18,3.65,3.65,0,0,0,1,.09,7.38,7.38,0,0,0,1-.11,3.8,3.8,0,0,0,.51-.15l.49-.19a.45.45,0,0,0,.15-.11,1.12,1.12,0,0,0,.13-.16l.09-.07a.3.3,0,0,1,.08-.08,7.43,7.43,0,0,0,1.56-2,10.48,10.48,0,0,0,1-2.65,7.71,7.71,0,0,0,0-3.21A12.07,12.07,0,0,0,875,251.1l-.17-.29-.16-.3-.08-.14-.05-.1Z" transform="translate(-620.51 -103.67)"/><path d="M917.65,240.27a4.59,4.59,0,0,0,.71,1.35,2.64,2.64,0,0,0,.95.73,2.71,2.71,0,0,0,1.11.24,3.82,3.82,0,0,0,1.16-.22l.21.59-2,.71c-5.7,2-8.52,3.11-14.11,5.47a23.62,23.62,0,0,1-6.23,1.78,12.57,12.57,0,0,1-5.43-.42,14.34,14.34,0,0,1-4.33-2.12,9,9,0,0,1-2.75-3.26,8.24,8.24,0,0,1-.86-4.17,12.69,12.69,0,0,1,1.29-4.79,13.79,13.79,0,0,1,4-4.79,28.73,28.73,0,0,1,7-4l2.13-.92,1.23-.42c.42-.15.85-.3,1.29-.44l.25-.1a.8.8,0,0,1,.26-.05l-1-2.55a4.75,4.75,0,0,0-1-1.61,1.93,1.93,0,0,0-1.21-.64,6.89,6.89,0,0,0-1.28,0,5.39,5.39,0,0,0-1.3.36c-.11-.29-.17-.43-.29-.71,3.41-2,5.14-3,8.62-4.88l2.24-.82Zm-12.28-10.16a2.18,2.18,0,0,0-.76-1,2.53,2.53,0,0,0-1.3-.46,6.85,6.85,0,0,0-1.11,0,8,8,0,0,0-1.27.23.22.22,0,0,1-.09.08l-.16.07c-.13.08-.25.16-.37.22a3,3,0,0,0-.32.21l-.37.25-.36.24a11,11,0,0,0-2.13,2,15.82,15.82,0,0,0-1.66,2.41,6.52,6.52,0,0,0-.86,2.62,6.83,6.83,0,0,0,.32,2.69,3.8,3.8,0,0,0,.14.51,2.87,2.87,0,0,0,.17.44l.18.41c.06.14.13.27.19.41a9.55,9.55,0,0,0,2,3.08,5.75,5.75,0,0,0,2.67,1.55,14.89,14.89,0,0,0,3,.43,12.9,12.9,0,0,0,2.9-.19l.66-.11a6.77,6.77,0,0,0,.69-.16l.63-.16a5.62,5.62,0,0,0,.62-.2l.7-.2.63-.23a.2.2,0,0,0,.08-.08l.08,0,.07,0,.28-.11.22-.09.1,0,.1,0,.15-.06,0-.08Z" transform="translate(-620.51 -103.67)"/><path d="M934.05,235.73a4.63,4.63,0,0,0,.51,1.17,1.62,1.62,0,0,0,.73.58,2.23,2.23,0,0,0,1,.15,5.86,5.86,0,0,0,1.35-.23c.06.24.1.36.17.61l-2,.57c-4.5,1.28-6.75,2-11.2,3.46l-.23-.68a3.51,3.51,0,0,0,1.91-1,1.46,1.46,0,0,0,.39-.88,3.4,3.4,0,0,0-.21-1.31c-1.85-5.7-2.78-8.55-4.64-14.25a3.18,3.18,0,0,0-.54-1,3.78,3.78,0,0,0-.82-.78,2.31,2.31,0,0,0-1.18-.37,3.9,3.9,0,0,0-1.46.25c-.1-.31-.16-.46-.26-.77,3.53-1.48,5.31-2.2,8.9-3.56l2.21-.65C930.77,224.51,931.86,228.25,934.05,235.73Zm-13.26-25.26.26-.36a2.69,2.69,0,0,1,.32-.38l.28-.3a2.18,2.18,0,0,1,.29-.26,3.55,3.55,0,0,1,.31-.23,3.21,3.21,0,0,0,.31-.19,3,3,0,0,1,.27-.15,2.19,2.19,0,0,1,.33-.12l2.28-.72a3.77,3.77,0,0,1,1.09-.08,2.88,2.88,0,0,1,1,.28,3.52,3.52,0,0,1,.86.55,2.78,2.78,0,0,1,.61.72l.06.21.12.21a1.62,1.62,0,0,1,.07.56,2.05,2.05,0,0,1-.13.53,2.32,2.32,0,0,1-.29.5,1.65,1.65,0,0,1-.43.4c-3.06,2-4.57,3-7.54,5.12l-2.21.71-1.23-.73C918.74,214.22,919.41,213,920.79,210.47Z" transform="translate(-620.51 -103.67)"/><path d="M956,218l0-.18,0-.14,0-.17a4,4,0,0,0-.81-1.8,3.85,3.85,0,0,0-1.54-1.1,6.35,6.35,0,0,0-1.53-.38,7.22,7.22,0,0,0-1.74,0,.48.48,0,0,0-.14.05.55.55,0,0,1-.13.05l-.14,0a.31.31,0,0,1-.13.05,3.89,3.89,0,0,1-.44.16l-.37.15-.43.18-.42.19a16.44,16.44,0,0,0-2.26,1.35,14.38,14.38,0,0,0-2,1.78,11.39,11.39,0,0,0-1.62,2,9.61,9.61,0,0,0-1,2.27l-2.18.5c-.4-3-.6-4.47-1-7.45.89-.23,1.34-.34,2.23-.55a.69.69,0,0,0,.28.18l.26.1.13.06.1,0a.14.14,0,0,0,.09,0,1.71,1.71,0,0,1,.23-.13.37.37,0,0,0,.18-.11c.27-.19.58-.39.94-.62s.76-.44,1.17-.66.82-.43,1.32-.65l1.61-.7a19.07,19.07,0,0,1,2-.71c.72-.21,1.51-.41,2.38-.58l2.24-.49a18.71,18.71,0,0,1,3.81-.28,13,13,0,0,1,3.36.57,5.69,5.69,0,0,1,2.46,1.4,4.15,4.15,0,0,1,1.08,2.22c.79,4.87,1.18,7.3,2,12.17a6.14,6.14,0,0,0,.41,1.48,3.24,3.24,0,0,0,.7,1,4.16,4.16,0,0,0,.83.65,5.5,5.5,0,0,0,.9.4,4,4,0,0,0,.41.1,1.84,1.84,0,0,0,.41.05,2.87,2.87,0,0,0,.41,0l.34,0,.09.62-2.09.31c-3,.45-4.44.7-7.4,1.24l-.11,0-.07-.08-.53-.56a5.9,5.9,0,0,1-.5-.62l-.11-.14a.53.53,0,0,1-.05-.15.2.2,0,0,1-.1-.12.83.83,0,0,0-.12-.16,6.36,6.36,0,0,1-.81.84,8,8,0,0,1-1,.74,13.71,13.71,0,0,1-2.17,1.28c-.76.36-1.54.68-2.34,1a4.24,4.24,0,0,1-.5.18L952,235l-.29.06a.74.74,0,0,0-.22.1l-.28.06-.23.05-2.06.47a17.85,17.85,0,0,1-2.49.4,14.93,14.93,0,0,1-2.3.05,5.38,5.38,0,0,1-2-.48,4.09,4.09,0,0,1-1.39-1,4.43,4.43,0,0,1-.53-.63c-.15-.23-.32-.44-.41-.62s-.2-.44-.29-.64a5.79,5.79,0,0,1-.22-.62,5,5,0,0,1,.42-3.6,10.62,10.62,0,0,1,3.26-3.56,45.71,45.71,0,0,1,5.64-3.51A68.78,68.78,0,0,1,956,218.2l0-.08Zm.57,2.69c-1.07.51-2,1-2.89,1.5a21.17,21.17,0,0,0-2.34,1.57,15.87,15.87,0,0,0-2.24,2.09,7.88,7.88,0,0,0-1.29,1.95,2.65,2.65,0,0,0-.22.61c0,.19-.09.39-.12.58a3.44,3.44,0,0,0,0,.54,1.78,1.78,0,0,0,.06.47,2,2,0,0,0,.17.49,2.48,2.48,0,0,0,.26.42,3.08,3.08,0,0,0,.38.43,4.27,4.27,0,0,0,.46.35,3.51,3.51,0,0,0,.86.38,5.36,5.36,0,0,0,1,.22,3.32,3.32,0,0,0,.53,0l.51,0,.18-.06.17-.11.1,0a.19.19,0,0,1,.1,0,7.41,7.41,0,0,0,2.07-1.42,10.64,10.64,0,0,0,1.72-2.21,7.62,7.62,0,0,0,1-3,12.3,12.3,0,0,0-.19-3.72l-.06-.33-.07-.33,0-.16,0-.11Z" transform="translate(-620.51 -103.67)"/><path d="M1018.43,207.34l-.93.28-2.27-.05a7.87,7.87,0,0,0-1.41-2.42,8.24,8.24,0,0,0-2.31-1.83,18.73,18.73,0,0,0-2.83-1.27,15.91,15.91,0,0,0-3-.7l-.35-.07-.35,0-.41-.06a2,2,0,0,0-.35,0h-.29a14.6,14.6,0,0,0-1.48.19,10.43,10.43,0,0,0-1.36.32,7.86,7.86,0,0,0-1.55.65,3.81,3.81,0,0,0-1,.82,1.32,1.32,0,0,0-.33.4,4.09,4.09,0,0,0-.22.39,3.1,3.1,0,0,0-.1.36,1.12,1.12,0,0,0-.05.36,1.82,1.82,0,0,0,.86,1.41,7,7,0,0,0,2.43,1c1.09.29,2.26.54,3.44.81s2.41.52,3.7.76l1.27.27c.43.09.88.17,1.27.27s.83.24,1.24.33l1.19.29a15.61,15.61,0,0,1,3.74,1.38,17.67,17.67,0,0,1,2.36,1.61,10,10,0,0,1,1.71,1.83,6.61,6.61,0,0,1,1,2,6.08,6.08,0,0,1,.26,2.06,6.42,6.42,0,0,1-.2,1.28,6.62,6.62,0,0,1-.47,1.26,5.21,5.21,0,0,1-.3.64,6.81,6.81,0,0,1-.41.63l-.46.66c-.15.2-.32.42-.51.65l-.14.18-.14.13a.55.55,0,0,0-.17.17.55.55,0,0,1-.17.17l-.33.33-.33.28A18,18,0,0,1,1016,227a14,14,0,0,1-2.91,1.27,23.1,23.1,0,0,1-3,.66,21.89,21.89,0,0,1-3.13.25l-2.1,0c-.6,0-1.2,0-1.79,0s-1.21-.1-1.8-.16c-.27,0-.57-.06-.87-.11s-.6-.09-.87-.15-.63-.14-.93-.19a7.58,7.58,0,0,1-.88-.19h-.11s-.05,0-.05,0h-.22l-.32-.12a.39.39,0,0,1-.21,0l-.16,0a.51.51,0,0,1-.18,0,.59.59,0,0,0-.19,0l-.13,0-.13,0a.29.29,0,0,1-.13.08l-.13,0a1.39,1.39,0,0,0-.51.29,1.86,1.86,0,0,0-.35.47l-2.1.12c-1.45-4.6-2.19-6.9-3.74-11.48l.8-.42,2.2-.14c.06.27.12.53.19.78a4.11,4.11,0,0,0,.29.73,6.37,6.37,0,0,0,.42.69l.48.7a12.56,12.56,0,0,0,2.11,2.32,18.72,18.72,0,0,0,3,2.08,13.59,13.59,0,0,0,3.14,1.32,14.47,14.47,0,0,0,3.63.53,5.39,5.39,0,0,0,.88-.07l.88-.12c.48-.08,1-.21,1.54-.35a16.45,16.45,0,0,0,1.6-.51,6.18,6.18,0,0,0,1.47-.75,5.82,5.82,0,0,0,1.23-1.2,6.51,6.51,0,0,0,.78-1.47,5.48,5.48,0,0,0,.35-1.57,3.85,3.85,0,0,0-.24-1.49,5.29,5.29,0,0,0-.8-1.41,5,5,0,0,0-1.42-1.19,8.47,8.47,0,0,0-2.15-.82l-1-.27-1-.27a2.44,2.44,0,0,0-.5-.13,3.57,3.57,0,0,1-.5-.13c-.17,0-.37-.06-.53-.11l-.53-.1-.23-.07-.22-.06-.22,0-.22-.07-.42-.08-.37-.08q-2.56-.59-4.91-1.22c-1.57-.43-3.08-.88-4.53-1.38a8.1,8.1,0,0,1-3.27-2,4.47,4.47,0,0,1-1.28-2.87l0-.45a1.71,1.71,0,0,1,0-.45c0-.15.07-.31.11-.48a3.12,3.12,0,0,0,.11-.53,5.52,5.52,0,0,1,1.58-2.55,9.82,9.82,0,0,1,3-1.85,21.92,21.92,0,0,1,4-1.18,25.06,25.06,0,0,1,4.3-.45l2.35-.09a5.63,5.63,0,0,0,.71,0c.23,0,.5,0,.76,0s.47,0,.71,0l.7.06c.45,0,.94.08,1.41.14s.94.13,1.41.23l.35,0a.19.19,0,0,0,.11,0h.12s0,0,.06,0h.12l.2,0a.66.66,0,0,0,.21,0,.39.39,0,0,0,.17.07l.18,0,.32-.06a1.43,1.43,0,0,0,.26-.06,1.69,1.69,0,0,0,.62-.29,1.59,1.59,0,0,0,.45-.51v-.09l2.35,0C1017.23,202,1017.64,203.77,1018.43,207.34Z" transform="translate(-620.51 -103.67)"/><path d="M1045.38,215.4l.08-.17,0-.14,0-.17a4,4,0,0,0-.2-2,3.68,3.68,0,0,0-1.11-1.52,6,6,0,0,0-1.33-.84,7.45,7.45,0,0,0-1.65-.56h-.57l-.46,0a2.55,2.55,0,0,0-.41,0l-.46,0-.46,0a17.12,17.12,0,0,0-2.56.58,14.79,14.79,0,0,0-2.49,1.06,11.6,11.6,0,0,0-2.18,1.44,9.63,9.63,0,0,0-1.63,1.86c-.88-.09-1.33-.13-2.21-.2.56-3,.84-4.44,1.42-7.39l2.28.17a.84.84,0,0,0,.21.26l.21.18.11.1.08.07a.1.1,0,0,0,.08,0l.26,0a.36.36,0,0,0,.21-.05c.31-.09.67-.19,1.08-.29s.86-.18,1.32-.27.91-.14,1.45-.2l1.75-.17a18.12,18.12,0,0,1,2.11,0q1.13,0,2.43.18l2.29.23a19.53,19.53,0,0,1,3.69.92,12.62,12.62,0,0,1,3,1.6,5.6,5.6,0,0,1,1.89,2.09,4.15,4.15,0,0,1,.32,2.44c-.8,4.87-1.2,7.3-2,12.17a6,6,0,0,0-.09,1.53,3.46,3.46,0,0,0,.34,1.2,4.16,4.16,0,0,0,.59.87,5.06,5.06,0,0,0,.72.67l.36.22.37.18.38.13a2.37,2.37,0,0,0,.34.08c0,.25-.07.37-.11.62l-2.08-.35c-3-.5-4.45-.72-7.42-1.13l-.1-.06,0-.1-.33-.7a5.51,5.51,0,0,1-.27-.74.88.88,0,0,1-.06-.17.43.43,0,0,1,0-.16.26.26,0,0,1-.06-.14.6.6,0,0,0-.06-.19,6.76,6.76,0,0,1-1,.54,7,7,0,0,1-1.17.39,12.73,12.73,0,0,1-2.47.55c-.82.09-1.66.16-2.51.19h-.53a4.58,4.58,0,0,1-.53,0l-.29,0a.62.62,0,0,0-.24,0l-.29,0-.23,0c-.84-.09-1.26-.13-2.1-.2a16.91,16.91,0,0,1-2.48-.4,15.69,15.69,0,0,1-2.19-.66,5.61,5.61,0,0,1-1.7-1.07,4.12,4.12,0,0,1-1-1.37,3.62,3.62,0,0,1-.3-.77,7.25,7.25,0,0,1-.2-.71c0-.21,0-.47-.06-.7a3.56,3.56,0,0,1,0-.65,5,5,0,0,1,1.54-3.29,10.41,10.41,0,0,1,4.21-2.35,44.92,44.92,0,0,1,6.44-1.59,68.41,68.41,0,0,1,8-.88v-.22Zm-.3,2.73c-1.18.15-2.25.32-3.22.52a22.36,22.36,0,0,0-2.72.76,16.85,16.85,0,0,0-2.78,1.29,7.76,7.76,0,0,0-1.84,1.45,3,3,0,0,0-.4.5c-.11.17-.2.35-.29.52a2.32,2.32,0,0,0-.3,1.48,2,2,0,0,0,.12.49,2,2,0,0,0,.22.52,3.43,3.43,0,0,0,.33.48,3.5,3.5,0,0,0,.69.63,6,6,0,0,0,.85.51c.18.08.34.14.49.19l.5.14h.19l.19-.05h.11a.17.17,0,0,1,.1,0,7.24,7.24,0,0,0,2.42-.71,10.49,10.49,0,0,0,2.32-1.56,7.63,7.63,0,0,0,1.89-2.57,12.22,12.22,0,0,0,1-3.59c0-.12,0-.23,0-.34s0-.21,0-.33l0-.16v-.15Z" transform="translate(-620.51 -103.67)"/><path d="M1086.13,223.24l-1,.1-2.16-.6a3.47,3.47,0,0,0-.47-1.92,8.29,8.29,0,0,0-1.68-2,11.22,11.22,0,0,0-2.09-1.55,9.57,9.57,0,0,0-2.45-1.12,7.8,7.8,0,0,0-2.59,0,10.82,10.82,0,0,0-2.54.66,5.44,5.44,0,0,0-2.52,2.1,10.93,10.93,0,0,0-1.49,3.8l0,.22v.23l-.06.26,0,.22a8.37,8.37,0,0,0,.18,3.68,8.85,8.85,0,0,0,1.78,3.25,15,15,0,0,0,2.75,2.61,10.4,10.4,0,0,0,3.21,1.7,8,8,0,0,0,1.87.11,10.29,10.29,0,0,0,1.92-.24,7.39,7.39,0,0,0,2.33-1,10.42,10.42,0,0,0,2.07-1.76l2.11.56.69.53c-2,2.39-2.93,3.59-4.83,6l-2-.57-.66-.41-.15,0a.22.22,0,0,0-.16,0l-.18-.05-.18-.05-1.12-.22-1.1-.27-2-.52a33.75,33.75,0,0,1-6.42-2.24,16,16,0,0,1-4.58-3.21,12.24,12.24,0,0,1-3.61-9.13,2.23,2.23,0,0,1,0-.37c0-.12,0-.24,0-.35l0-.18,0-.22,0-.18,0-.18a10.3,10.3,0,0,1,1.51-3.79,11.12,11.12,0,0,1,3-3.05,10.1,10.1,0,0,1,4.4-1.73,15,15,0,0,1,5.49.32l2.25.48.34.08a.17.17,0,0,0,.1.07l.11,0,.17,0,.34.08a.17.17,0,0,0,.1.07l.11,0,.17,0,2.45.76q1.07.34,1.83.63l.32.11.28.09a2.09,2.09,0,0,1,.3.11,1.35,1.35,0,0,0,.24.08.25.25,0,0,0,.12,0h.29a1.87,1.87,0,0,0,.34,0,1.38,1.38,0,0,0,.29-.08l.28-.16a.26.26,0,0,0,.16,0,.54.54,0,0,1,.22-.05l0-.09,2.23.61C1086.36,218.64,1086.29,220.18,1086.13,223.24Z" transform="translate(-620.51 -103.67)"/><path d="M1097.85,237a10.68,10.68,0,0,0,1.53,3.23,13.86,13.86,0,0,0,2,2.29,9.09,9.09,0,0,0,2.32,1.66,7.11,7.11,0,0,0,2.3.38,11.63,11.63,0,0,0,2.35-.17,9.84,9.84,0,0,0,2.89-.92,11.23,11.23,0,0,0,2.66-1.82l2,.81.69.64c-2.36,2.38-3.52,3.58-5.81,6l-2-.81-.08-.09-.45-.08c-.16,0-.33-.05-.46-.09s-.27-.1-.43-.13l-.46-.08-1.61-.47q-.79-.24-1.59-.54l-2-.76-.1,0-.1,0a29.05,29.05,0,0,1-5-2.52,24.32,24.32,0,0,1-4.31-3.46,12.09,12.09,0,0,1-2.79-4.39,11,11,0,0,1-.53-5.15,3,3,0,0,1,0-.44,2,2,0,0,1,.09-.37l.05-.17.07-.22,0-.17,0-.17a8.57,8.57,0,0,1,2.39-4,10.09,10.09,0,0,1,4.33-2.32,18.71,18.71,0,0,1,5.4-.61,19.68,19.68,0,0,1,5.41,1l2.19.75.27.1.32.13a19.12,19.12,0,0,1,3.78,2,16.6,16.6,0,0,1,3.14,2.78,10.55,10.55,0,0,1,2.07,3.46,10,10,0,0,1,.53,4c-8.79-1.62-13.17-2.24-21.87-3.11A16.38,16.38,0,0,0,1097.85,237Zm12.93-5.1a7.19,7.19,0,0,0-.36-2.2,6.68,6.68,0,0,0-1-1.91,7.34,7.34,0,0,0-1.17-1.25,9.3,9.3,0,0,0-1.42-1,7.76,7.76,0,0,0-2.22-.17,8.33,8.33,0,0,0-2.31.47,6,6,0,0,0-2.51,1.61,7.66,7.66,0,0,0-1.57,2.75l-.06.17,0,0C1103.16,230.91,1105.7,231.19,1110.78,231.9Z" transform="translate(-620.51 -103.67)"/><path d="M1134.68,237.64c.51-.08,1.08-.15,1.68-.19a13.9,13.9,0,0,1,2.05,0,10,10,0,0,1,2.39.52,17.73,17.73,0,0,1,2.81,1.22l2.08,1.07.21.11.31.17.18.15.26.14c-1.51,1.58-2.26,2.37-3.76,4-.8-.44-1.21-.65-2-1.08-.13-.24-.28-.49-.44-.75a6.66,6.66,0,0,0-.58-.76,2.49,2.49,0,0,0-.37-.35l-.44-.33a5.65,5.65,0,0,0-1.82-.22,7.88,7.88,0,0,0-2,.35,4.75,4.75,0,0,0-2,1.28,9.6,9.6,0,0,0-1.67,2.46l-3.93,7.86a2.61,2.61,0,0,0-.31,1,1.45,1.45,0,0,0,.21.78,3.26,3.26,0,0,0,.49.65,3.65,3.65,0,0,0,.62.51.18.18,0,0,1,.08.07.31.31,0,0,0,.09.07l.14.07.1.05.09.05.15.07c-.12.22-.18.34-.29.56l-1.92-1c-4.24-2.12-6.38-3.12-10.7-5l.3-.66a3.54,3.54,0,0,0,1.08.46,2.84,2.84,0,0,0,1,.05,1.78,1.78,0,0,0,.87-.35,1.87,1.87,0,0,0,.59-.77c2.63-5.69,4-8.53,6.58-14.23a1.88,1.88,0,0,0,.17-1.06,2.2,2.2,0,0,0-.41-1,6,6,0,0,0-.87-.87,6.34,6.34,0,0,0-1-.68l-.08-.08-.06,0,.3-.65c3.1,1.05,4.64,1.6,7.72,2.76l2.1,1a7.13,7.13,0,0,1,.18.74,3.52,3.52,0,0,1,.05.62,4.23,4.23,0,0,1,0,.64,4.86,4.86,0,0,1-.11.55l0,.08,0,.08Z" transform="translate(-620.51 -103.67)"/><path d="M1163.61,273.55a4.59,4.59,0,0,0-.69,1.36,2.5,2.5,0,0,0-.06,1.21,2.76,2.76,0,0,0,.46,1.05,4.18,4.18,0,0,0,.87.86l-.37.51-1.77-1.28c-5-3.62-7.6-5.34-12.8-8.62a24.48,24.48,0,0,1-5.1-4.13,12.65,12.65,0,0,1-2.79-4.71,14.4,14.4,0,0,1-.75-4.76,9,9,0,0,1,1.12-4.12,8.19,8.19,0,0,1,2.94-3.08,12.76,12.76,0,0,1,4.71-1.67,14,14,0,0,1,6.24.52,29.32,29.32,0,0,1,7.41,3.53l2,1.24c.34.27.7.53,1.07.79s.74.53,1.12.82l.22.15a.7.7,0,0,1,.2.18c.61-.91.91-1.37,1.53-2.28a5,5,0,0,0,.77-1.71,1.94,1.94,0,0,0-.17-1.36,6.48,6.48,0,0,0-.8-1,5.44,5.44,0,0,0-1-.88l.42-.64c3.66,1.69,5.48,2.57,9.1,4.4l2,1.41C1173.11,260.21,1170,264.66,1163.61,273.55Zm1.23-15.95a2.26,2.26,0,0,0,.39-1.21,2.58,2.58,0,0,0-.38-1.33,6.82,6.82,0,0,0-.65-.92,7.37,7.37,0,0,0-.93-.92.21.21,0,0,1-.12,0l-.15-.1-.41-.18-.35-.15-.42-.16-.42-.16a11.79,11.79,0,0,0-2.85-.66,16.26,16.26,0,0,0-3,0,6.32,6.32,0,0,0-4.71,2.58,4,4,0,0,0-.34.4,4.56,4.56,0,0,0-.27.39l-.23.39c-.08.12-.15.26-.23.38a9.67,9.67,0,0,0-1.39,3.4,5.77,5.77,0,0,0,.26,3.08,15.89,15.89,0,0,0,1.37,2.7,13,13,0,0,0,1.86,2.29c.15.17.31.33.47.49l.53.48.51.43a6.41,6.41,0,0,0,.52.39l.58.47.56.39a.16.16,0,0,0,.12,0l.06.05.07.05.25.16.21.14.09.06.09.06.14.09.05-.07Z" transform="translate(-620.51 -103.67)"/><path d="M1177.09,268.17a10.62,10.62,0,0,1,5.21-.58,20.11,20.11,0,0,1,10.45,4.49c.75.6,1.12.91,1.86,1.52l.19.16.22.2a21.46,21.46,0,0,1,3.82,4.41,19.75,19.75,0,0,1,2.38,5.15,10,10,0,0,1,.23,5.24,10.19,10.19,0,0,1-2.57,4.65l0,0,0,0-.07.06-.06.07a11.05,11.05,0,0,1-4.5,2.95,10.16,10.16,0,0,1-5.13.25,20,20,0,0,1-5.18-1.78,23.13,23.13,0,0,1-4.53-3.06c-.66-.58-1-.86-1.67-1.43l-.13-.11-.12-.11a23.22,23.22,0,0,1-3.72-4.06,19.48,19.48,0,0,1-2.49-4.85,10.29,10.29,0,0,1-.52-5.19,11.53,11.53,0,0,1,2.23-5l.06-.07A10.28,10.28,0,0,1,1177.09,268.17Zm17.11,15.3a6.71,6.71,0,0,0,.09-3.39,12.29,12.29,0,0,0-1-2.81,9.82,9.82,0,0,0-1.61-2.37,10.56,10.56,0,0,0-5.2-1.7,6.08,6.08,0,0,0-3.19.63,8.51,8.51,0,0,0-2.7,2.31l-.21.26-.18.23-.09.11-.08.1a.41.41,0,0,0-.08.14.29.29,0,0,1-.08.14,14.59,14.59,0,0,0-1.81,4,8.19,8.19,0,0,0-.23,3.53,11.32,11.32,0,0,0,.76,2.45,5.49,5.49,0,0,0,1.29,2,7.45,7.45,0,0,0,2.47,1.18,10.68,10.68,0,0,0,2.84.46,7.86,7.86,0,0,0,3.44-.59,8.23,8.23,0,0,0,2.86-2.11l.12-.14.12-.13a.3.3,0,0,1,.08-.17l.12-.14.12-.13.15-.17a.3.3,0,0,1,.08-.17l.12-.14.06-.06A10,10,0,0,0,1194.2,283.47Z" transform="translate(-620.51 -103.67)"/><path d="M1219.08,299.46a.33.33,0,0,0,.05.12.23.23,0,0,0,.12.06l.12.14.91.67a8.89,8.89,0,0,0,1.16.7l1.66,1.82c-1.71.18-2.56.28-4.25.48-.64-.73-1-1.09-1.62-1.81,0-.13-.07-.26-.11-.39s-.07-.24-.1-.32a1.94,1.94,0,0,0-.15-.36c-.06-.11-.12-.23-.18-.33a6,6,0,0,0-.44-.59c-.15-.19-.31-.37-.48-.55-.36-.43-.54-.64-.91-1.06l-9.27,8.68a7.1,7.1,0,0,0-1.44,1.79,3,3,0,0,0-.4,1.66,4.9,4.9,0,0,0,.19,1,3.56,3.56,0,0,0,.38.89,8,8,0,0,0,.85.58c.3.17.59.33.89.47a6.92,6.92,0,0,0,1.21.38,2.81,2.81,0,0,0,1,.06l1.55,1.71c.15.34.22.5.36.84-1.77.34-2.65.52-4.41.89-.54-.39-1-.77-1.49-1.15s-.88-.74-1.28-1.1l-1.14-1c-.36-.34-.68-.65-1-1l-1.54-1.65a12.2,12.2,0,0,1-2.2-3.08,4.46,4.46,0,0,1-.44-2.68,7.18,7.18,0,0,1,.94-2.45,12.79,12.79,0,0,1,1.89-2.38l9.08-9.07c-1.07-1.08-1.61-1.61-2.69-2.68.2-.2.3-.31.51-.51a5.66,5.66,0,0,0,1.94,1.13,4.6,4.6,0,0,0,1.94.19,7.12,7.12,0,0,0,1.82-.43,5.34,5.34,0,0,0,1.5-.88l.22-.22.1-.1.09-.1.07-.06.06-.06.1-.1.06-.06.07-.06a.12.12,0,0,1,0-.11l.06-.06.13-.13.13-.13a.16.16,0,0,1,0-.14l.13-.12a1.8,1.8,0,0,1,.17-.31q.09-.13.18-.3c2.26,1,3.39,1.58,5.66,2.69l1.72,1.84-6.21,5.82C1217.5,297.71,1218,298.29,1219.08,299.46Z" transform="translate(-620.51 -103.67)"/><path d="M1233.17,326.71l.18,0,.11-.08.14-.11a3.71,3.71,0,0,0,1.25-1.53,3.94,3.94,0,0,0,.26-2,7.34,7.34,0,0,0-.39-1.66,8.94,8.94,0,0,0-.83-1.71.65.65,0,0,0-.12-.11l-.11-.11a.38.38,0,0,0-.11-.11.57.57,0,0,1-.11-.12,4,4,0,0,1-.36-.35,2.28,2.28,0,0,0-.32-.31l-.37-.34-.37-.34a20.66,20.66,0,0,0-2.33-1.64,15.88,15.88,0,0,0-2.61-1.23,12,12,0,0,0-2.66-.72,9.81,9.81,0,0,0-2.54,0l-1.51-1.89,6.34-4.06,1.58,1.92a.74.74,0,0,0,0,.35l0,.29c0,.06,0,.11,0,.16v.11a.12.12,0,0,0,0,.09,1.09,1.09,0,0,1,.22.17.53.53,0,0,0,.19.13q.45.27,1,.66c.38.25.77.54,1.17.85s.79.62,1.24,1l1.42,1.27c.53.49,1.06,1,1.61,1.66s1.1,1.31,1.68,2.08.93,1.2,1.54,2a23.55,23.55,0,0,1,2.11,3.64,15.07,15.07,0,0,1,1.1,3.58,6,6,0,0,1-.08,3,3.86,3.86,0,0,1-1.5,2l-10.19,6.95a6,6,0,0,0-1.16,1,3.33,3.33,0,0,0-.6,1.13,4.6,4.6,0,0,0-.18,1.09,6.28,6.28,0,0,0,.06,1.07c0,.16.07.32.11.46a4.43,4.43,0,0,0,.15.43c.06.15.13.29.19.41s.13.23.19.33l-.52.35-1.3-2c-1.86-2.79-2.81-4.16-4.74-6.86l0-.13,0-.1.26-.76a6.11,6.11,0,0,1,.32-.74.79.79,0,0,1,.08-.16.25.25,0,0,1,.11-.12.24.24,0,0,1,.06-.15l.09-.18a7.35,7.35,0,0,1-1.16-.46,7.92,7.92,0,0,1-1.16-.67,15.63,15.63,0,0,1-2.23-1.61c-.69-.59-1.36-1.22-2-1.88l-.4-.42a5.07,5.07,0,0,1-.37-.44l-.2-.26a.75.75,0,0,0-.19-.17l-.2-.25-.16-.21c-.56-.73-.85-1.09-1.42-1.81a22.76,22.76,0,0,1-1.56-2.24,17.48,17.48,0,0,1-1.16-2.21,5.86,5.86,0,0,1-.51-2.08,4.25,4.25,0,0,1,.23-1.75,3.8,3.8,0,0,1,.33-.77c.13-.24.24-.49.36-.66s.31-.36.45-.54a4.11,4.11,0,0,1,.46-.47,4.74,4.74,0,0,1,3.49-1.09,11.25,11.25,0,0,1,4.83,1.66,51.39,51.39,0,0,1,5.94,4,77.6,77.6,0,0,1,6.63,5.85l.07-.06Zm-2.18,1.67c-1-.84-1.91-1.58-2.78-2.22a23.13,23.13,0,0,0-2.57-1.66,18,18,0,0,0-3-1.31,7.87,7.87,0,0,0-2.41-.45,2.82,2.82,0,0,0-.66,0l-.58.13a3.16,3.16,0,0,0-.52.18,2.5,2.5,0,0,0-.4.25,2.59,2.59,0,0,0-.37.37,2.21,2.21,0,0,0-.26.44,3.18,3.18,0,0,0-.21.54,4.77,4.77,0,0,0-.09.6,4.24,4.24,0,0,0,.06,1,6.75,6.75,0,0,0,.27,1.05,5,5,0,0,0,.24.52l.26.49.15.15a.83.83,0,0,0,.17.12l.09.08a.24.24,0,0,1,.09.08,8.62,8.62,0,0,0,2.31,1.44,11.55,11.55,0,0,0,2.85.78,7.72,7.72,0,0,0,3.25-.29,11.18,11.18,0,0,0,3.31-1.72l.27-.2.27-.2.13-.09.09-.07Z" transform="translate(-620.51 -103.67)"/><path d="M1260.52,340.18c.54.92.82,1.38,1.36,2.31l-23.51,13.8a3.51,3.51,0,0,0-1.08.92,1.6,1.6,0,0,0-.32,1,6.21,6.21,0,0,0,.13,1.12,6.87,6.87,0,0,0,.39,1.23l.06.11-.58.33c-.48-.84-.72-1.25-1.21-2.09-2.67-4.59-4-6.84-6.9-11.24l.6-.39,1.29,2v.08l-1.28-2,.07,0a5.89,5.89,0,0,0,.86.93,6.37,6.37,0,0,0,.93.61,1.69,1.69,0,0,0,1,.21,3.23,3.23,0,0,0,1.25-.51l19.52-12.39a1.55,1.55,0,0,0,.68-.82,2.47,2.47,0,0,0,.14-1.17,6.77,6.77,0,0,0-.35-1.34,8.46,8.46,0,0,0-.58-1.27l0-.14,0-.05.6-.4C1256.37,334.59,1257.77,336.43,1260.52,340.18Z" transform="translate(-620.51 -103.67)"/></g><path class="cls-6" d="M1038.31,334.78c2.06-1.67,4.07-3.38,6-5.15a47,47,0,0,1-7,6.85C1037.66,335.92,1038,335.35,1038.31,334.78Z" transform="translate(-620.51 -103.67)"/><path class="cls-6" d="M1053.41,304.19c-1.56-1.06-4.26-.51-6.21.38a65.32,65.32,0,0,0-7.28,3.91,70,70,0,0,0-20.85,19.68q0-13.89,0-27.78v-23l.27.46.38-33.29c2.76,4.48,5.67,9.18,7.5,15,2.26,7.15,2.92,16-.26,28.24-2.08,8,3.68-12.78,14.33-24.52,4.28-4.73,9.35-8,15-7.34a54.85,54.85,0,0,0-5.46,10.38C1045.32,280.85,1052.23,289,1053.41,304.19Z" transform="translate(-620.51 -103.67)"/><path class="cls-6" d="M1044.37,329.6a47,47,0,0,0,9.07-17.08q-.18,2.6-.63,5.49a29.84,29.84,0,0,1-1.14,4.69C1049.3,325.09,1046.87,327.38,1044.37,329.6Z" transform="translate(-620.51 -103.67)"/><path class="cls-7" d="M1039.92,308.48a70,70,0,0,0-20.85,19.68q0-13.89,0-27.78v-23l.27.46c3.65,6.39,6.55,14.13,3.08,27.53-2.09,8.06,6.88-24.53,21.09-22.9C1035.81,294.27,1038,300.46,1039.92,308.48Z" transform="translate(-620.51 -103.67)"/><path class="cls-4" d="M1033.36,350.18l18.17-9.41-.43.42a40.29,40.29,0,0,1-2.82,3,17.32,17.32,0,0,1-3.41,2.15,43,43,0,0,1-5.64,2.14C1037.29,349.12,1035.35,349.72,1033.36,350.18Z" transform="translate(-620.51 -103.67)"/><path class="cls-4" d="M1051.53,340.77c.41-.39.84-.77,1.29-1.12a3.1,3.1,0,0,1-1.21,1.08Z" transform="translate(-620.51 -103.67)"/><path class="cls-4" d="M1037.31,336.48c.35-.56.69-1.13,1-1.7,2.06-1.67,4.07-3.38,6-5.15A47,47,0,0,1,1037.31,336.48Z" transform="translate(-620.51 -103.67)"/><path class="cls-4" d="M1169.1,372.74h-62l-52.81.55c.09,0,.29-.28.46-.55l.32-.49c.26-.37.53-.73.78-1.1.52-.75,1-1.51,1.48-2.28a51.14,51.14,0,0,0,2.54-4.8,48.59,48.59,0,0,0,2-5.3c.57-1.79,1-3.62,1.46-5.44,0-.1,0-.25-.08-.27s-.1,0-.14,0c-1.46.93-2.89,2-4.4,2.78a49.41,49.41,0,0,1-4.62,2.27,40.22,40.22,0,0,1-10.41,2.76,39.08,39.08,0,0,1-4.84.32,21.68,21.68,0,0,0,15.28-8,21.9,21.9,0,0,0,4.6-13.07,12.73,12.73,0,0,0-.29-3.59,6.14,6.14,0,0,0-2,.82,19.63,19.63,0,0,0-3.64,2.3c.14-.16.26-.33.38-.47a19.68,19.68,0,0,0,4.32-11.94,19.11,19.11,0,0,0-1.81-8.68c-1.32,1.4-2.68,2.79-4,4.14-2.37,2.39-4.8,4.68-7.3,6.9a47,47,0,0,0,9.07-17.08c0-.67.08-1.32.1-1.95l.14-.08.33-.2a55.14,55.14,0,0,1,12.36-5.51,61.28,61.28,0,0,1,19.07-2.59,83.3,83.3,0,0,1,33,7.3c.48.21,1,.44,1.45.67l1.43.69c1,.48,1.9.95,2.83,1.45l1.4.79c.46.26.92.52,1.37.79.92.54,1.82,1.09,2.72,1.66l1.33.88,1.31.89c1.31.92,2.6,1.86,3.85,2.84.58.44,1.14.89,1.69,1.34s1.35,1.13,2,1.71,1.6,1.41,2.37,2.13l1.16,1.1c.84.83,1.68,1.67,2.49,2.52l.87.93c1,1.09,2,2.19,2.92,3.32l.79.95c.43.52.83,1,1.24,1.56s.83,1.06,1.22,1.61l.58.77c.28.38.56.79.84,1.19s.7,1,1,1.49c1.27,1.87,2.47,3.81,3.61,5.79.33.56.65,1.14,1,1.71l.86,1.6.61,1.19.62,1.29c.29.6.58,1.2.85,1.81s.45,1,.67,1.5.42,1,.62,1.45c.51,1.24,1,2.47,1.45,3.73.19.5.36,1,.54,1.5a4.42,4.42,0,0,1,.15.48c.21.6.42,1.22.61,1.82s.32,1,.46,1.5c.06.18.11.34.16.52l.24.83c.13.48.27,1,.39,1.46.2.7.38,1.4.55,2.12a.19.19,0,0,0,0,.08C1168.87,371.68,1169,372.21,1169.1,372.74Z" transform="translate(-620.51 -103.67)"/><path class="cls-4" d="M1171.43,394.05c0,21.72-4.17,43.93-11.22,65.68A310.85,310.85,0,0,1,1142.84,502q-4,8.14-8.48,16h0q-1.21,2.16-2.44,4.3h0q-7,12.15-14.77,23.53v0c-1,1.45-2,2.9-3,4.32-2.87,4.11-5.78,8.14-8.73,12q-1.32,1.79-2.69,3.54c-4.08,5.31-8.23,10.41-12.39,15.27a0,0,0,0,0,0,0c-1,1.13-1.9,2.2-2.86,3.3-5.88,6.68-11.76,12.91-17.57,18.58-1,.95-1.94,1.88-2.91,2.81l-.1.08a230.13,230.13,0,0,1-17.75,15.29l-1.58,1.2-1.2.9c-10,7.37-19.13,12.45-26.79,14.73l-.14,0-.46-96-.11-22v-.85l0-7.28,0-7.41-.16-33.2h.08l-.08-16.34-.15-29.31s6.6,6.6,7.7,14.3c0,0,1.1,2.2,2.21,2.2a79,79,0,0,0,17.35-7.54l.64-.37a70.68,70.68,0,0,0,9.92-7c.15-.11.28-.23.42-.35.46-.4.93-.81,1.38-1.22,0,0-1.1-3.31-3.3-2.21,0,0-3.11-.66-6.62-1.49-4.31-1-9.24-2.29-9.88-2.9a28.13,28.13,0,0,0,8.33,2,21.73,21.73,0,0,0,17-5.35l1.1-4.4s-17.61,3.3-23.11,0c0,0,17.61,1.1,24.21-13.21a2.41,2.41,0,0,0-3.3-1.1c-2.2,1.1-26.41,4.4-29.71-6.6h138.56l0,1.32C1171.42,392.46,1171.43,393.26,1171.43,394.05Z" transform="translate(-620.51 -103.67)"/><path class="cls-8" d="M1169.1,372.74h-52.34s0-.06,0-.1a203.59,203.59,0,0,0,4.08-29.76c.16-2.71.26-5.43.29-8.14,0-.78,0-1.55,0-2.32a97.87,97.87,0,0,0-2.7-22.93c.48.21,1,.44,1.45.67l1.43.69c1,.48,1.9.95,2.83,1.45l1.4.79c.46.26.92.52,1.37.79.92.54,1.82,1.09,2.72,1.66l1.33.88,1.31.89c1.31.92,2.6,1.86,3.85,2.84.58.44,1.14.89,1.69,1.34s1.35,1.13,2,1.71,1.6,1.41,2.37,2.13l1.16,1.1c.84.83,1.68,1.67,2.49,2.52l.87.93c1,1.09,2,2.19,2.92,3.32l.79.95c.43.52.83,1,1.24,1.56s.83,1.06,1.22,1.61l.58.77c.28.38.56.79.84,1.19s.7,1,1,1.49c1.27,1.87,2.47,3.81,3.61,5.79.33.56.65,1.14,1,1.71l.86,1.6.61,1.19.62,1.29c.29.6.58,1.2.85,1.81s.45,1,.67,1.5.42,1,.62,1.45c.51,1.24,1,2.47,1.45,3.73.19.5.36,1,.54,1.5a4.42,4.42,0,0,1,.15.48c.21.6.42,1.22.61,1.82s.32,1,.46,1.5c.06.18.11.34.16.52l.24.83c.13.48.27,1,.39,1.46.2.7.38,1.4.55,2.12a.19.19,0,0,0,0,.08C1168.87,371.68,1169,372.21,1169.1,372.74Z" transform="translate(-620.51 -103.67)"/><path class="cls-8" d="M1171.43,394.05c0,21.72-4.17,43.93-11.22,65.68A310.85,310.85,0,0,1,1142.84,502q-4,8.14-8.48,16h0q-1.21,2.16-2.44,4.3h0q-7,12.15-14.77,23.53v0c-1,1.45-2,2.9-3,4.32-2.87,4.11-5.78,8.14-8.73,12q-1.32,1.79-2.69,3.54c-4.08,5.31-8.23,10.41-12.39,15.27a0,0,0,0,0,0,0c-1,1.13-1.9,2.2-2.86,3.3-5.88,6.68-11.76,12.91-17.57,18.58-1,.95-1.94,1.88-2.91,2.81l-.1.08a230.13,230.13,0,0,1-17.75,15.29l-1.58,1.2-1.2.9c-10,7.37-19.13,12.45-26.79,14.73l-.14,0-.46-96a.52.52,0,0,1,.11-.1,344.34,344.34,0,0,0,24.51-26.64c.28-.31.55-.66.84-1,7.68-9.3,15.25-19.38,22.46-30,5.48-8.1,10.75-16.54,15.73-25.23q2.34-4.12,4.61-8.32h0q1.11-2.07,2.19-4.14c.54-1,1.07-2,1.59-3.09.68-1.32,1.35-2.67,2-4,1.71-3.49,3.38-7,5-10.55,4-8.73,7.49-17.61,10.55-26.58,1.36-4,2.62-8,3.78-11.94h59l0,1.32C1171.42,392.46,1171.43,393.26,1171.43,394.05Z" transform="translate(-620.51 -103.67)"/><polyline class="cls-9" points="402.69 320.61 402.72 320.62 402.75 320.62"/><path class="cls-9" d="M1045.76,434.53l.89.51c.52.31,1,.59,1.55.91,2.79,1.64,5.65,3.4,8.54,5.26,3.35,2.13,6.76,4.37,10.18,6.72q3.45,2.32,6.91,4.76c2.94,2.07,5.89,4.17,8.82,6.3,26.89,19.47,52.25,40.15,60.18,43" transform="translate(-620.51 -103.67)"/><path class="cls-9" d="M1018.65,471.22h.08c16.09.16,32.07-7.81,48.19-15.35,2.3-1.09,4.6-2.14,6.91-3.18,3-1.32,5.92-2.6,8.88-3.74h0c2.25-.88,4.48-1.68,6.73-2.42,1.07-.35,2.13-.68,3.2-1a73.12,73.12,0,0,1,9.52-2.11,55.2,55.2,0,0,1,8.32-.64,77.67,77.67,0,0,1,9.91.64c.81.11,1.62.23,2.41.36,1.8.27,3.59.62,5.34,1h0l.07,0a82.68,82.68,0,0,1,32,14.88c12.59,9.82,19.34,22.27,15,32.69-8.39,20.16-31.74,9.86-32.38,9.57h0" transform="translate(-620.51 -103.67)"/><polygon class="cls-10" points="552.57 396.73 567.46 401.21 559.43 387.09 552.57 396.73"/><polygon class="cls-10" points="553.15 368.31 563.01 348.23 544.88 360.03 553.15 368.31"/><polygon class="cls-10" points="513.38 341.49 508.74 320.75 502.06 340.85 513.38 341.49"/><polygon class="cls-10" points="471.69 348.87 473.14 326.43 461.01 344.82 471.69 348.87"/><polygon class="cls-10" points="478.61 375.13 479.65 396.13 489.63 378.01 478.61 375.13"/><polygon class="cls-10" points="522.48 400.65 527.27 421.05 533.8 401.21 522.48 400.65"/><polygon class="cls-10" points="425.38 335.2 426.41 356.2 436.39 338.07 425.38 335.2"/><path class="cls-11" d="M1117,548.29c0,9.79,5.5,17.73,12.28,17.73s12.28-7.94,12.28-17.73-12.28-46.3-12.28-46.3S1117,538.49,1117,548.29Z" transform="translate(-620.51 -103.67)"/><path class="cls-11" d="M1090.26,582.72c0,7.9,4.43,14.3,9.9,14.3s9.9-6.4,9.9-14.3-9.9-37.33-9.9-37.33S1090.26,574.82,1090.26,582.72Z" transform="translate(-620.51 -103.67)"/><path class="cls-11" d="M1069.08,550.09c0,5.38,3.68,9.73,8.22,9.73s8.2-4.35,8.2-9.73-8.2-25.38-8.2-25.38S1069.08,544.72,1069.08,550.09Z" transform="translate(-620.51 -103.67)"/><g class="cls-12"><path class="cls-13" d="M1046.93,514.66l-1.45.28c-.5.07-1.12.2-1.86.33a18.51,18.51,0,0,1-2.25.24,41.05,41.05,0,0,1-6.54,0,45.91,45.91,0,0,1-8.44-1.35,55.16,55.16,0,0,1-7.54-2.38l0-7.41.66.39a84.86,84.86,0,0,0,8.41,4.46,68.1,68.1,0,0,0,7.5,2.88c2.3.66,4.35,1.25,6,1.56,1.17.27,2.19.43,3,.55l1,.15Z" transform="translate(-620.51 -103.67)"/></g><g class="cls-12"><path class="cls-13" d="M1020.72,519.81s-.66.08-1.83.15v-.86C1020.06,519.53,1020.72,519.81,1020.72,519.81Z" transform="translate(-620.51 -103.67)"/></g><g class="cls-12"><path class="cls-13" d="M1051.39,514.66a17.67,17.67,0,0,0,3.16.9,26.65,26.65,0,0,0,3.4.18,31.7,31.7,0,0,0,3.79-.4,27.81,27.81,0,0,0,6.78-2.21,15.44,15.44,0,0,0,2.87-1.71,25.45,25.45,0,0,0-3.26,0c-1,.06-2.07.16-3.24.33s-2.41.31-3.63.57-2.45.45-3.59.75a29.42,29.42,0,0,0-3.09.73A21,21,0,0,0,1051.39,514.66Z" transform="translate(-620.51 -103.67)"/></g><path class="cls-14" d="M1114.13,551.31c0,9.8,5.5,17.74,12.28,17.74s12.28-7.94,12.28-17.74S1126.41,505,1126.41,505,1114.13,541.52,1114.13,551.31Z" transform="translate(-620.51 -103.67)"/><path class="cls-14" d="M1087.43,585.75c0,7.9,4.43,14.3,9.89,14.3s9.91-6.4,9.91-14.3-9.91-37.33-9.91-37.33S1087.43,577.85,1087.43,585.75Z" transform="translate(-620.51 -103.67)"/><path class="cls-14" d="M1066.25,553.12c0,5.37,3.68,9.73,8.21,9.73s8.21-4.36,8.21-9.73-8.21-25.38-8.21-25.38S1066.25,547.75,1066.25,553.12Z" transform="translate(-620.51 -103.67)"/></g></g></svg>